%TF.GenerationSoftware,KiCad,Pcbnew,9.0.6*%
%TF.CreationDate,2025-11-29T15:25:02+01:00*%
%TF.ProjectId,rp2040-dev-board,72703230-3430-42d6-9465-762d626f6172,rev?*%
%TF.SameCoordinates,Original*%
%TF.FileFunction,Legend,Top*%
%TF.FilePolarity,Positive*%
%FSLAX46Y46*%
G04 Gerber Fmt 4.6, Leading zero omitted, Abs format (unit mm)*
G04 Created by KiCad (PCBNEW 9.0.6) date 2025-11-29 15:25:02*
%MOMM*%
%LPD*%
G01*
G04 APERTURE LIST*
%ADD10C,0.062500*%
%ADD11C,0.100000*%
%ADD12C,0.120000*%
G04 APERTURE END LIST*
D10*
X126011905Y-101392492D02*
X125988095Y-101368682D01*
X125988095Y-101368682D02*
X125940476Y-101344873D01*
X125940476Y-101344873D02*
X125892857Y-101344873D01*
X125892857Y-101344873D02*
X125845238Y-101368682D01*
X125845238Y-101368682D02*
X125821429Y-101392492D01*
X125821429Y-101392492D02*
X125797619Y-101440111D01*
X125797619Y-101440111D02*
X125797619Y-101487730D01*
X125797619Y-101487730D02*
X125821429Y-101535349D01*
X125821429Y-101535349D02*
X125845238Y-101559158D01*
X125845238Y-101559158D02*
X125892857Y-101582968D01*
X125892857Y-101582968D02*
X125940476Y-101582968D01*
X125940476Y-101582968D02*
X125988095Y-101559158D01*
X125988095Y-101559158D02*
X126011905Y-101535349D01*
X126011905Y-101344873D02*
X126011905Y-101535349D01*
X126011905Y-101535349D02*
X126035714Y-101559158D01*
X126035714Y-101559158D02*
X126059524Y-101559158D01*
X126059524Y-101559158D02*
X126107143Y-101535349D01*
X126107143Y-101535349D02*
X126130953Y-101487730D01*
X126130953Y-101487730D02*
X126130953Y-101368682D01*
X126130953Y-101368682D02*
X126083334Y-101297254D01*
X126083334Y-101297254D02*
X126011905Y-101249635D01*
X126011905Y-101249635D02*
X125916667Y-101225825D01*
X125916667Y-101225825D02*
X125821429Y-101249635D01*
X125821429Y-101249635D02*
X125750000Y-101297254D01*
X125750000Y-101297254D02*
X125702381Y-101368682D01*
X125702381Y-101368682D02*
X125678572Y-101463920D01*
X125678572Y-101463920D02*
X125702381Y-101559158D01*
X125702381Y-101559158D02*
X125750000Y-101630587D01*
X125750000Y-101630587D02*
X125821429Y-101678206D01*
X125821429Y-101678206D02*
X125916667Y-101702016D01*
X125916667Y-101702016D02*
X126011905Y-101678206D01*
X126011905Y-101678206D02*
X126083334Y-101630587D01*
X126511905Y-101368682D02*
X126583333Y-101392492D01*
X126583333Y-101392492D02*
X126607143Y-101416301D01*
X126607143Y-101416301D02*
X126630952Y-101463920D01*
X126630952Y-101463920D02*
X126630952Y-101535349D01*
X126630952Y-101535349D02*
X126607143Y-101582968D01*
X126607143Y-101582968D02*
X126583333Y-101606778D01*
X126583333Y-101606778D02*
X126535714Y-101630587D01*
X126535714Y-101630587D02*
X126345238Y-101630587D01*
X126345238Y-101630587D02*
X126345238Y-101130587D01*
X126345238Y-101130587D02*
X126511905Y-101130587D01*
X126511905Y-101130587D02*
X126559524Y-101154397D01*
X126559524Y-101154397D02*
X126583333Y-101178206D01*
X126583333Y-101178206D02*
X126607143Y-101225825D01*
X126607143Y-101225825D02*
X126607143Y-101273444D01*
X126607143Y-101273444D02*
X126583333Y-101321063D01*
X126583333Y-101321063D02*
X126559524Y-101344873D01*
X126559524Y-101344873D02*
X126511905Y-101368682D01*
X126511905Y-101368682D02*
X126345238Y-101368682D01*
X127035714Y-101606778D02*
X126988095Y-101630587D01*
X126988095Y-101630587D02*
X126892857Y-101630587D01*
X126892857Y-101630587D02*
X126845238Y-101606778D01*
X126845238Y-101606778D02*
X126821429Y-101559158D01*
X126821429Y-101559158D02*
X126821429Y-101368682D01*
X126821429Y-101368682D02*
X126845238Y-101321063D01*
X126845238Y-101321063D02*
X126892857Y-101297254D01*
X126892857Y-101297254D02*
X126988095Y-101297254D01*
X126988095Y-101297254D02*
X127035714Y-101321063D01*
X127035714Y-101321063D02*
X127059524Y-101368682D01*
X127059524Y-101368682D02*
X127059524Y-101416301D01*
X127059524Y-101416301D02*
X126821429Y-101463920D01*
X127273809Y-101297254D02*
X127273809Y-101630587D01*
X127273809Y-101344873D02*
X127297619Y-101321063D01*
X127297619Y-101321063D02*
X127345238Y-101297254D01*
X127345238Y-101297254D02*
X127416666Y-101297254D01*
X127416666Y-101297254D02*
X127464285Y-101321063D01*
X127464285Y-101321063D02*
X127488095Y-101368682D01*
X127488095Y-101368682D02*
X127488095Y-101630587D01*
X127726190Y-101297254D02*
X127726190Y-101725825D01*
X127726190Y-101725825D02*
X127702381Y-101773444D01*
X127702381Y-101773444D02*
X127654762Y-101797254D01*
X127654762Y-101797254D02*
X127630952Y-101797254D01*
X127726190Y-101130587D02*
X127702381Y-101154397D01*
X127702381Y-101154397D02*
X127726190Y-101178206D01*
X127726190Y-101178206D02*
X127750000Y-101154397D01*
X127750000Y-101154397D02*
X127726190Y-101130587D01*
X127726190Y-101130587D02*
X127726190Y-101178206D01*
X128178571Y-101630587D02*
X128178571Y-101368682D01*
X128178571Y-101368682D02*
X128154761Y-101321063D01*
X128154761Y-101321063D02*
X128107142Y-101297254D01*
X128107142Y-101297254D02*
X128011904Y-101297254D01*
X128011904Y-101297254D02*
X127964285Y-101321063D01*
X128178571Y-101606778D02*
X128130952Y-101630587D01*
X128130952Y-101630587D02*
X128011904Y-101630587D01*
X128011904Y-101630587D02*
X127964285Y-101606778D01*
X127964285Y-101606778D02*
X127940476Y-101559158D01*
X127940476Y-101559158D02*
X127940476Y-101511539D01*
X127940476Y-101511539D02*
X127964285Y-101463920D01*
X127964285Y-101463920D02*
X128011904Y-101440111D01*
X128011904Y-101440111D02*
X128130952Y-101440111D01*
X128130952Y-101440111D02*
X128178571Y-101416301D01*
X128416666Y-101630587D02*
X128416666Y-101297254D01*
X128416666Y-101344873D02*
X128440476Y-101321063D01*
X128440476Y-101321063D02*
X128488095Y-101297254D01*
X128488095Y-101297254D02*
X128559523Y-101297254D01*
X128559523Y-101297254D02*
X128607142Y-101321063D01*
X128607142Y-101321063D02*
X128630952Y-101368682D01*
X128630952Y-101368682D02*
X128630952Y-101630587D01*
X128630952Y-101368682D02*
X128654761Y-101321063D01*
X128654761Y-101321063D02*
X128702380Y-101297254D01*
X128702380Y-101297254D02*
X128773809Y-101297254D01*
X128773809Y-101297254D02*
X128821428Y-101321063D01*
X128821428Y-101321063D02*
X128845238Y-101368682D01*
X128845238Y-101368682D02*
X128845238Y-101630587D01*
X129083333Y-101630587D02*
X129083333Y-101297254D01*
X129083333Y-101130587D02*
X129059524Y-101154397D01*
X129059524Y-101154397D02*
X129083333Y-101178206D01*
X129083333Y-101178206D02*
X129107143Y-101154397D01*
X129107143Y-101154397D02*
X129083333Y-101130587D01*
X129083333Y-101130587D02*
X129083333Y-101178206D01*
X129321428Y-101297254D02*
X129321428Y-101630587D01*
X129321428Y-101344873D02*
X129345238Y-101321063D01*
X129345238Y-101321063D02*
X129392857Y-101297254D01*
X129392857Y-101297254D02*
X129464285Y-101297254D01*
X129464285Y-101297254D02*
X129511904Y-101321063D01*
X129511904Y-101321063D02*
X129535714Y-101368682D01*
X129535714Y-101368682D02*
X129535714Y-101630587D01*
X129773809Y-101630587D02*
X129773809Y-101130587D01*
X129773809Y-101130587D02*
X129892857Y-101130587D01*
X129892857Y-101130587D02*
X129964285Y-101154397D01*
X129964285Y-101154397D02*
X130011904Y-101202016D01*
X130011904Y-101202016D02*
X130035714Y-101249635D01*
X130035714Y-101249635D02*
X130059523Y-101344873D01*
X130059523Y-101344873D02*
X130059523Y-101416301D01*
X130059523Y-101416301D02*
X130035714Y-101511539D01*
X130035714Y-101511539D02*
X130011904Y-101559158D01*
X130011904Y-101559158D02*
X129964285Y-101606778D01*
X129964285Y-101606778D02*
X129892857Y-101630587D01*
X129892857Y-101630587D02*
X129773809Y-101630587D01*
X130464285Y-101606778D02*
X130416666Y-101630587D01*
X130416666Y-101630587D02*
X130321428Y-101630587D01*
X130321428Y-101630587D02*
X130273809Y-101606778D01*
X130273809Y-101606778D02*
X130250000Y-101559158D01*
X130250000Y-101559158D02*
X130250000Y-101368682D01*
X130250000Y-101368682D02*
X130273809Y-101321063D01*
X130273809Y-101321063D02*
X130321428Y-101297254D01*
X130321428Y-101297254D02*
X130416666Y-101297254D01*
X130416666Y-101297254D02*
X130464285Y-101321063D01*
X130464285Y-101321063D02*
X130488095Y-101368682D01*
X130488095Y-101368682D02*
X130488095Y-101416301D01*
X130488095Y-101416301D02*
X130250000Y-101463920D01*
X130702380Y-101630587D02*
X130702380Y-101297254D01*
X130702380Y-101392492D02*
X130726190Y-101344873D01*
X130726190Y-101344873D02*
X130749999Y-101321063D01*
X130749999Y-101321063D02*
X130797618Y-101297254D01*
X130797618Y-101297254D02*
X130845237Y-101297254D01*
X131011904Y-101630587D02*
X131011904Y-101130587D01*
X131011904Y-101130587D02*
X131202380Y-101130587D01*
X131202380Y-101130587D02*
X131249999Y-101154397D01*
X131249999Y-101154397D02*
X131273809Y-101178206D01*
X131273809Y-101178206D02*
X131297618Y-101225825D01*
X131297618Y-101225825D02*
X131297618Y-101297254D01*
X131297618Y-101297254D02*
X131273809Y-101344873D01*
X131273809Y-101344873D02*
X131249999Y-101368682D01*
X131249999Y-101368682D02*
X131202380Y-101392492D01*
X131202380Y-101392492D02*
X131011904Y-101392492D01*
X131511904Y-101630587D02*
X131511904Y-101297254D01*
X131511904Y-101392492D02*
X131535714Y-101344873D01*
X131535714Y-101344873D02*
X131559523Y-101321063D01*
X131559523Y-101321063D02*
X131607142Y-101297254D01*
X131607142Y-101297254D02*
X131654761Y-101297254D01*
X131892857Y-101630587D02*
X131845238Y-101606778D01*
X131845238Y-101606778D02*
X131821428Y-101582968D01*
X131821428Y-101582968D02*
X131797619Y-101535349D01*
X131797619Y-101535349D02*
X131797619Y-101392492D01*
X131797619Y-101392492D02*
X131821428Y-101344873D01*
X131821428Y-101344873D02*
X131845238Y-101321063D01*
X131845238Y-101321063D02*
X131892857Y-101297254D01*
X131892857Y-101297254D02*
X131964285Y-101297254D01*
X131964285Y-101297254D02*
X132011904Y-101321063D01*
X132011904Y-101321063D02*
X132035714Y-101344873D01*
X132035714Y-101344873D02*
X132059523Y-101392492D01*
X132059523Y-101392492D02*
X132059523Y-101535349D01*
X132059523Y-101535349D02*
X132035714Y-101582968D01*
X132035714Y-101582968D02*
X132011904Y-101606778D01*
X132011904Y-101606778D02*
X131964285Y-101630587D01*
X131964285Y-101630587D02*
X131892857Y-101630587D01*
X132488095Y-101297254D02*
X132488095Y-101702016D01*
X132488095Y-101702016D02*
X132464285Y-101749635D01*
X132464285Y-101749635D02*
X132440476Y-101773444D01*
X132440476Y-101773444D02*
X132392857Y-101797254D01*
X132392857Y-101797254D02*
X132321428Y-101797254D01*
X132321428Y-101797254D02*
X132273809Y-101773444D01*
X132488095Y-101606778D02*
X132440476Y-101630587D01*
X132440476Y-101630587D02*
X132345238Y-101630587D01*
X132345238Y-101630587D02*
X132297619Y-101606778D01*
X132297619Y-101606778D02*
X132273809Y-101582968D01*
X132273809Y-101582968D02*
X132250000Y-101535349D01*
X132250000Y-101535349D02*
X132250000Y-101392492D01*
X132250000Y-101392492D02*
X132273809Y-101344873D01*
X132273809Y-101344873D02*
X132297619Y-101321063D01*
X132297619Y-101321063D02*
X132345238Y-101297254D01*
X132345238Y-101297254D02*
X132440476Y-101297254D01*
X132440476Y-101297254D02*
X132488095Y-101321063D01*
X132726190Y-101630587D02*
X132726190Y-101297254D01*
X132726190Y-101392492D02*
X132750000Y-101344873D01*
X132750000Y-101344873D02*
X132773809Y-101321063D01*
X132773809Y-101321063D02*
X132821428Y-101297254D01*
X132821428Y-101297254D02*
X132869047Y-101297254D01*
X133250000Y-101630587D02*
X133250000Y-101368682D01*
X133250000Y-101368682D02*
X133226190Y-101321063D01*
X133226190Y-101321063D02*
X133178571Y-101297254D01*
X133178571Y-101297254D02*
X133083333Y-101297254D01*
X133083333Y-101297254D02*
X133035714Y-101321063D01*
X133250000Y-101606778D02*
X133202381Y-101630587D01*
X133202381Y-101630587D02*
X133083333Y-101630587D01*
X133083333Y-101630587D02*
X133035714Y-101606778D01*
X133035714Y-101606778D02*
X133011905Y-101559158D01*
X133011905Y-101559158D02*
X133011905Y-101511539D01*
X133011905Y-101511539D02*
X133035714Y-101463920D01*
X133035714Y-101463920D02*
X133083333Y-101440111D01*
X133083333Y-101440111D02*
X133202381Y-101440111D01*
X133202381Y-101440111D02*
X133250000Y-101416301D01*
X133488095Y-101630587D02*
X133488095Y-101297254D01*
X133488095Y-101344873D02*
X133511905Y-101321063D01*
X133511905Y-101321063D02*
X133559524Y-101297254D01*
X133559524Y-101297254D02*
X133630952Y-101297254D01*
X133630952Y-101297254D02*
X133678571Y-101321063D01*
X133678571Y-101321063D02*
X133702381Y-101368682D01*
X133702381Y-101368682D02*
X133702381Y-101630587D01*
X133702381Y-101368682D02*
X133726190Y-101321063D01*
X133726190Y-101321063D02*
X133773809Y-101297254D01*
X133773809Y-101297254D02*
X133845238Y-101297254D01*
X133845238Y-101297254D02*
X133892857Y-101321063D01*
X133892857Y-101321063D02*
X133916667Y-101368682D01*
X133916667Y-101368682D02*
X133916667Y-101630587D01*
X134154762Y-101630587D02*
X134154762Y-101297254D01*
X134154762Y-101344873D02*
X134178572Y-101321063D01*
X134178572Y-101321063D02*
X134226191Y-101297254D01*
X134226191Y-101297254D02*
X134297619Y-101297254D01*
X134297619Y-101297254D02*
X134345238Y-101321063D01*
X134345238Y-101321063D02*
X134369048Y-101368682D01*
X134369048Y-101368682D02*
X134369048Y-101630587D01*
X134369048Y-101368682D02*
X134392857Y-101321063D01*
X134392857Y-101321063D02*
X134440476Y-101297254D01*
X134440476Y-101297254D02*
X134511905Y-101297254D01*
X134511905Y-101297254D02*
X134559524Y-101321063D01*
X134559524Y-101321063D02*
X134583334Y-101368682D01*
X134583334Y-101368682D02*
X134583334Y-101630587D01*
X134821429Y-101630587D02*
X134821429Y-101297254D01*
X134821429Y-101130587D02*
X134797620Y-101154397D01*
X134797620Y-101154397D02*
X134821429Y-101178206D01*
X134821429Y-101178206D02*
X134845239Y-101154397D01*
X134845239Y-101154397D02*
X134821429Y-101130587D01*
X134821429Y-101130587D02*
X134821429Y-101178206D01*
X135250000Y-101606778D02*
X135202381Y-101630587D01*
X135202381Y-101630587D02*
X135107143Y-101630587D01*
X135107143Y-101630587D02*
X135059524Y-101606778D01*
X135059524Y-101606778D02*
X135035715Y-101559158D01*
X135035715Y-101559158D02*
X135035715Y-101368682D01*
X135035715Y-101368682D02*
X135059524Y-101321063D01*
X135059524Y-101321063D02*
X135107143Y-101297254D01*
X135107143Y-101297254D02*
X135202381Y-101297254D01*
X135202381Y-101297254D02*
X135250000Y-101321063D01*
X135250000Y-101321063D02*
X135273810Y-101368682D01*
X135273810Y-101368682D02*
X135273810Y-101416301D01*
X135273810Y-101416301D02*
X135035715Y-101463920D01*
X135488095Y-101630587D02*
X135488095Y-101297254D01*
X135488095Y-101392492D02*
X135511905Y-101344873D01*
X135511905Y-101344873D02*
X135535714Y-101321063D01*
X135535714Y-101321063D02*
X135583333Y-101297254D01*
X135583333Y-101297254D02*
X135630952Y-101297254D01*
X135988095Y-101606778D02*
X135940476Y-101630587D01*
X135940476Y-101630587D02*
X135845238Y-101630587D01*
X135845238Y-101630587D02*
X135797619Y-101606778D01*
X135797619Y-101606778D02*
X135773810Y-101559158D01*
X135773810Y-101559158D02*
X135773810Y-101368682D01*
X135773810Y-101368682D02*
X135797619Y-101321063D01*
X135797619Y-101321063D02*
X135845238Y-101297254D01*
X135845238Y-101297254D02*
X135940476Y-101297254D01*
X135940476Y-101297254D02*
X135988095Y-101321063D01*
X135988095Y-101321063D02*
X136011905Y-101368682D01*
X136011905Y-101368682D02*
X136011905Y-101416301D01*
X136011905Y-101416301D02*
X135773810Y-101463920D01*
X136226190Y-101630587D02*
X136226190Y-101297254D01*
X136226190Y-101392492D02*
X136250000Y-101344873D01*
X136250000Y-101344873D02*
X136273809Y-101321063D01*
X136273809Y-101321063D02*
X136321428Y-101297254D01*
X136321428Y-101297254D02*
X136369047Y-101297254D01*
X127095239Y-102435559D02*
X127095239Y-101935559D01*
X127095239Y-101935559D02*
X127261906Y-102292702D01*
X127261906Y-102292702D02*
X127428572Y-101935559D01*
X127428572Y-101935559D02*
X127428572Y-102435559D01*
X127619049Y-102102226D02*
X127738097Y-102435559D01*
X127857144Y-102102226D02*
X127738097Y-102435559D01*
X127738097Y-102435559D02*
X127690478Y-102554607D01*
X127690478Y-102554607D02*
X127666668Y-102578416D01*
X127666668Y-102578416D02*
X127619049Y-102602226D01*
X128714286Y-102435559D02*
X128547620Y-102197464D01*
X128428572Y-102435559D02*
X128428572Y-101935559D01*
X128428572Y-101935559D02*
X128619048Y-101935559D01*
X128619048Y-101935559D02*
X128666667Y-101959369D01*
X128666667Y-101959369D02*
X128690477Y-101983178D01*
X128690477Y-101983178D02*
X128714286Y-102030797D01*
X128714286Y-102030797D02*
X128714286Y-102102226D01*
X128714286Y-102102226D02*
X128690477Y-102149845D01*
X128690477Y-102149845D02*
X128666667Y-102173654D01*
X128666667Y-102173654D02*
X128619048Y-102197464D01*
X128619048Y-102197464D02*
X128428572Y-102197464D01*
X128928572Y-102435559D02*
X128928572Y-101935559D01*
X128928572Y-101935559D02*
X129119048Y-101935559D01*
X129119048Y-101935559D02*
X129166667Y-101959369D01*
X129166667Y-101959369D02*
X129190477Y-101983178D01*
X129190477Y-101983178D02*
X129214286Y-102030797D01*
X129214286Y-102030797D02*
X129214286Y-102102226D01*
X129214286Y-102102226D02*
X129190477Y-102149845D01*
X129190477Y-102149845D02*
X129166667Y-102173654D01*
X129166667Y-102173654D02*
X129119048Y-102197464D01*
X129119048Y-102197464D02*
X128928572Y-102197464D01*
X129404763Y-101983178D02*
X129428572Y-101959369D01*
X129428572Y-101959369D02*
X129476191Y-101935559D01*
X129476191Y-101935559D02*
X129595239Y-101935559D01*
X129595239Y-101935559D02*
X129642858Y-101959369D01*
X129642858Y-101959369D02*
X129666667Y-101983178D01*
X129666667Y-101983178D02*
X129690477Y-102030797D01*
X129690477Y-102030797D02*
X129690477Y-102078416D01*
X129690477Y-102078416D02*
X129666667Y-102149845D01*
X129666667Y-102149845D02*
X129380953Y-102435559D01*
X129380953Y-102435559D02*
X129690477Y-102435559D01*
X130000000Y-101935559D02*
X130047619Y-101935559D01*
X130047619Y-101935559D02*
X130095238Y-101959369D01*
X130095238Y-101959369D02*
X130119048Y-101983178D01*
X130119048Y-101983178D02*
X130142857Y-102030797D01*
X130142857Y-102030797D02*
X130166667Y-102126035D01*
X130166667Y-102126035D02*
X130166667Y-102245083D01*
X130166667Y-102245083D02*
X130142857Y-102340321D01*
X130142857Y-102340321D02*
X130119048Y-102387940D01*
X130119048Y-102387940D02*
X130095238Y-102411750D01*
X130095238Y-102411750D02*
X130047619Y-102435559D01*
X130047619Y-102435559D02*
X130000000Y-102435559D01*
X130000000Y-102435559D02*
X129952381Y-102411750D01*
X129952381Y-102411750D02*
X129928572Y-102387940D01*
X129928572Y-102387940D02*
X129904762Y-102340321D01*
X129904762Y-102340321D02*
X129880953Y-102245083D01*
X129880953Y-102245083D02*
X129880953Y-102126035D01*
X129880953Y-102126035D02*
X129904762Y-102030797D01*
X129904762Y-102030797D02*
X129928572Y-101983178D01*
X129928572Y-101983178D02*
X129952381Y-101959369D01*
X129952381Y-101959369D02*
X130000000Y-101935559D01*
X130595238Y-102102226D02*
X130595238Y-102435559D01*
X130476190Y-101911750D02*
X130357143Y-102268892D01*
X130357143Y-102268892D02*
X130666666Y-102268892D01*
X130952380Y-101935559D02*
X130999999Y-101935559D01*
X130999999Y-101935559D02*
X131047618Y-101959369D01*
X131047618Y-101959369D02*
X131071428Y-101983178D01*
X131071428Y-101983178D02*
X131095237Y-102030797D01*
X131095237Y-102030797D02*
X131119047Y-102126035D01*
X131119047Y-102126035D02*
X131119047Y-102245083D01*
X131119047Y-102245083D02*
X131095237Y-102340321D01*
X131095237Y-102340321D02*
X131071428Y-102387940D01*
X131071428Y-102387940D02*
X131047618Y-102411750D01*
X131047618Y-102411750D02*
X130999999Y-102435559D01*
X130999999Y-102435559D02*
X130952380Y-102435559D01*
X130952380Y-102435559D02*
X130904761Y-102411750D01*
X130904761Y-102411750D02*
X130880952Y-102387940D01*
X130880952Y-102387940D02*
X130857142Y-102340321D01*
X130857142Y-102340321D02*
X130833333Y-102245083D01*
X130833333Y-102245083D02*
X130833333Y-102126035D01*
X130833333Y-102126035D02*
X130857142Y-102030797D01*
X130857142Y-102030797D02*
X130880952Y-101983178D01*
X130880952Y-101983178D02*
X130904761Y-101959369D01*
X130904761Y-101959369D02*
X130952380Y-101935559D01*
X131714284Y-102435559D02*
X131714284Y-101935559D01*
X131714284Y-101935559D02*
X131833332Y-101935559D01*
X131833332Y-101935559D02*
X131904760Y-101959369D01*
X131904760Y-101959369D02*
X131952379Y-102006988D01*
X131952379Y-102006988D02*
X131976189Y-102054607D01*
X131976189Y-102054607D02*
X131999998Y-102149845D01*
X131999998Y-102149845D02*
X131999998Y-102221273D01*
X131999998Y-102221273D02*
X131976189Y-102316511D01*
X131976189Y-102316511D02*
X131952379Y-102364130D01*
X131952379Y-102364130D02*
X131904760Y-102411750D01*
X131904760Y-102411750D02*
X131833332Y-102435559D01*
X131833332Y-102435559D02*
X131714284Y-102435559D01*
X132404760Y-102411750D02*
X132357141Y-102435559D01*
X132357141Y-102435559D02*
X132261903Y-102435559D01*
X132261903Y-102435559D02*
X132214284Y-102411750D01*
X132214284Y-102411750D02*
X132190475Y-102364130D01*
X132190475Y-102364130D02*
X132190475Y-102173654D01*
X132190475Y-102173654D02*
X132214284Y-102126035D01*
X132214284Y-102126035D02*
X132261903Y-102102226D01*
X132261903Y-102102226D02*
X132357141Y-102102226D01*
X132357141Y-102102226D02*
X132404760Y-102126035D01*
X132404760Y-102126035D02*
X132428570Y-102173654D01*
X132428570Y-102173654D02*
X132428570Y-102221273D01*
X132428570Y-102221273D02*
X132190475Y-102268892D01*
X132595236Y-102102226D02*
X132714284Y-102435559D01*
X132714284Y-102435559D02*
X132833331Y-102102226D01*
X133023807Y-102435559D02*
X133023807Y-101935559D01*
X133023807Y-102126035D02*
X133071426Y-102102226D01*
X133071426Y-102102226D02*
X133166664Y-102102226D01*
X133166664Y-102102226D02*
X133214283Y-102126035D01*
X133214283Y-102126035D02*
X133238093Y-102149845D01*
X133238093Y-102149845D02*
X133261902Y-102197464D01*
X133261902Y-102197464D02*
X133261902Y-102340321D01*
X133261902Y-102340321D02*
X133238093Y-102387940D01*
X133238093Y-102387940D02*
X133214283Y-102411750D01*
X133214283Y-102411750D02*
X133166664Y-102435559D01*
X133166664Y-102435559D02*
X133071426Y-102435559D01*
X133071426Y-102435559D02*
X133023807Y-102411750D01*
X133547617Y-102435559D02*
X133499998Y-102411750D01*
X133499998Y-102411750D02*
X133476188Y-102387940D01*
X133476188Y-102387940D02*
X133452379Y-102340321D01*
X133452379Y-102340321D02*
X133452379Y-102197464D01*
X133452379Y-102197464D02*
X133476188Y-102149845D01*
X133476188Y-102149845D02*
X133499998Y-102126035D01*
X133499998Y-102126035D02*
X133547617Y-102102226D01*
X133547617Y-102102226D02*
X133619045Y-102102226D01*
X133619045Y-102102226D02*
X133666664Y-102126035D01*
X133666664Y-102126035D02*
X133690474Y-102149845D01*
X133690474Y-102149845D02*
X133714283Y-102197464D01*
X133714283Y-102197464D02*
X133714283Y-102340321D01*
X133714283Y-102340321D02*
X133690474Y-102387940D01*
X133690474Y-102387940D02*
X133666664Y-102411750D01*
X133666664Y-102411750D02*
X133619045Y-102435559D01*
X133619045Y-102435559D02*
X133547617Y-102435559D01*
X134142855Y-102435559D02*
X134142855Y-102173654D01*
X134142855Y-102173654D02*
X134119045Y-102126035D01*
X134119045Y-102126035D02*
X134071426Y-102102226D01*
X134071426Y-102102226D02*
X133976188Y-102102226D01*
X133976188Y-102102226D02*
X133928569Y-102126035D01*
X134142855Y-102411750D02*
X134095236Y-102435559D01*
X134095236Y-102435559D02*
X133976188Y-102435559D01*
X133976188Y-102435559D02*
X133928569Y-102411750D01*
X133928569Y-102411750D02*
X133904760Y-102364130D01*
X133904760Y-102364130D02*
X133904760Y-102316511D01*
X133904760Y-102316511D02*
X133928569Y-102268892D01*
X133928569Y-102268892D02*
X133976188Y-102245083D01*
X133976188Y-102245083D02*
X134095236Y-102245083D01*
X134095236Y-102245083D02*
X134142855Y-102221273D01*
X134380950Y-102435559D02*
X134380950Y-102102226D01*
X134380950Y-102197464D02*
X134404760Y-102149845D01*
X134404760Y-102149845D02*
X134428569Y-102126035D01*
X134428569Y-102126035D02*
X134476188Y-102102226D01*
X134476188Y-102102226D02*
X134523807Y-102102226D01*
X134904760Y-102435559D02*
X134904760Y-101935559D01*
X134904760Y-102411750D02*
X134857141Y-102435559D01*
X134857141Y-102435559D02*
X134761903Y-102435559D01*
X134761903Y-102435559D02*
X134714284Y-102411750D01*
X134714284Y-102411750D02*
X134690474Y-102387940D01*
X134690474Y-102387940D02*
X134666665Y-102340321D01*
X134666665Y-102340321D02*
X134666665Y-102197464D01*
X134666665Y-102197464D02*
X134690474Y-102149845D01*
X134690474Y-102149845D02*
X134714284Y-102126035D01*
X134714284Y-102126035D02*
X134761903Y-102102226D01*
X134761903Y-102102226D02*
X134857141Y-102102226D01*
X134857141Y-102102226D02*
X134904760Y-102126035D01*
D11*
X128637217Y-104348609D02*
X128780074Y-104396228D01*
X128780074Y-104396228D02*
X128827693Y-104443847D01*
X128827693Y-104443847D02*
X128875312Y-104539085D01*
X128875312Y-104539085D02*
X128875312Y-104681942D01*
X128875312Y-104681942D02*
X128827693Y-104777180D01*
X128827693Y-104777180D02*
X128780074Y-104824800D01*
X128780074Y-104824800D02*
X128684836Y-104872419D01*
X128684836Y-104872419D02*
X128303884Y-104872419D01*
X128303884Y-104872419D02*
X128303884Y-103872419D01*
X128303884Y-103872419D02*
X128637217Y-103872419D01*
X128637217Y-103872419D02*
X128732455Y-103920038D01*
X128732455Y-103920038D02*
X128780074Y-103967657D01*
X128780074Y-103967657D02*
X128827693Y-104062895D01*
X128827693Y-104062895D02*
X128827693Y-104158133D01*
X128827693Y-104158133D02*
X128780074Y-104253371D01*
X128780074Y-104253371D02*
X128732455Y-104300990D01*
X128732455Y-104300990D02*
X128637217Y-104348609D01*
X128637217Y-104348609D02*
X128303884Y-104348609D01*
X129494360Y-103872419D02*
X129684836Y-103872419D01*
X129684836Y-103872419D02*
X129780074Y-103920038D01*
X129780074Y-103920038D02*
X129875312Y-104015276D01*
X129875312Y-104015276D02*
X129922931Y-104205752D01*
X129922931Y-104205752D02*
X129922931Y-104539085D01*
X129922931Y-104539085D02*
X129875312Y-104729561D01*
X129875312Y-104729561D02*
X129780074Y-104824800D01*
X129780074Y-104824800D02*
X129684836Y-104872419D01*
X129684836Y-104872419D02*
X129494360Y-104872419D01*
X129494360Y-104872419D02*
X129399122Y-104824800D01*
X129399122Y-104824800D02*
X129303884Y-104729561D01*
X129303884Y-104729561D02*
X129256265Y-104539085D01*
X129256265Y-104539085D02*
X129256265Y-104205752D01*
X129256265Y-104205752D02*
X129303884Y-104015276D01*
X129303884Y-104015276D02*
X129399122Y-103920038D01*
X129399122Y-103920038D02*
X129494360Y-103872419D01*
X130541979Y-103872419D02*
X130732455Y-103872419D01*
X130732455Y-103872419D02*
X130827693Y-103920038D01*
X130827693Y-103920038D02*
X130922931Y-104015276D01*
X130922931Y-104015276D02*
X130970550Y-104205752D01*
X130970550Y-104205752D02*
X130970550Y-104539085D01*
X130970550Y-104539085D02*
X130922931Y-104729561D01*
X130922931Y-104729561D02*
X130827693Y-104824800D01*
X130827693Y-104824800D02*
X130732455Y-104872419D01*
X130732455Y-104872419D02*
X130541979Y-104872419D01*
X130541979Y-104872419D02*
X130446741Y-104824800D01*
X130446741Y-104824800D02*
X130351503Y-104729561D01*
X130351503Y-104729561D02*
X130303884Y-104539085D01*
X130303884Y-104539085D02*
X130303884Y-104205752D01*
X130303884Y-104205752D02*
X130351503Y-104015276D01*
X130351503Y-104015276D02*
X130446741Y-103920038D01*
X130446741Y-103920038D02*
X130541979Y-103872419D01*
X131256265Y-103872419D02*
X131827693Y-103872419D01*
X131541979Y-104872419D02*
X131541979Y-103872419D01*
X132113408Y-104824800D02*
X132256265Y-104872419D01*
X132256265Y-104872419D02*
X132494360Y-104872419D01*
X132494360Y-104872419D02*
X132589598Y-104824800D01*
X132589598Y-104824800D02*
X132637217Y-104777180D01*
X132637217Y-104777180D02*
X132684836Y-104681942D01*
X132684836Y-104681942D02*
X132684836Y-104586704D01*
X132684836Y-104586704D02*
X132637217Y-104491466D01*
X132637217Y-104491466D02*
X132589598Y-104443847D01*
X132589598Y-104443847D02*
X132494360Y-104396228D01*
X132494360Y-104396228D02*
X132303884Y-104348609D01*
X132303884Y-104348609D02*
X132208646Y-104300990D01*
X132208646Y-104300990D02*
X132161027Y-104253371D01*
X132161027Y-104253371D02*
X132113408Y-104158133D01*
X132113408Y-104158133D02*
X132113408Y-104062895D01*
X132113408Y-104062895D02*
X132161027Y-103967657D01*
X132161027Y-103967657D02*
X132208646Y-103920038D01*
X132208646Y-103920038D02*
X132303884Y-103872419D01*
X132303884Y-103872419D02*
X132541979Y-103872419D01*
X132541979Y-103872419D02*
X132684836Y-103920038D01*
X133113408Y-104348609D02*
X133446741Y-104348609D01*
X133589598Y-104872419D02*
X133113408Y-104872419D01*
X133113408Y-104872419D02*
X133113408Y-103872419D01*
X133113408Y-103872419D02*
X133589598Y-103872419D01*
X134494360Y-104872419D02*
X134018170Y-104872419D01*
X134018170Y-104872419D02*
X134018170Y-103872419D01*
D12*
%TO.C,J1*%
X126300000Y-65700000D02*
X126300000Y-63700000D01*
X135700000Y-65700000D02*
X135700000Y-63700000D01*
%TO.C,R4*%
X135153641Y-85590000D02*
X134846359Y-85590000D01*
X135153641Y-86350000D02*
X134846359Y-86350000D01*
%TO.C,C14*%
X135587836Y-69640000D02*
X135372164Y-69640000D01*
X135587836Y-70360000D02*
X135372164Y-70360000D01*
%TO.C,C1*%
X135587836Y-73640000D02*
X135372164Y-73640000D01*
X135587836Y-74360000D02*
X135372164Y-74360000D01*
%TO.C,J4*%
X127130000Y-109560000D02*
X128460000Y-109560000D01*
X127130000Y-110890000D02*
X127130000Y-109560000D01*
X129730000Y-109560000D02*
X134870000Y-109560000D01*
X129730000Y-112220000D02*
X129730000Y-109560000D01*
X129730000Y-112220000D02*
X134870000Y-112220000D01*
X134870000Y-112220000D02*
X134870000Y-109560000D01*
%TO.C,R1*%
X132120000Y-70653641D02*
X132120000Y-70346359D01*
X132880000Y-70653641D02*
X132880000Y-70346359D01*
%TO.C,R7*%
X134120000Y-107153641D02*
X134120000Y-106846359D01*
X134880000Y-107153641D02*
X134880000Y-106846359D01*
%TO.C,C5*%
X135587836Y-76640000D02*
X135372164Y-76640000D01*
X135587836Y-77360000D02*
X135372164Y-77360000D01*
%TO.C,C13*%
X133140000Y-70392164D02*
X133140000Y-70607836D01*
X133860000Y-70392164D02*
X133860000Y-70607836D01*
%TO.C,U2*%
X126802500Y-69440000D02*
X128322500Y-69440000D01*
X126802500Y-69490000D02*
X126802500Y-69440000D01*
X126802500Y-71390000D02*
X126802500Y-70610000D01*
X126802500Y-72560000D02*
X126802500Y-72510000D01*
X128322500Y-69440000D02*
X128322500Y-70440000D01*
X128322500Y-71560000D02*
X128322500Y-72560000D01*
X128322500Y-72560000D02*
X126802500Y-72560000D01*
X126502500Y-70950000D02*
X126022500Y-70950000D01*
X126262500Y-70620000D01*
X126502500Y-70950000D01*
G36*
X126502500Y-70950000D02*
G01*
X126022500Y-70950000D01*
X126262500Y-70620000D01*
X126502500Y-70950000D01*
G37*
%TO.C,C4*%
X135587836Y-70640000D02*
X135372164Y-70640000D01*
X135587836Y-71360000D02*
X135372164Y-71360000D01*
%TO.C,U3*%
X129814432Y-81865000D02*
X132610000Y-81865000D01*
X132610000Y-84135000D02*
X129390000Y-84135000D01*
X129520000Y-81860000D02*
X129380000Y-81670000D01*
X129660000Y-81670000D01*
X129520000Y-81860000D01*
G36*
X129520000Y-81860000D02*
G01*
X129380000Y-81670000D01*
X129660000Y-81670000D01*
X129520000Y-81860000D01*
G37*
%TO.C,R6*%
X131153641Y-80620000D02*
X130846359Y-80620000D01*
X131153641Y-81380000D02*
X130846359Y-81380000D01*
%TO.C,R3*%
X135153641Y-84590000D02*
X134846359Y-84590000D01*
X135153641Y-85350000D02*
X134846359Y-85350000D01*
%TO.C,R5*%
X129846359Y-96120000D02*
X130153641Y-96120000D01*
X129846359Y-96880000D02*
X130153641Y-96880000D01*
%TO.C,C2*%
X135587836Y-72670000D02*
X135372164Y-72670000D01*
X135587836Y-73390000D02*
X135372164Y-73390000D01*
%TO.C,C9*%
X135567836Y-78640000D02*
X135352164Y-78640000D01*
X135567836Y-79360000D02*
X135352164Y-79360000D01*
%TO.C,C6*%
X135587836Y-75640000D02*
X135372164Y-75640000D01*
X135587836Y-76360000D02*
X135372164Y-76360000D01*
%TO.C,C12*%
X128107836Y-78640000D02*
X127892164Y-78640000D01*
X128107836Y-79360000D02*
X127892164Y-79360000D01*
%TO.C,U1*%
X127390000Y-87390000D02*
X128040000Y-87390000D01*
X127390000Y-88040000D02*
X127390000Y-87390000D01*
X127390000Y-94610000D02*
X127390000Y-93960000D01*
X128040000Y-94610000D02*
X127390000Y-94610000D01*
X133960000Y-87390000D02*
X134610000Y-87390000D01*
X134610000Y-87390000D02*
X134610000Y-88040000D01*
X134610000Y-93960000D02*
X134610000Y-94610000D01*
X134610000Y-94610000D02*
X133960000Y-94610000D01*
X126860000Y-88400000D02*
X126530000Y-88640000D01*
X126530000Y-88160000D01*
X126860000Y-88400000D01*
G36*
X126860000Y-88400000D02*
G01*
X126530000Y-88640000D01*
X126530000Y-88160000D01*
X126860000Y-88400000D01*
G37*
%TO.C,C7*%
X135587836Y-74640000D02*
X135372164Y-74640000D01*
X135587836Y-75360000D02*
X135372164Y-75360000D01*
%TO.C,R2*%
X129120000Y-72846359D02*
X129120000Y-73153641D01*
X129880000Y-72846359D02*
X129880000Y-73153641D01*
%TO.C,C8*%
X135587836Y-77640000D02*
X135372164Y-77640000D01*
X135587836Y-78360000D02*
X135372164Y-78360000D01*
%TO.C,C16*%
X127640000Y-99107836D02*
X127640000Y-98892164D01*
X128360000Y-99107836D02*
X128360000Y-98892164D01*
%TO.C,Y1*%
X128940000Y-97290000D02*
X128940000Y-100710000D01*
X128940000Y-100710000D02*
X133060000Y-100710000D01*
%TO.C,SW1*%
X128930000Y-105430000D02*
X133070000Y-105430000D01*
X128930000Y-105730000D02*
X128930000Y-105430000D01*
X128930000Y-108570000D02*
X128930000Y-108270000D01*
X133070000Y-105430000D02*
X133070000Y-105730000D01*
X133070000Y-108270000D02*
X133070000Y-108570000D01*
X133070000Y-108570000D02*
X128930000Y-108570000D01*
%TO.C,C3*%
X135587836Y-71640000D02*
X135372164Y-71640000D01*
X135587836Y-72360000D02*
X135372164Y-72360000D01*
%TO.C,C10*%
X128107836Y-80640000D02*
X127892164Y-80640000D01*
X128107836Y-81360000D02*
X127892164Y-81360000D01*
%TO.C,C11*%
X128107836Y-79640000D02*
X127892164Y-79640000D01*
X128107836Y-80360000D02*
X127892164Y-80360000D01*
%TO.C,C15*%
X133640000Y-99087836D02*
X133640000Y-98872164D01*
X134360000Y-99087836D02*
X134360000Y-98872164D01*
%TD*%
M02*
