%TF.GenerationSoftware,KiCad,Pcbnew,9.0.6*%
%TF.CreationDate,2025-11-29T15:25:02+01:00*%
%TF.ProjectId,rp2040-dev-board,72703230-3430-42d6-9465-762d626f6172,rev?*%
%TF.SameCoordinates,Original*%
%TF.FileFunction,Copper,L1,Top*%
%TF.FilePolarity,Positive*%
%FSLAX46Y46*%
G04 Gerber Fmt 4.6, Leading zero omitted, Abs format (unit mm)*
G04 Created by KiCad (PCBNEW 9.0.6) date 2025-11-29 15:25:02*
%MOMM*%
%LPD*%
G01*
G04 APERTURE LIST*
G04 Aperture macros list*
%AMRoundRect*
0 Rectangle with rounded corners*
0 $1 Rounding radius*
0 $2 $3 $4 $5 $6 $7 $8 $9 X,Y pos of 4 corners*
0 Add a 4 corners polygon primitive as box body*
4,1,4,$2,$3,$4,$5,$6,$7,$8,$9,$2,$3,0*
0 Add four circle primitives for the rounded corners*
1,1,$1+$1,$2,$3*
1,1,$1+$1,$4,$5*
1,1,$1+$1,$6,$7*
1,1,$1+$1,$8,$9*
0 Add four rect primitives between the rounded corners*
20,1,$1+$1,$2,$3,$4,$5,0*
20,1,$1+$1,$4,$5,$6,$7,0*
20,1,$1+$1,$6,$7,$8,$9,0*
20,1,$1+$1,$8,$9,$2,$3,0*%
G04 Aperture macros list end*
%TA.AperFunction,SMDPad,CuDef*%
%ADD10R,0.600000X1.450000*%
%TD*%
%TA.AperFunction,SMDPad,CuDef*%
%ADD11R,0.300000X1.450000*%
%TD*%
%TA.AperFunction,HeatsinkPad*%
%ADD12O,1.000000X2.100000*%
%TD*%
%TA.AperFunction,HeatsinkPad*%
%ADD13O,1.000000X1.600000*%
%TD*%
%TA.AperFunction,SMDPad,CuDef*%
%ADD14RoundRect,0.135000X0.135000X0.185000X-0.135000X0.185000X-0.135000X-0.185000X0.135000X-0.185000X0*%
%TD*%
%TA.AperFunction,SMDPad,CuDef*%
%ADD15RoundRect,0.140000X0.140000X0.170000X-0.140000X0.170000X-0.140000X-0.170000X0.140000X-0.170000X0*%
%TD*%
%TA.AperFunction,ComponentPad*%
%ADD16R,1.700000X1.700000*%
%TD*%
%TA.AperFunction,ComponentPad*%
%ADD17C,1.700000*%
%TD*%
%TA.AperFunction,SMDPad,CuDef*%
%ADD18RoundRect,0.135000X0.185000X-0.135000X0.185000X0.135000X-0.185000X0.135000X-0.185000X-0.135000X0*%
%TD*%
%TA.AperFunction,SMDPad,CuDef*%
%ADD19RoundRect,0.140000X-0.170000X0.140000X-0.170000X-0.140000X0.170000X-0.140000X0.170000X0.140000X0*%
%TD*%
%TA.AperFunction,SMDPad,CuDef*%
%ADD20RoundRect,0.150000X-0.587500X-0.150000X0.587500X-0.150000X0.587500X0.150000X-0.587500X0.150000X0*%
%TD*%
%TA.AperFunction,SMDPad,CuDef*%
%ADD21RoundRect,0.062500X-0.387500X-0.062500X0.387500X-0.062500X0.387500X0.062500X-0.387500X0.062500X0*%
%TD*%
%TA.AperFunction,HeatsinkPad*%
%ADD22R,0.200000X1.600000*%
%TD*%
%TA.AperFunction,SMDPad,CuDef*%
%ADD23RoundRect,0.135000X-0.135000X-0.185000X0.135000X-0.185000X0.135000X0.185000X-0.135000X0.185000X0*%
%TD*%
%TA.AperFunction,SMDPad,CuDef*%
%ADD24RoundRect,0.050000X-0.387500X-0.050000X0.387500X-0.050000X0.387500X0.050000X-0.387500X0.050000X0*%
%TD*%
%TA.AperFunction,SMDPad,CuDef*%
%ADD25RoundRect,0.050000X-0.050000X-0.387500X0.050000X-0.387500X0.050000X0.387500X-0.050000X0.387500X0*%
%TD*%
%TA.AperFunction,HeatsinkPad*%
%ADD26R,3.200000X3.200000*%
%TD*%
%TA.AperFunction,SMDPad,CuDef*%
%ADD27RoundRect,0.135000X-0.185000X0.135000X-0.185000X-0.135000X0.185000X-0.135000X0.185000X0.135000X0*%
%TD*%
%TA.AperFunction,SMDPad,CuDef*%
%ADD28RoundRect,0.140000X0.170000X-0.140000X0.170000X0.140000X-0.170000X0.140000X-0.170000X-0.140000X0*%
%TD*%
%TA.AperFunction,SMDPad,CuDef*%
%ADD29RoundRect,0.250000X-0.450000X-0.350000X0.450000X-0.350000X0.450000X0.350000X-0.450000X0.350000X0*%
%TD*%
%TA.AperFunction,SMDPad,CuDef*%
%ADD30RoundRect,0.200000X-0.200000X-0.800000X0.200000X-0.800000X0.200000X0.800000X-0.200000X0.800000X0*%
%TD*%
%TA.AperFunction,ViaPad*%
%ADD31C,0.600000*%
%TD*%
%TA.AperFunction,Conductor*%
%ADD32C,0.200000*%
%TD*%
G04 APERTURE END LIST*
D10*
%TO.P,J1,A1,GND*%
%TO.N,GND*%
X134250000Y-67845000D03*
%TO.P,J1,A4,VBUS*%
%TO.N,VBUS*%
X133450000Y-67845000D03*
D11*
%TO.P,J1,A5,CC1*%
%TO.N,Net-(J1-CC1)*%
X132250000Y-67845000D03*
%TO.P,J1,A6,D+*%
%TO.N,USB_D+*%
X131250000Y-67845000D03*
%TO.P,J1,A7,D-*%
%TO.N,USB_D-*%
X130750000Y-67845000D03*
%TO.P,J1,A8*%
%TO.N,N/C*%
X129750000Y-67845000D03*
D10*
%TO.P,J1,A9,VBUS*%
%TO.N,VBUS*%
X128550000Y-67845000D03*
%TO.P,J1,A12,GND*%
%TO.N,GND*%
X127750000Y-67845000D03*
%TO.P,J1,B1,GND*%
X127750000Y-67845000D03*
%TO.P,J1,B4,VBUS*%
%TO.N,VBUS*%
X128550000Y-67845000D03*
D11*
%TO.P,J1,B5,CC2*%
%TO.N,Net-(J1-CC2)*%
X129250000Y-67845000D03*
%TO.P,J1,B6,D+*%
%TO.N,USB_D+*%
X130250000Y-67845000D03*
%TO.P,J1,B7,D-*%
%TO.N,USB_D-*%
X131750000Y-67845000D03*
%TO.P,J1,B8*%
%TO.N,N/C*%
X132750000Y-67845000D03*
D10*
%TO.P,J1,B9,VBUS*%
%TO.N,VBUS*%
X133450000Y-67845000D03*
%TO.P,J1,B12,GND*%
%TO.N,GND*%
X134250000Y-67845000D03*
D12*
%TO.P,J1,S1,SHIELD*%
X135320000Y-66930000D03*
D13*
X135320000Y-62750000D03*
D12*
X126680000Y-66930000D03*
D13*
X126680000Y-62750000D03*
%TD*%
D14*
%TO.P,R4,1*%
%TO.N,USB_D-*%
X135510000Y-85970000D03*
%TO.P,R4,2*%
%TO.N,Net-(U1-USB_DM)*%
X134490000Y-85970000D03*
%TD*%
D15*
%TO.P,C14,1*%
%TO.N,+3V3*%
X135960000Y-70000000D03*
%TO.P,C14,2*%
%TO.N,GND*%
X135000000Y-70000000D03*
%TD*%
%TO.P,C1,1*%
%TO.N,+3V3*%
X135960000Y-74000000D03*
%TO.P,C1,2*%
%TO.N,GND*%
X135000000Y-74000000D03*
%TD*%
D16*
%TO.P,J4,1,Pin_1*%
%TO.N,SWD*%
X128460000Y-110890000D03*
D17*
%TO.P,J4,2,Pin_2*%
%TO.N,GND*%
X131000000Y-110890000D03*
%TO.P,J4,3,Pin_3*%
%TO.N,SWCLK*%
X133540000Y-110890000D03*
%TD*%
D18*
%TO.P,R1,1*%
%TO.N,GND*%
X132500000Y-71010000D03*
%TO.P,R1,2*%
%TO.N,Net-(J1-CC1)*%
X132500000Y-69990000D03*
%TD*%
%TO.P,R7,1*%
%TO.N,Net-(R7-Pad1)*%
X134500000Y-107510000D03*
%TO.P,R7,2*%
%TO.N,QSPI_SS*%
X134500000Y-106490000D03*
%TD*%
D15*
%TO.P,C5,1*%
%TO.N,+3V3*%
X135960000Y-77000000D03*
%TO.P,C5,2*%
%TO.N,GND*%
X135000000Y-77000000D03*
%TD*%
D19*
%TO.P,C13,1*%
%TO.N,VBUS*%
X133500000Y-70020000D03*
%TO.P,C13,2*%
%TO.N,GND*%
X133500000Y-70980000D03*
%TD*%
D20*
%TO.P,U2,1,GND*%
%TO.N,GND*%
X126625000Y-70050000D03*
%TO.P,U2,2,VO*%
%TO.N,+3V3*%
X126625000Y-71950000D03*
%TO.P,U2,3,VI*%
%TO.N,VBUS*%
X128500000Y-71000000D03*
%TD*%
D15*
%TO.P,C4,1*%
%TO.N,+3V3*%
X135960000Y-71000000D03*
%TO.P,C4,2*%
%TO.N,GND*%
X135000000Y-71000000D03*
%TD*%
D21*
%TO.P,U3,1,~{CS}*%
%TO.N,QSPI_SS*%
X129575000Y-82250000D03*
%TO.P,U3,2,DO/IO_{1}*%
%TO.N,QSPI_SD1*%
X129575000Y-82750000D03*
%TO.P,U3,3,~{WP}/IO_{2}*%
%TO.N,QSPI_SD2*%
X129575000Y-83250000D03*
%TO.P,U3,4,GND*%
%TO.N,GND*%
X129575000Y-83750000D03*
%TO.P,U3,5,DI/IO_{0}*%
%TO.N,QSPI_SD0*%
X132425000Y-83750000D03*
%TO.P,U3,6,CLK*%
%TO.N,QSPI_SCLK*%
X132425000Y-83250000D03*
%TO.P,U3,7,~{HOLD}/~{RESET}/IO_{3}*%
%TO.N,QSPI_SD3*%
X132425000Y-82750000D03*
%TO.P,U3,8,VCC*%
%TO.N,+3V3*%
X132425000Y-82250000D03*
D22*
%TO.P,U3,9*%
%TO.N,N/C*%
X131000000Y-83000000D03*
%TD*%
D14*
%TO.P,R6,1*%
%TO.N,+3V3*%
X131510000Y-81000000D03*
%TO.P,R6,2*%
%TO.N,QSPI_SS*%
X130490000Y-81000000D03*
%TD*%
%TO.P,R3,1*%
%TO.N,USB_D+*%
X135510000Y-84970000D03*
%TO.P,R3,2*%
%TO.N,Net-(U1-USB_DP)*%
X134490000Y-84970000D03*
%TD*%
D23*
%TO.P,R5,1*%
%TO.N,Net-(C16-Pad2)*%
X129490000Y-96500000D03*
%TO.P,R5,2*%
%TO.N,XOUT*%
X130510000Y-96500000D03*
%TD*%
D15*
%TO.P,C2,1*%
%TO.N,+3V3*%
X135960000Y-73030000D03*
%TO.P,C2,2*%
%TO.N,GND*%
X135000000Y-73030000D03*
%TD*%
%TO.P,C9,1*%
%TO.N,+3V3*%
X135940000Y-79000000D03*
%TO.P,C9,2*%
%TO.N,GND*%
X134980000Y-79000000D03*
%TD*%
D16*
%TO.P,J2,1,Pin_1*%
%TO.N,GPIO0*%
X122120000Y-62870000D03*
D17*
%TO.P,J2,2,Pin_2*%
%TO.N,GPIO1*%
X122120000Y-65410000D03*
%TO.P,J2,3,Pin_3*%
%TO.N,GND*%
X122120000Y-67950000D03*
%TO.P,J2,4,Pin_4*%
%TO.N,GPIO2*%
X122120000Y-70490000D03*
%TO.P,J2,5,Pin_5*%
%TO.N,GPIO3*%
X122120000Y-73030000D03*
%TO.P,J2,6,Pin_6*%
%TO.N,GPIO4*%
X122120000Y-75570000D03*
%TO.P,J2,7,Pin_7*%
%TO.N,GPIO5*%
X122120000Y-78110000D03*
%TO.P,J2,8,Pin_8*%
%TO.N,GND*%
X122120000Y-80650000D03*
%TO.P,J2,9,Pin_9*%
%TO.N,GPIO6*%
X122120000Y-83190000D03*
%TO.P,J2,10,Pin_10*%
%TO.N,GPIO7*%
X122120000Y-85730000D03*
%TO.P,J2,11,Pin_11*%
%TO.N,GPIO8*%
X122120000Y-88270000D03*
%TO.P,J2,12,Pin_12*%
%TO.N,GPIO9*%
X122120000Y-90810000D03*
%TO.P,J2,13,Pin_13*%
%TO.N,GND*%
X122120000Y-93350000D03*
%TO.P,J2,14,Pin_14*%
%TO.N,GPIO10*%
X122120000Y-95890000D03*
%TO.P,J2,15,Pin_15*%
%TO.N,GPIO11*%
X122120000Y-98430000D03*
%TO.P,J2,16,Pin_16*%
%TO.N,GPIO12*%
X122120000Y-100970000D03*
%TO.P,J2,17,Pin_17*%
%TO.N,GPIO13*%
X122120000Y-103510000D03*
%TO.P,J2,18,Pin_18*%
%TO.N,GND*%
X122120000Y-106050000D03*
%TO.P,J2,19,Pin_19*%
%TO.N,GPIO14*%
X122120000Y-108590000D03*
%TO.P,J2,20,Pin_20*%
%TO.N,GPIO15*%
X122120000Y-111130000D03*
%TD*%
D15*
%TO.P,C6,1*%
%TO.N,+3V3*%
X135960000Y-76000000D03*
%TO.P,C6,2*%
%TO.N,GND*%
X135000000Y-76000000D03*
%TD*%
%TO.P,C12,1*%
%TO.N,+1V1*%
X128480000Y-79000000D03*
%TO.P,C12,2*%
%TO.N,GND*%
X127520000Y-79000000D03*
%TD*%
D24*
%TO.P,U1,1,IOVDD*%
%TO.N,+3V3*%
X127562500Y-88400000D03*
%TO.P,U1,2,GPIO0*%
%TO.N,GPIO0*%
X127562500Y-88800000D03*
%TO.P,U1,3,GPIO1*%
%TO.N,GPIO1*%
X127562500Y-89200000D03*
%TO.P,U1,4,GPIO2*%
%TO.N,GPIO2*%
X127562500Y-89600000D03*
%TO.P,U1,5,GPIO3*%
%TO.N,GPIO3*%
X127562500Y-90000000D03*
%TO.P,U1,6,GPIO4*%
%TO.N,GPIO4*%
X127562500Y-90400000D03*
%TO.P,U1,7,GPIO5*%
%TO.N,GPIO5*%
X127562500Y-90800000D03*
%TO.P,U1,8,GPIO6*%
%TO.N,GPIO6*%
X127562500Y-91200000D03*
%TO.P,U1,9,GPIO7*%
%TO.N,GPIO7*%
X127562500Y-91600000D03*
%TO.P,U1,10,IOVDD*%
%TO.N,+3V3*%
X127562500Y-92000000D03*
%TO.P,U1,11,GPIO8*%
%TO.N,GPIO8*%
X127562500Y-92400000D03*
%TO.P,U1,12,GPIO9*%
%TO.N,GPIO9*%
X127562500Y-92800000D03*
%TO.P,U1,13,GPIO10*%
%TO.N,GPIO10*%
X127562500Y-93200000D03*
%TO.P,U1,14,GPIO11*%
%TO.N,GPIO11*%
X127562500Y-93600000D03*
D25*
%TO.P,U1,15,GPIO12*%
%TO.N,GPIO12*%
X128400000Y-94437500D03*
%TO.P,U1,16,GPIO13*%
%TO.N,GPIO13*%
X128800000Y-94437500D03*
%TO.P,U1,17,GPIO14*%
%TO.N,GPIO14*%
X129200000Y-94437500D03*
%TO.P,U1,18,GPIO15*%
%TO.N,GPIO15*%
X129600000Y-94437500D03*
%TO.P,U1,19,TESTEN*%
%TO.N,GND*%
X130000000Y-94437500D03*
%TO.P,U1,20,XIN*%
%TO.N,XIN*%
X130400000Y-94437500D03*
%TO.P,U1,21,XOUT*%
%TO.N,XOUT*%
X130800000Y-94437500D03*
%TO.P,U1,22,IOVDD*%
%TO.N,+3V3*%
X131200000Y-94437500D03*
%TO.P,U1,23,DVDD*%
%TO.N,+1V1*%
X131600000Y-94437500D03*
%TO.P,U1,24,SWCLK*%
%TO.N,SWCLK*%
X132000000Y-94437500D03*
%TO.P,U1,25,SWD*%
%TO.N,SWD*%
X132400000Y-94437500D03*
%TO.P,U1,26,RUN*%
%TO.N,RUN*%
X132800000Y-94437500D03*
%TO.P,U1,27,GPIO16*%
%TO.N,GPIO16*%
X133200000Y-94437500D03*
%TO.P,U1,28,GPIO17*%
%TO.N,GPIO17*%
X133600000Y-94437500D03*
D24*
%TO.P,U1,29,GPIO18*%
%TO.N,GPIO18*%
X134437500Y-93600000D03*
%TO.P,U1,30,GPIO19*%
%TO.N,GPIO19*%
X134437500Y-93200000D03*
%TO.P,U1,31,GPIO20*%
%TO.N,GPIO20*%
X134437500Y-92800000D03*
%TO.P,U1,32,GPIO21*%
%TO.N,GPIO21*%
X134437500Y-92400000D03*
%TO.P,U1,33,IOVDD*%
%TO.N,+3V3*%
X134437500Y-92000000D03*
%TO.P,U1,34,GPIO22*%
%TO.N,GPIO22*%
X134437500Y-91600000D03*
%TO.P,U1,35,GPIO23*%
%TO.N,GPIO23*%
X134437500Y-91200000D03*
%TO.P,U1,36,GPIO24*%
%TO.N,GPIO24*%
X134437500Y-90800000D03*
%TO.P,U1,37,GPIO25*%
%TO.N,unconnected-(U1-GPIO25-Pad37)*%
X134437500Y-90400000D03*
%TO.P,U1,38,GPIO26_ADC0*%
%TO.N,GPIO26_ADC0*%
X134437500Y-90000000D03*
%TO.P,U1,39,GPIO27_ADC1*%
%TO.N,GPIO27_ADC1*%
X134437500Y-89600000D03*
%TO.P,U1,40,GPIO28_ADC2*%
%TO.N,GPIO28_ADC2*%
X134437500Y-89200000D03*
%TO.P,U1,41,GPIO29_ADC3*%
%TO.N,GPIO29_ADC3*%
X134437500Y-88800000D03*
%TO.P,U1,42,IOVDD*%
%TO.N,+3V3*%
X134437500Y-88400000D03*
D25*
%TO.P,U1,43,ADC_AVDD*%
X133600000Y-87562500D03*
%TO.P,U1,44,VREG_IN*%
X133200000Y-87562500D03*
%TO.P,U1,45,VREG_VOUT*%
%TO.N,+1V1*%
X132800000Y-87562500D03*
%TO.P,U1,46,USB_DM*%
%TO.N,Net-(U1-USB_DM)*%
X132400000Y-87562500D03*
%TO.P,U1,47,USB_DP*%
%TO.N,Net-(U1-USB_DP)*%
X132000000Y-87562500D03*
%TO.P,U1,48,USB_VDD*%
%TO.N,+3V3*%
X131600000Y-87562500D03*
%TO.P,U1,49,IOVDD*%
X131200000Y-87562500D03*
%TO.P,U1,50,DVDD*%
%TO.N,+1V1*%
X130800000Y-87562500D03*
%TO.P,U1,51,QSPI_SD3*%
%TO.N,QSPI_SD3*%
X130400000Y-87562500D03*
%TO.P,U1,52,QSPI_SCLK*%
%TO.N,QSPI_SCLK*%
X130000000Y-87562500D03*
%TO.P,U1,53,QSPI_SD0*%
%TO.N,QSPI_SD0*%
X129600000Y-87562500D03*
%TO.P,U1,54,QSPI_SD2*%
%TO.N,QSPI_SD2*%
X129200000Y-87562500D03*
%TO.P,U1,55,QSPI_SD1*%
%TO.N,QSPI_SD1*%
X128800000Y-87562500D03*
%TO.P,U1,56,QSPI_SS*%
%TO.N,QSPI_SS*%
X128400000Y-87562500D03*
D26*
%TO.P,U1,57,GND*%
%TO.N,GND*%
X131000000Y-91000000D03*
%TD*%
D15*
%TO.P,C7,1*%
%TO.N,+3V3*%
X135960000Y-75000000D03*
%TO.P,C7,2*%
%TO.N,GND*%
X135000000Y-75000000D03*
%TD*%
D27*
%TO.P,R2,1*%
%TO.N,Net-(J1-CC2)*%
X129500000Y-72490000D03*
%TO.P,R2,2*%
%TO.N,GND*%
X129500000Y-73510000D03*
%TD*%
D15*
%TO.P,C8,1*%
%TO.N,+3V3*%
X135960000Y-78000000D03*
%TO.P,C8,2*%
%TO.N,GND*%
X135000000Y-78000000D03*
%TD*%
D28*
%TO.P,C16,1*%
%TO.N,GND*%
X128000000Y-99480000D03*
%TO.P,C16,2*%
%TO.N,Net-(C16-Pad2)*%
X128000000Y-98520000D03*
%TD*%
D29*
%TO.P,Y1,1,1*%
%TO.N,Net-(C16-Pad2)*%
X129900000Y-99850000D03*
%TO.P,Y1,2,2*%
%TO.N,GND*%
X132100000Y-99850000D03*
%TO.P,Y1,3,3*%
%TO.N,XIN*%
X132100000Y-98150000D03*
%TO.P,Y1,4,4*%
%TO.N,GND*%
X129900000Y-98150000D03*
%TD*%
D30*
%TO.P,SW1,1,1*%
%TO.N,GND*%
X128900000Y-107000000D03*
%TO.P,SW1,2,2*%
%TO.N,Net-(R7-Pad1)*%
X133100000Y-107000000D03*
%TD*%
D15*
%TO.P,C3,1*%
%TO.N,+3V3*%
X135960000Y-72000000D03*
%TO.P,C3,2*%
%TO.N,GND*%
X135000000Y-72000000D03*
%TD*%
%TO.P,C10,1*%
%TO.N,+1V1*%
X128480000Y-81000000D03*
%TO.P,C10,2*%
%TO.N,GND*%
X127520000Y-81000000D03*
%TD*%
%TO.P,C11,1*%
%TO.N,+1V1*%
X128480000Y-80000000D03*
%TO.P,C11,2*%
%TO.N,GND*%
X127520000Y-80000000D03*
%TD*%
D16*
%TO.P,J3,1,Pin_1*%
%TO.N,VBUS*%
X139890000Y-62870000D03*
D17*
%TO.P,J3,2,Pin_2*%
%TO.N,GPIO29_ADC3*%
X139890000Y-65410000D03*
%TO.P,J3,3,Pin_3*%
%TO.N,GND*%
X139890000Y-67950000D03*
%TO.P,J3,4,Pin_4*%
%TO.N,GPIO28_ADC2*%
X139890000Y-70490000D03*
%TO.P,J3,5,Pin_5*%
%TO.N,+3V3*%
X139890000Y-73030000D03*
%TO.P,J3,6,Pin_6*%
%TO.N,GPIO27_ADC1*%
X139890000Y-75570000D03*
%TO.P,J3,7,Pin_7*%
%TO.N,GPIO26_ADC0*%
X139890000Y-78110000D03*
%TO.P,J3,8,Pin_8*%
%TO.N,GND*%
X139890000Y-80650000D03*
%TO.P,J3,9,Pin_9*%
%TO.N,GPIO24*%
X139890000Y-83190000D03*
%TO.P,J3,10,Pin_10*%
%TO.N,GPIO23*%
X139890000Y-85730000D03*
%TO.P,J3,11,Pin_11*%
%TO.N,RUN*%
X139890000Y-88270000D03*
%TO.P,J3,12,Pin_12*%
%TO.N,GPIO22*%
X139890000Y-90810000D03*
%TO.P,J3,13,Pin_13*%
%TO.N,GND*%
X139890000Y-93350000D03*
%TO.P,J3,14,Pin_14*%
%TO.N,GPIO21*%
X139890000Y-95890000D03*
%TO.P,J3,15,Pin_15*%
%TO.N,GPIO20*%
X139890000Y-98430000D03*
%TO.P,J3,16,Pin_16*%
%TO.N,GPIO19*%
X139890000Y-100970000D03*
%TO.P,J3,17,Pin_17*%
%TO.N,GPIO18*%
X139890000Y-103510000D03*
%TO.P,J3,18,Pin_18*%
%TO.N,GND*%
X139890000Y-106050000D03*
%TO.P,J3,19,Pin_19*%
%TO.N,GPIO17*%
X139890000Y-108590000D03*
%TO.P,J3,20,Pin_20*%
%TO.N,GPIO16*%
X139890000Y-111130000D03*
%TD*%
D28*
%TO.P,C15,1*%
%TO.N,GND*%
X134000000Y-99460000D03*
%TO.P,C15,2*%
%TO.N,XIN*%
X134000000Y-98500000D03*
%TD*%
D31*
%TO.N,+3V3*%
X135000000Y-83500000D03*
X133600000Y-92000000D03*
X128899998Y-92000000D03*
X132000000Y-93500000D03*
X130000000Y-88500000D03*
X135500000Y-87000000D03*
X131000000Y-86000000D03*
X136000000Y-80500000D03*
X132906484Y-89004944D03*
%TO.N,GND*%
X123500000Y-84500000D03*
X127000000Y-108000000D03*
X137500000Y-62500000D03*
X128000000Y-77500000D03*
X128500000Y-73500000D03*
X127000000Y-104000000D03*
X121605057Y-81898982D03*
X129689899Y-93453590D03*
X129723528Y-81625000D03*
X121500000Y-79500000D03*
X128500000Y-102000000D03*
%TO.N,+1V1*%
X131400000Y-95706272D03*
X130910000Y-80000000D03*
X131400000Y-88500000D03*
%TO.N,XIN*%
X131500000Y-96500000D03*
X130800000Y-93450402D03*
%TO.N,GPIO14*%
X125120028Y-100020028D03*
X128500000Y-93500000D03*
%TO.N,GPIO2*%
X125400000Y-86500000D03*
X128500000Y-89500000D03*
%TO.N,GPIO15*%
X134000000Y-96500000D03*
X135721000Y-103000000D03*
X134000000Y-103000000D03*
X130000000Y-95500000D03*
%TO.N,GPIO6*%
X128553273Y-90298227D03*
%TO.N,RUN*%
X133501000Y-90500000D03*
%TO.N,GPIO28_ADC2*%
X133100002Y-89807756D03*
%TO.N,GPIO29_ADC3*%
X136755043Y-86000000D03*
%TO.N,GPIO26_ADC0*%
X138356043Y-83875430D03*
X138356043Y-76000000D03*
%TO.N,GPIO27_ADC1*%
X136000000Y-89400000D03*
%TO.N,SWCLK*%
X134500000Y-104000000D03*
X135721000Y-104000000D03*
%TO.N,QSPI_SS*%
X127500000Y-87000000D03*
X134500000Y-105000000D03*
%TD*%
D32*
%TO.N,+3V3*%
X133978000Y-83203002D02*
X133978000Y-83500000D01*
X126625000Y-71950000D02*
X126625000Y-73821966D01*
X131200000Y-94437500D02*
X131200000Y-93902226D01*
X134437500Y-92000000D02*
X134500000Y-92000000D01*
X134437500Y-92000000D02*
X133600000Y-92000000D01*
X127562500Y-92000000D02*
X128899998Y-92000000D01*
X131602226Y-93500000D02*
X131200000Y-93902226D01*
X130500000Y-77500000D02*
X131510000Y-78510000D01*
X133600000Y-87562500D02*
X133200000Y-87562500D01*
X131600000Y-86085200D02*
X131600000Y-87562500D01*
X133978000Y-83500000D02*
X133978000Y-84296998D01*
X139890000Y-73030000D02*
X135960000Y-73030000D01*
X133600000Y-87562500D02*
X134018750Y-87981250D01*
X131510000Y-81335000D02*
X132425000Y-82250000D01*
X131200000Y-87562500D02*
X131200000Y-86200000D01*
X130303034Y-77500000D02*
X130500000Y-77500000D01*
X135940000Y-79000000D02*
X135940000Y-80440000D01*
X134018750Y-87981250D02*
X134518750Y-87981250D01*
X132000000Y-85685200D02*
X131600000Y-86085200D01*
X132425000Y-82250000D02*
X133024998Y-82250000D01*
X132000000Y-93500000D02*
X131602226Y-93500000D01*
X131510000Y-81000000D02*
X131510000Y-81335000D01*
X133200000Y-88800000D02*
X133200000Y-87562500D01*
X135960000Y-78980000D02*
X135940000Y-79000000D01*
X129900000Y-88400000D02*
X127562500Y-88400000D01*
X134518750Y-87981250D02*
X135500000Y-87000000D01*
X132589798Y-85685200D02*
X132000000Y-85685200D01*
X131200000Y-86200000D02*
X131000000Y-86000000D01*
X135940000Y-80440000D02*
X136000000Y-80500000D01*
X130000000Y-88500000D02*
X129900000Y-88400000D01*
X126625000Y-73821966D02*
X130303034Y-77500000D01*
X132906484Y-89004944D02*
X132995056Y-89004944D01*
X135000000Y-83500000D02*
X133978000Y-83500000D01*
X132995056Y-89004944D02*
X133200000Y-88800000D01*
X131510000Y-78510000D02*
X131510000Y-81000000D01*
X133978000Y-84296998D02*
X132589798Y-85685200D01*
X135960000Y-70000000D02*
X135960000Y-78980000D01*
X134018750Y-87981250D02*
X134437500Y-88400000D01*
X133024998Y-82250000D02*
X133978000Y-83203002D01*
X131600000Y-87562500D02*
X131200000Y-87562500D01*
%TO.N,GND*%
X121000000Y-80000000D02*
X121500000Y-79500000D01*
X129900000Y-98150000D02*
X130400000Y-98150000D01*
X121000000Y-81293925D02*
X121000000Y-80000000D01*
X130326000Y-83464798D02*
X130326000Y-82035202D01*
X130040798Y-83750000D02*
X130326000Y-83464798D01*
X121605057Y-81898982D02*
X121000000Y-81293925D01*
X134905000Y-68500000D02*
X134250000Y-67845000D01*
X130000000Y-93751470D02*
X130000000Y-94437500D01*
X129915798Y-81625000D02*
X129723528Y-81625000D01*
X129689899Y-93453590D02*
X129702120Y-93453590D01*
X135000000Y-68500000D02*
X134905000Y-68500000D01*
X129702120Y-93453590D02*
X130000000Y-93751470D01*
X132490000Y-99460000D02*
X132100000Y-99850000D01*
X130400000Y-98150000D02*
X132100000Y-99850000D01*
X135320000Y-66930000D02*
X135165000Y-66930000D01*
X129575000Y-83750000D02*
X130040798Y-83750000D01*
X130326000Y-82035202D02*
X129915798Y-81625000D01*
%TO.N,+1V1*%
X128480000Y-81000000D02*
X129480000Y-80000000D01*
X131400000Y-88500000D02*
X131000000Y-88500000D01*
X132800000Y-88200000D02*
X132800000Y-87562500D01*
X129480000Y-80000000D02*
X130910000Y-80000000D01*
X131000000Y-88500000D02*
X130800000Y-88300000D01*
X131400000Y-88500000D02*
X132500000Y-88500000D01*
X132500000Y-88500000D02*
X132800000Y-88200000D01*
X131600000Y-94437500D02*
X131600000Y-95506272D01*
X128480000Y-79000000D02*
X128480000Y-80000000D01*
X130800000Y-88300000D02*
X130800000Y-87562500D01*
X128480000Y-80000000D02*
X128480000Y-81000000D01*
X131600000Y-95506272D02*
X131400000Y-95706272D01*
%TO.N,VBUS*%
X138909000Y-63851000D02*
X135482992Y-63851000D01*
X135333992Y-64000000D02*
X133000000Y-64000000D01*
X131276000Y-65724000D02*
X133000000Y-64000000D01*
X128550000Y-66920000D02*
X129746000Y-65724000D01*
X133319000Y-66819000D02*
X132000000Y-66819000D01*
X133450000Y-69970000D02*
X133500000Y-70020000D01*
X130905000Y-65724000D02*
X131276000Y-65724000D01*
X130276000Y-65724000D02*
X130905000Y-65724000D01*
X133450000Y-67845000D02*
X133450000Y-66950000D01*
X128550000Y-67845000D02*
X128550000Y-66920000D01*
X133450000Y-67845000D02*
X133450000Y-69970000D01*
X128550000Y-67845000D02*
X128550000Y-68950000D01*
X128500000Y-69000000D02*
X128500000Y-71000000D01*
X135482992Y-63851000D02*
X135333992Y-64000000D01*
X128550000Y-68950000D02*
X128500000Y-69000000D01*
X133450000Y-66950000D02*
X133319000Y-66819000D01*
X139890000Y-62870000D02*
X138909000Y-63851000D01*
X129746000Y-65724000D02*
X130276000Y-65724000D01*
X132000000Y-66819000D02*
X130905000Y-65724000D01*
%TO.N,XIN*%
X130400000Y-93850402D02*
X130800000Y-93450402D01*
X132100000Y-98150000D02*
X133650000Y-98150000D01*
X131500000Y-97550000D02*
X132100000Y-98150000D01*
X133650000Y-98150000D02*
X134000000Y-98500000D01*
X130400000Y-94437500D02*
X130400000Y-93850402D01*
X131500000Y-96500000D02*
X131500000Y-97550000D01*
%TO.N,Net-(C16-Pad2)*%
X128570000Y-98520000D02*
X128000000Y-98520000D01*
X128000000Y-97990000D02*
X128000000Y-98520000D01*
X129490000Y-96500000D02*
X128000000Y-97990000D01*
X129900000Y-99850000D02*
X128570000Y-98520000D01*
%TO.N,USB_D+*%
X129822277Y-75753198D02*
X130035000Y-75753198D01*
X136775000Y-84068603D02*
X136659504Y-84068603D01*
X130335422Y-76965288D02*
X130335422Y-76653620D01*
X130275000Y-75513198D02*
X130275000Y-75393198D01*
X131201000Y-66819000D02*
X131250000Y-66868000D01*
X130275000Y-68957501D02*
X130250000Y-68932501D01*
X130250000Y-66868000D02*
X130299000Y-66819000D01*
X136361158Y-84482445D02*
X136262240Y-84581363D01*
X130035000Y-76353198D02*
X129822277Y-76353198D01*
X131911000Y-78343900D02*
X130666100Y-77099000D01*
X130666100Y-77099000D02*
X130469134Y-77099000D01*
X130250000Y-67845000D02*
X130250000Y-66868000D01*
X130275000Y-75393198D02*
X130275000Y-74932501D01*
X130275000Y-74932501D02*
X130275000Y-68957501D01*
X130335422Y-76653620D02*
X130275000Y-76593198D01*
X131250000Y-66868000D02*
X131250000Y-67845000D01*
X129582277Y-76113198D02*
X129582277Y-75993198D01*
X136166149Y-84677454D02*
X136168975Y-84674628D01*
X130469134Y-77099000D02*
X130335422Y-76965288D01*
X130250000Y-68932501D02*
X130250000Y-67845000D01*
X136262240Y-84581363D02*
X136168975Y-84674628D01*
X136659504Y-84068603D02*
X131911000Y-79320099D01*
X135510000Y-84970000D02*
X135873603Y-84970000D01*
X135873603Y-84970000D02*
X136166149Y-84677454D01*
X130299000Y-66819000D02*
X131201000Y-66819000D01*
X131911000Y-79320099D02*
X131911000Y-78343900D01*
X136361158Y-84482445D02*
X136775000Y-84068603D01*
X129582277Y-75993198D02*
G75*
G02*
X129822277Y-75753177I240023J-2D01*
G01*
X130275000Y-76593198D02*
G75*
G03*
X130035000Y-76353200I-240000J-2D01*
G01*
X129822277Y-76353198D02*
G75*
G02*
X129582302Y-76113198I23J239998D01*
G01*
X130035000Y-75753198D02*
G75*
G03*
X130274998Y-75513198I0J239998D01*
G01*
%TO.N,USB_D-*%
X137176000Y-83902503D02*
X137176000Y-84176000D01*
X130725000Y-76476098D02*
X130736422Y-76487520D01*
X136825604Y-83667603D02*
X136941100Y-83667603D01*
X130750000Y-68932501D02*
X130725000Y-68957501D01*
X130750000Y-68822000D02*
X130750000Y-67845000D01*
X137176000Y-84176000D02*
X137225000Y-84225000D01*
X131750000Y-67845000D02*
X131750000Y-68822000D01*
X130725000Y-68957501D02*
X130725000Y-76476098D01*
X132312000Y-78177800D02*
X132312000Y-79153999D01*
X130736422Y-76487520D02*
X130736422Y-76698000D01*
X137225000Y-84255000D02*
X135510000Y-85970000D01*
X136941100Y-83667603D02*
X137176000Y-83902503D01*
X132312000Y-79153999D02*
X136825604Y-83667603D01*
X130832200Y-76698000D02*
X132312000Y-78177800D01*
X137225000Y-84225000D02*
X137225000Y-84255000D01*
X131750000Y-68822000D02*
X131701000Y-68871000D01*
X131701000Y-68871000D02*
X130799000Y-68871000D01*
X130736422Y-76698000D02*
X130832200Y-76698000D01*
X130750000Y-67845000D02*
X130750000Y-68932501D01*
X130799000Y-68871000D02*
X130750000Y-68822000D01*
%TO.N,Net-(J1-CC1)*%
X132250000Y-67845000D02*
X132250000Y-68822000D01*
X132500000Y-69072000D02*
X132500000Y-69990000D01*
X132250000Y-68822000D02*
X132500000Y-69072000D01*
%TO.N,Net-(J1-CC2)*%
X129538500Y-72451500D02*
X129500000Y-72490000D01*
X129538500Y-70659032D02*
X129538500Y-72451500D01*
X129250000Y-70370532D02*
X129538500Y-70659032D01*
X129250000Y-67845000D02*
X129250000Y-70370532D01*
%TO.N,GPIO9*%
X127562500Y-92800000D02*
X124100000Y-92800000D01*
X124100000Y-92800000D02*
X122110000Y-90810000D01*
%TO.N,GPIO14*%
X128900000Y-93500000D02*
X129200000Y-93800000D01*
X122110000Y-108590000D02*
X125120028Y-105579972D01*
X129200000Y-94437500D02*
X129200000Y-93800000D01*
X125120028Y-105579972D02*
X125120028Y-100020028D01*
X128500000Y-93500000D02*
X128900000Y-93500000D01*
%TO.N,GPIO1*%
X126634900Y-89200000D02*
X126633900Y-89201000D01*
X122110000Y-65410000D02*
X124910000Y-65410000D01*
X125000000Y-65500000D02*
X125000000Y-73500000D01*
X125000000Y-73500000D02*
X126000000Y-74500000D01*
X126000000Y-88567100D02*
X126633900Y-89201000D01*
X124910000Y-65410000D02*
X125000000Y-65500000D01*
X126000000Y-74500000D02*
X126000000Y-88567100D01*
X126633900Y-89201000D02*
X127026226Y-89201000D01*
X127562500Y-89200000D02*
X126634900Y-89200000D01*
%TO.N,GPIO2*%
X124500000Y-73567100D02*
X124500000Y-71500000D01*
X125599000Y-74666100D02*
X124500000Y-73567100D01*
X127194326Y-89600000D02*
X127562500Y-89600000D01*
X127562500Y-89600000D02*
X128400000Y-89600000D01*
X125599000Y-86301000D02*
X125599000Y-74666100D01*
X124500000Y-71500000D02*
X123120000Y-71500000D01*
X123120000Y-71500000D02*
X122110000Y-70490000D01*
X125400000Y-86500000D02*
X125599000Y-86301000D01*
X128400000Y-89600000D02*
X128500000Y-89500000D01*
%TO.N,GPIO15*%
X129600000Y-94437500D02*
X129600000Y-94972774D01*
X130240000Y-103000000D02*
X134000000Y-103000000D01*
X129600000Y-94972774D02*
X129599000Y-94971774D01*
X122110000Y-111130000D02*
X130240000Y-103000000D01*
X135721000Y-97975800D02*
X134245200Y-96500000D01*
X130000000Y-95372774D02*
X129600000Y-94972774D01*
X130000000Y-95500000D02*
X130000000Y-95372774D01*
X135721000Y-103000000D02*
X135721000Y-97975800D01*
X134245200Y-96500000D02*
X134000000Y-96500000D01*
%TO.N,GPIO7*%
X127562500Y-91600000D02*
X126465800Y-91600000D01*
X123500000Y-87120000D02*
X122110000Y-85730000D01*
X123500000Y-88634200D02*
X123500000Y-87120000D01*
X126465800Y-91600000D02*
X123500000Y-88634200D01*
%TO.N,GPIO12*%
X122110000Y-100970000D02*
X128400000Y-94680000D01*
X128400000Y-94680000D02*
X128400000Y-94437500D01*
%TO.N,GPIO4*%
X124398000Y-87398000D02*
X124398000Y-85399000D01*
X126400000Y-90400000D02*
X125000000Y-89000000D01*
X125000000Y-87500000D02*
X124500000Y-87500000D01*
X125000000Y-89000000D02*
X125000000Y-87500000D01*
X124797000Y-78257000D02*
X122110000Y-75570000D01*
X124398000Y-85399000D02*
X124797000Y-85000000D01*
X124797000Y-85000000D02*
X124797000Y-78257000D01*
X127562500Y-90400000D02*
X126400000Y-90400000D01*
X124500000Y-87500000D02*
X124398000Y-87398000D01*
%TO.N,GPIO13*%
X128800000Y-95491527D02*
X128800000Y-94437500D01*
X124500000Y-99791527D02*
X128800000Y-95491527D01*
X122110000Y-103510000D02*
X124500000Y-101120000D01*
X124500000Y-101120000D02*
X124500000Y-99791527D01*
%TO.N,GPIO6*%
X127200000Y-91200000D02*
X127562500Y-91200000D01*
X128300000Y-91200000D02*
X127562500Y-91200000D01*
X128553273Y-90298227D02*
X128553273Y-90946727D01*
X128553273Y-90946727D02*
X128300000Y-91200000D01*
%TO.N,GPIO3*%
X124000000Y-73500000D02*
X124000000Y-73634200D01*
X125198000Y-74832200D02*
X125198000Y-85899000D01*
X125599000Y-88733200D02*
X126865800Y-90000000D01*
X124000000Y-73634200D02*
X125198000Y-74832200D01*
X123530000Y-73030000D02*
X124000000Y-73500000D01*
X125151057Y-87101000D02*
X125599000Y-87101000D01*
X126865800Y-90000000D02*
X127562500Y-90000000D01*
X125198000Y-85899000D02*
X125151057Y-85899000D01*
X125599000Y-87101000D02*
X125599000Y-88733200D01*
X124799000Y-86251057D02*
X124799000Y-86748943D01*
X124799000Y-86748943D02*
X125151057Y-87101000D01*
X122110000Y-73030000D02*
X123530000Y-73030000D01*
X125151057Y-85899000D02*
X124799000Y-86251057D01*
%TO.N,GPIO5*%
X124364950Y-84864950D02*
X123997000Y-85232900D01*
X126233900Y-90801000D02*
X127000000Y-90801000D01*
X123997000Y-88564100D02*
X126233900Y-90801000D01*
X127001000Y-90800000D02*
X127000000Y-90801000D01*
X124364950Y-80364950D02*
X124364950Y-84864950D01*
X123997000Y-85232900D02*
X123997000Y-88564100D01*
X127000000Y-90801000D02*
X127026226Y-90801000D01*
X122110000Y-78110000D02*
X124364950Y-80364950D01*
X127562500Y-90800000D02*
X127001000Y-90800000D01*
%TO.N,GPIO8*%
X126240000Y-92400000D02*
X122110000Y-88270000D01*
X127562500Y-92400000D02*
X126240000Y-92400000D01*
%TO.N,GPIO10*%
X127562500Y-93200000D02*
X124800000Y-93200000D01*
X124800000Y-93200000D02*
X122110000Y-95890000D01*
%TO.N,GPIO0*%
X125500000Y-64000000D02*
X124370000Y-62870000D01*
X127562500Y-88800000D02*
X126800000Y-88800000D01*
X125500000Y-73264066D02*
X125500000Y-64000000D01*
X126500000Y-88500000D02*
X126500000Y-74264066D01*
X126800000Y-88800000D02*
X126500000Y-88500000D01*
X126500000Y-74264066D02*
X125500000Y-73264066D01*
X124370000Y-62870000D02*
X122110000Y-62870000D01*
%TO.N,GPIO11*%
X126940000Y-93600000D02*
X122110000Y-98430000D01*
X127562500Y-93600000D02*
X126940000Y-93600000D01*
%TO.N,GPIO17*%
X137000000Y-98000000D02*
X137000000Y-105700000D01*
X137000000Y-105700000D02*
X139890000Y-108590000D01*
X133600000Y-94437500D02*
X133600000Y-94600000D01*
X133600000Y-94600000D02*
X137000000Y-98000000D01*
%TO.N,GPIO19*%
X134437500Y-93200000D02*
X134972774Y-93200000D01*
X134972774Y-93200000D02*
X137802000Y-96029226D01*
X137802000Y-98882000D02*
X137802000Y-96029226D01*
X139890000Y-100970000D02*
X137802000Y-98882000D01*
%TO.N,GPIO24*%
X137700000Y-90800000D02*
X138000000Y-90500000D01*
X138000000Y-90500000D02*
X138000000Y-85080000D01*
X138000000Y-85080000D02*
X139890000Y-83190000D01*
X134437500Y-90800000D02*
X137700000Y-90800000D01*
%TO.N,GPIO21*%
X139890000Y-95890000D02*
X136397000Y-92397000D01*
X134968774Y-92400000D02*
X134971774Y-92397000D01*
X134437500Y-92400000D02*
X134968774Y-92400000D01*
X134971774Y-92397000D02*
X136397000Y-92397000D01*
%TO.N,RUN*%
X132800000Y-94437500D02*
X132800000Y-93902226D01*
X132800000Y-93902226D02*
X132799000Y-93903226D01*
X133000000Y-91001000D02*
X133000000Y-93702226D01*
X133501000Y-90500000D02*
X133000000Y-91001000D01*
X133000000Y-93702226D02*
X132800000Y-93902226D01*
%TO.N,GPIO23*%
X138500000Y-87120000D02*
X139890000Y-85730000D01*
X138500000Y-91000000D02*
X138500000Y-87120000D01*
X134437500Y-91200000D02*
X138300000Y-91200000D01*
X138300000Y-91200000D02*
X138500000Y-91000000D01*
%TO.N,GPIO20*%
X134437500Y-92800000D02*
X135135874Y-92800000D01*
X136230900Y-92798000D02*
X138466450Y-95033550D01*
X139890000Y-98430000D02*
X139890000Y-97550126D01*
X135137874Y-92798000D02*
X136230900Y-92798000D01*
X138466450Y-97006450D02*
X139890000Y-98430000D01*
X138466450Y-95033550D02*
X138466450Y-97006450D01*
X135137874Y-92798000D02*
X135135874Y-92800000D01*
%TO.N,GPIO18*%
X139890000Y-103510000D02*
X137401000Y-101021000D01*
X137401000Y-101021000D02*
X137401000Y-96563500D01*
X137401000Y-96563500D02*
X134437500Y-93600000D01*
%TO.N,GPIO28_ADC2*%
X133801000Y-89200000D02*
X134437500Y-89200000D01*
X133100002Y-89807756D02*
X133193244Y-89807756D01*
X133193244Y-89807756D02*
X133801000Y-89200000D01*
%TO.N,GPIO22*%
X139100000Y-91600000D02*
X134437500Y-91600000D01*
X134972774Y-91600000D02*
X134971774Y-91601000D01*
X139890000Y-90810000D02*
X139100000Y-91600000D01*
X134437500Y-91600000D02*
X134972774Y-91600000D01*
%TO.N,GPIO16*%
X139890000Y-111130000D02*
X136500000Y-107740000D01*
X136500000Y-98150057D02*
X133849943Y-95500000D01*
X133200000Y-94972774D02*
X133199000Y-94971774D01*
X133727226Y-95500000D02*
X133200000Y-94972774D01*
X133200000Y-94437500D02*
X133200000Y-94972774D01*
X136500000Y-107740000D02*
X136500000Y-98150057D01*
X133849943Y-95500000D02*
X133727226Y-95500000D01*
%TO.N,GPIO29_ADC3*%
X135200000Y-88800000D02*
X136755043Y-87244957D01*
X136755043Y-87244957D02*
X136755043Y-86000000D01*
X134437500Y-88800000D02*
X135200000Y-88800000D01*
%TO.N,GPIO26_ADC0*%
X139890000Y-78110000D02*
X138356043Y-76576043D01*
X137561000Y-84486100D02*
X138000000Y-84047100D01*
X138356043Y-76576043D02*
X138356043Y-76000000D01*
X134437500Y-90000000D02*
X136417550Y-90000000D01*
X138184373Y-84047100D02*
X138356043Y-83875430D01*
X137561000Y-88856550D02*
X137561000Y-84486100D01*
X138000000Y-84047100D02*
X138184373Y-84047100D01*
X136417550Y-90000000D02*
X137561000Y-88856550D01*
%TO.N,GPIO27_ADC1*%
X135800000Y-89600000D02*
X136000000Y-89400000D01*
X134437500Y-89600000D02*
X135800000Y-89600000D01*
%TO.N,SWCLK*%
X132000000Y-96129550D02*
X132000000Y-94437500D01*
X134611000Y-103889000D02*
X134611000Y-98000000D01*
X133540000Y-110890000D02*
X135721000Y-108709000D01*
X134289100Y-97678100D02*
X133548550Y-97678100D01*
X134611000Y-98000000D02*
X134289100Y-97678100D01*
X134500000Y-104000000D02*
X134611000Y-103889000D01*
X135721000Y-108709000D02*
X135721000Y-104000000D01*
X133548550Y-97678100D02*
X132000000Y-96129550D01*
%TO.N,SWD*%
X135121000Y-107829340D02*
X133211340Y-109739000D01*
X132400000Y-95962450D02*
X133714650Y-97277100D01*
X133211340Y-109739000D02*
X129611000Y-109739000D01*
X132400000Y-94437500D02*
X132400000Y-95962450D01*
X129611000Y-109739000D02*
X128460000Y-110890000D01*
X134455200Y-97277100D02*
X135121000Y-97942900D01*
X135121000Y-97942900D02*
X135121000Y-107829340D01*
X133714650Y-97277100D02*
X134455200Y-97277100D01*
%TO.N,Net-(U1-USB_DP)*%
X132000000Y-87562500D02*
X132000000Y-86500000D01*
X134490000Y-84970000D02*
X133361000Y-86099000D01*
X133361000Y-86099000D02*
X132333900Y-86099000D01*
X132333900Y-86099000D02*
X132001000Y-86431900D01*
%TO.N,Net-(U1-USB_DM)*%
X132500000Y-86500000D02*
X134000000Y-86500000D01*
X132400000Y-86600000D02*
X132500000Y-86500000D01*
X134490000Y-86010000D02*
X134490000Y-85970000D01*
X134490000Y-85970000D02*
X134460000Y-86000000D01*
X132400000Y-87562500D02*
X132400000Y-86600000D01*
X134000000Y-86500000D02*
X134490000Y-86010000D01*
%TO.N,XOUT*%
X130800000Y-94437500D02*
X130800000Y-96210000D01*
X130800000Y-96210000D02*
X130510000Y-96500000D01*
%TO.N,QSPI_SS*%
X128000000Y-86000000D02*
X128000000Y-83225002D01*
X128975002Y-82250000D02*
X129575000Y-82250000D01*
X128400000Y-86400000D02*
X128000000Y-86000000D01*
X129500000Y-81000000D02*
X128000000Y-82500000D01*
X128000000Y-83225002D02*
X128975002Y-82250000D01*
X127500000Y-87000000D02*
X127500000Y-86500000D01*
X130490000Y-81000000D02*
X129500000Y-81000000D01*
X128400000Y-87562500D02*
X128400000Y-86400000D01*
X127500000Y-86500000D02*
X128000000Y-86000000D01*
X128000000Y-82500000D02*
X128000000Y-83225002D01*
X134500000Y-105000000D02*
X134500000Y-106490000D01*
%TO.N,Net-(R7-Pad1)*%
X134500000Y-107510000D02*
X133610000Y-107510000D01*
X133610000Y-107510000D02*
X133100000Y-107000000D01*
%TO.N,QSPI_SD1*%
X128800000Y-86232900D02*
X128800000Y-87562500D01*
X129575000Y-82750000D02*
X129042102Y-82750000D01*
X128423000Y-83369102D02*
X128423000Y-85855900D01*
X128423000Y-85855900D02*
X128800000Y-86232900D01*
X129042102Y-82750000D02*
X128423000Y-83369102D01*
%TO.N,QSPI_SCLK*%
X130166100Y-84901000D02*
X131166100Y-84901000D01*
X132823698Y-84317100D02*
X133176000Y-83964798D01*
X133176000Y-83535202D02*
X132890798Y-83250000D01*
X131166100Y-84901000D02*
X131750000Y-84317100D01*
X131750000Y-84317100D02*
X132823698Y-84317100D01*
X132890798Y-83250000D02*
X132425000Y-83250000D01*
X130000000Y-85067100D02*
X130166100Y-84901000D01*
X130000000Y-87562500D02*
X130000000Y-85067100D01*
X133176000Y-83964798D02*
X133176000Y-83535202D01*
%TO.N,QSPI_SD3*%
X132957898Y-82750000D02*
X132425000Y-82750000D01*
X132000000Y-84718100D02*
X132989798Y-84718100D01*
X131416100Y-85302000D02*
X132000000Y-84718100D01*
X130698000Y-85302000D02*
X130400000Y-85600000D01*
X133577000Y-83369102D02*
X132957898Y-82750000D01*
X132989798Y-84718100D02*
X133577000Y-84130898D01*
X130698000Y-85302000D02*
X131416100Y-85302000D01*
X133577000Y-84130898D02*
X133577000Y-83369102D01*
X130400000Y-85600000D02*
X130400000Y-87562500D01*
%TO.N,QSPI_SD2*%
X129575000Y-83250000D02*
X129109202Y-83250000D01*
X128824000Y-85689800D02*
X129200000Y-86065800D01*
X129200000Y-86065800D02*
X129200000Y-87562500D01*
X129109202Y-83250000D02*
X128824000Y-83535202D01*
X128824000Y-83535202D02*
X128824000Y-85689800D01*
%TO.N,QSPI_SD0*%
X132425000Y-83750000D02*
X131750000Y-83750000D01*
X130000000Y-84500000D02*
X129600000Y-84900000D01*
X131000000Y-84500000D02*
X130000000Y-84500000D01*
X129600000Y-84900000D02*
X129600000Y-87562500D01*
X131750000Y-83750000D02*
X131000000Y-84500000D01*
%TD*%
%TA.AperFunction,Conductor*%
%TO.N,GND*%
G36*
X133436616Y-103605310D02*
G01*
X133453687Y-103605098D01*
X133485971Y-103619359D01*
X133489466Y-103621544D01*
X133489711Y-103621789D01*
X133620821Y-103709394D01*
X133647942Y-103720627D01*
X133656693Y-103726099D01*
X133703101Y-103778330D01*
X133713904Y-103847359D01*
X133712573Y-103855431D01*
X133699500Y-103921153D01*
X133699500Y-104078846D01*
X133730261Y-104233489D01*
X133730264Y-104233501D01*
X133790602Y-104379172D01*
X133790609Y-104379185D01*
X133825304Y-104431109D01*
X133846182Y-104497786D01*
X133827698Y-104565167D01*
X133825304Y-104568891D01*
X133790609Y-104620814D01*
X133790602Y-104620827D01*
X133730264Y-104766498D01*
X133730261Y-104766510D01*
X133699500Y-104921153D01*
X133699500Y-105078846D01*
X133730261Y-105233489D01*
X133730264Y-105233501D01*
X133790602Y-105379172D01*
X133790608Y-105379183D01*
X133816093Y-105417324D01*
X133836970Y-105484001D01*
X133818485Y-105551381D01*
X133766506Y-105598071D01*
X133697536Y-105609247D01*
X133648842Y-105592331D01*
X133589606Y-105556522D01*
X133427196Y-105505914D01*
X133427194Y-105505913D01*
X133427192Y-105505913D01*
X133377778Y-105501423D01*
X133356616Y-105499500D01*
X132843384Y-105499500D01*
X132824145Y-105501248D01*
X132772807Y-105505913D01*
X132610393Y-105556522D01*
X132464811Y-105644530D01*
X132344530Y-105764811D01*
X132256522Y-105910393D01*
X132205913Y-106072807D01*
X132199500Y-106143386D01*
X132199500Y-107856613D01*
X132205913Y-107927192D01*
X132205913Y-107927194D01*
X132205914Y-107927196D01*
X132241717Y-108042093D01*
X132256522Y-108089606D01*
X132344530Y-108235188D01*
X132464811Y-108355469D01*
X132464813Y-108355470D01*
X132464815Y-108355472D01*
X132610394Y-108443478D01*
X132772804Y-108494086D01*
X132843384Y-108500500D01*
X132843387Y-108500500D01*
X133301243Y-108500500D01*
X133368282Y-108520185D01*
X133414037Y-108572989D01*
X133423981Y-108642147D01*
X133394956Y-108705703D01*
X133388924Y-108712181D01*
X132998924Y-109102181D01*
X132937601Y-109135666D01*
X132911243Y-109138500D01*
X129697670Y-109138500D01*
X129697654Y-109138499D01*
X129690058Y-109138499D01*
X129531943Y-109138499D01*
X129417397Y-109169192D01*
X129379214Y-109179423D01*
X129360030Y-109190500D01*
X129360027Y-109190501D01*
X129242290Y-109258475D01*
X129242282Y-109258481D01*
X129130480Y-109370283D01*
X129130480Y-109370284D01*
X129130478Y-109370286D01*
X129043744Y-109457020D01*
X128997582Y-109503182D01*
X128936259Y-109536666D01*
X128909901Y-109539500D01*
X127562129Y-109539500D01*
X127562123Y-109539501D01*
X127502516Y-109545908D01*
X127367671Y-109596202D01*
X127367664Y-109596206D01*
X127252455Y-109682452D01*
X127252452Y-109682455D01*
X127166206Y-109797664D01*
X127166202Y-109797671D01*
X127115908Y-109932517D01*
X127109501Y-109992116D01*
X127109500Y-109992135D01*
X127109500Y-111787870D01*
X127109501Y-111787876D01*
X127115908Y-111847483D01*
X127147494Y-111932167D01*
X127152478Y-112001858D01*
X127118993Y-112063182D01*
X127057670Y-112096666D01*
X127031312Y-112099500D01*
X123328291Y-112099500D01*
X123261252Y-112079815D01*
X123215497Y-112027011D01*
X123205553Y-111957853D01*
X123227973Y-111902615D01*
X123275048Y-111837820D01*
X123275047Y-111837820D01*
X123275051Y-111837816D01*
X123371557Y-111648412D01*
X123437246Y-111446243D01*
X123470500Y-111236287D01*
X123470500Y-111023713D01*
X123437246Y-110813757D01*
X123421054Y-110763926D01*
X123419060Y-110694086D01*
X123451303Y-110637930D01*
X126241390Y-107847844D01*
X128200000Y-107847844D01*
X128206401Y-107907372D01*
X128206403Y-107907379D01*
X128256645Y-108042086D01*
X128256649Y-108042093D01*
X128342809Y-108157187D01*
X128342812Y-108157190D01*
X128457906Y-108243350D01*
X128457913Y-108243354D01*
X128592624Y-108293598D01*
X128650000Y-108299765D01*
X129150000Y-108299765D01*
X129207375Y-108293598D01*
X129342086Y-108243354D01*
X129342093Y-108243350D01*
X129457187Y-108157190D01*
X129457190Y-108157187D01*
X129543350Y-108042093D01*
X129543354Y-108042086D01*
X129593596Y-107907379D01*
X129593598Y-107907372D01*
X129599999Y-107847844D01*
X129600000Y-107847827D01*
X129600000Y-107250000D01*
X129150000Y-107250000D01*
X129150000Y-108299765D01*
X128650000Y-108299765D01*
X128650000Y-107250000D01*
X128200000Y-107250000D01*
X128200000Y-107847844D01*
X126241390Y-107847844D01*
X127988320Y-106100914D01*
X128049642Y-106067430D01*
X128119334Y-106072414D01*
X128175267Y-106114286D01*
X128199684Y-106179750D01*
X128200000Y-106188596D01*
X128200000Y-106750000D01*
X128650000Y-106750000D01*
X129150000Y-106750000D01*
X129600000Y-106750000D01*
X129600000Y-106152172D01*
X129599999Y-106152155D01*
X129593598Y-106092627D01*
X129593596Y-106092620D01*
X129543354Y-105957913D01*
X129543350Y-105957906D01*
X129457190Y-105842812D01*
X129457187Y-105842809D01*
X129342093Y-105756649D01*
X129342086Y-105756645D01*
X129207380Y-105706403D01*
X129207373Y-105706401D01*
X129150000Y-105700232D01*
X129150000Y-106750000D01*
X128650000Y-106750000D01*
X128650000Y-105700233D01*
X128609831Y-105664152D01*
X128573112Y-105604710D01*
X128574358Y-105534851D01*
X128605010Y-105484223D01*
X130452416Y-103636819D01*
X130513739Y-103603334D01*
X130540097Y-103600500D01*
X133420234Y-103600500D01*
X133436616Y-103605310D01*
G37*
%TD.AperFunction*%
%TA.AperFunction,Conductor*%
G36*
X130534075Y-111082993D02*
G01*
X130599901Y-111197007D01*
X130692993Y-111290099D01*
X130807007Y-111355925D01*
X130870590Y-111372962D01*
X130381466Y-111862085D01*
X130381466Y-111862086D01*
X130399492Y-111875183D01*
X130442157Y-111930514D01*
X130448135Y-112000127D01*
X130415528Y-112061922D01*
X130354689Y-112096278D01*
X130326605Y-112099500D01*
X129888688Y-112099500D01*
X129821649Y-112079815D01*
X129775894Y-112027011D01*
X129765950Y-111957853D01*
X129772506Y-111932167D01*
X129783528Y-111902615D01*
X129804091Y-111847483D01*
X129810500Y-111787873D01*
X129810499Y-111590920D01*
X129830183Y-111523883D01*
X129882987Y-111478128D01*
X129952145Y-111468184D01*
X130015701Y-111497209D01*
X130025953Y-111508378D01*
X130027913Y-111508533D01*
X130517037Y-111019408D01*
X130534075Y-111082993D01*
G37*
%TD.AperFunction*%
%TA.AperFunction,Conductor*%
G36*
X131972085Y-111508532D02*
G01*
X131983566Y-111492732D01*
X132050551Y-111361270D01*
X132098526Y-111310474D01*
X132166347Y-111293679D01*
X132232482Y-111316217D01*
X132275933Y-111370932D01*
X132278967Y-111379247D01*
X132288444Y-111408414D01*
X132384951Y-111597820D01*
X132509890Y-111769786D01*
X132627923Y-111887819D01*
X132661408Y-111949142D01*
X132656424Y-112018834D01*
X132614552Y-112074767D01*
X132549088Y-112099184D01*
X132540242Y-112099500D01*
X131673395Y-112099500D01*
X131606356Y-112079815D01*
X131560601Y-112027011D01*
X131550657Y-111957853D01*
X131579682Y-111894297D01*
X131600505Y-111875185D01*
X131618532Y-111862085D01*
X131618533Y-111862085D01*
X131129410Y-111372962D01*
X131192993Y-111355925D01*
X131307007Y-111290099D01*
X131400099Y-111197007D01*
X131465925Y-111082993D01*
X131482962Y-111019409D01*
X131972085Y-111508532D01*
G37*
%TD.AperFunction*%
%TA.AperFunction,Conductor*%
G36*
X127117257Y-98126018D02*
G01*
X127173190Y-98167890D01*
X127197607Y-98233354D01*
X127193427Y-98272764D01*
X127193495Y-98272777D01*
X127193330Y-98273680D01*
X127193000Y-98276792D01*
X127192357Y-98279002D01*
X127192356Y-98279008D01*
X127189500Y-98315302D01*
X127189500Y-98724697D01*
X127192356Y-98760991D01*
X127192357Y-98760997D01*
X127237504Y-98916390D01*
X127237505Y-98916393D01*
X127319881Y-99055684D01*
X127319887Y-99055692D01*
X127371049Y-99106854D01*
X127404534Y-99168177D01*
X127400872Y-99227944D01*
X127402330Y-99230000D01*
X127501648Y-99230000D01*
X127564766Y-99247267D01*
X127573605Y-99252494D01*
X127573608Y-99252494D01*
X127573610Y-99252496D01*
X127729002Y-99297642D01*
X127729005Y-99297642D01*
X127729007Y-99297643D01*
X127765310Y-99300500D01*
X127765318Y-99300500D01*
X127876000Y-99300500D01*
X127943039Y-99320185D01*
X127988794Y-99372989D01*
X128000000Y-99424500D01*
X128000000Y-99480000D01*
X128126000Y-99480000D01*
X128193039Y-99499685D01*
X128238794Y-99552489D01*
X128250000Y-99604000D01*
X128250000Y-100057467D01*
X128252729Y-100057212D01*
X128377919Y-100013405D01*
X128484637Y-99934644D01*
X128487814Y-99931467D01*
X128549136Y-99897979D01*
X128618828Y-99902960D01*
X128674763Y-99944828D01*
X128699184Y-100010292D01*
X128699500Y-100019143D01*
X128699500Y-100250000D01*
X128699501Y-100250019D01*
X128710000Y-100352796D01*
X128710001Y-100352799D01*
X128765185Y-100519331D01*
X128765187Y-100519336D01*
X128771960Y-100530317D01*
X128857288Y-100668656D01*
X128981344Y-100792712D01*
X129130666Y-100884814D01*
X129297203Y-100939999D01*
X129399991Y-100950500D01*
X130400008Y-100950499D01*
X130400016Y-100950498D01*
X130400019Y-100950498D01*
X130456302Y-100944748D01*
X130502797Y-100939999D01*
X130669334Y-100884814D01*
X130818656Y-100792712D01*
X130942712Y-100668656D01*
X131014761Y-100551844D01*
X131066707Y-100505121D01*
X131135670Y-100493898D01*
X131199752Y-100521741D01*
X131219103Y-100542017D01*
X131257433Y-100592563D01*
X131377904Y-100683920D01*
X131518556Y-100739386D01*
X131606946Y-100750000D01*
X131850000Y-100750000D01*
X132350000Y-100750000D01*
X132593054Y-100750000D01*
X132681443Y-100739386D01*
X132822095Y-100683920D01*
X132942564Y-100592564D01*
X133033920Y-100472095D01*
X133089386Y-100331443D01*
X133100000Y-100243053D01*
X133100000Y-100100000D01*
X132350000Y-100100000D01*
X132350000Y-100750000D01*
X131850000Y-100750000D01*
X131850000Y-99974000D01*
X131869685Y-99906961D01*
X131922489Y-99861206D01*
X131974000Y-99850000D01*
X132100000Y-99850000D01*
X132100000Y-99724000D01*
X132104111Y-99710000D01*
X133402332Y-99710000D01*
X133436596Y-99807922D01*
X133515358Y-99914641D01*
X133622080Y-99993405D01*
X133747271Y-100037212D01*
X133747269Y-100037212D01*
X133750000Y-100037467D01*
X133750000Y-99710000D01*
X133402332Y-99710000D01*
X132104111Y-99710000D01*
X132119685Y-99656961D01*
X132172489Y-99611206D01*
X132224000Y-99600000D01*
X133100000Y-99600000D01*
X133100000Y-99456946D01*
X133089386Y-99368556D01*
X133033919Y-99227901D01*
X133033904Y-99227875D01*
X133033900Y-99227872D01*
X133033894Y-99227856D01*
X133029765Y-99220513D01*
X133030914Y-99219866D01*
X133021827Y-99195505D01*
X133009540Y-99163171D01*
X133009622Y-99162781D01*
X133009483Y-99162408D01*
X133016823Y-99128666D01*
X133023970Y-99094807D01*
X133024279Y-99094391D01*
X133024335Y-99094135D01*
X133045483Y-99065884D01*
X133116096Y-98995271D01*
X133177417Y-98961788D01*
X133247109Y-98966772D01*
X133303042Y-99008644D01*
X133310508Y-99019834D01*
X133319882Y-99035686D01*
X133319887Y-99035692D01*
X133371049Y-99086854D01*
X133404534Y-99148177D01*
X133400872Y-99207944D01*
X133402330Y-99210000D01*
X133501648Y-99210000D01*
X133564766Y-99227267D01*
X133573605Y-99232494D01*
X133573608Y-99232494D01*
X133573610Y-99232496D01*
X133729002Y-99277642D01*
X133729005Y-99277642D01*
X133729007Y-99277643D01*
X133765310Y-99280500D01*
X133876000Y-99280500D01*
X133879296Y-99281467D01*
X133882640Y-99280678D01*
X133912582Y-99291242D01*
X133943039Y-99300185D01*
X133945288Y-99302780D01*
X133948529Y-99303924D01*
X133968012Y-99329005D01*
X133988794Y-99352989D01*
X133989906Y-99357191D01*
X133991391Y-99359102D01*
X133993860Y-99372123D01*
X133999507Y-99393450D01*
X134010007Y-99510812D01*
X134009555Y-99513080D01*
X134010500Y-99521862D01*
X134010500Y-102079964D01*
X133990815Y-102147003D01*
X133938011Y-102192758D01*
X133910692Y-102201581D01*
X133766508Y-102230261D01*
X133766498Y-102230264D01*
X133620827Y-102290602D01*
X133620814Y-102290609D01*
X133489125Y-102378602D01*
X133422447Y-102399480D01*
X133420234Y-102399500D01*
X130319057Y-102399500D01*
X130160942Y-102399500D01*
X130008215Y-102440423D01*
X130008214Y-102440423D01*
X130008212Y-102440424D01*
X130008209Y-102440425D01*
X129958096Y-102469359D01*
X129958095Y-102469360D01*
X129939846Y-102479896D01*
X129871285Y-102519479D01*
X129871282Y-102519481D01*
X123682181Y-108708583D01*
X123620858Y-108742068D01*
X123551166Y-108737084D01*
X123495233Y-108695212D01*
X123470816Y-108629748D01*
X123470500Y-108620902D01*
X123470500Y-108483713D01*
X123441365Y-108299765D01*
X123437246Y-108273757D01*
X123421054Y-108223926D01*
X123419060Y-108154086D01*
X123451303Y-108097930D01*
X125478534Y-106070700D01*
X125478539Y-106070696D01*
X125488742Y-106060492D01*
X125488744Y-106060492D01*
X125600548Y-105948688D01*
X125679605Y-105811756D01*
X125720528Y-105659029D01*
X125720528Y-100599793D01*
X125740213Y-100532754D01*
X125741426Y-100530902D01*
X125829418Y-100399213D01*
X125829418Y-100399212D01*
X125829422Y-100399207D01*
X125889765Y-100253525D01*
X125920528Y-100098870D01*
X125920528Y-99941186D01*
X125920528Y-99941183D01*
X125920527Y-99941181D01*
X125912924Y-99902960D01*
X125889765Y-99786531D01*
X125877923Y-99757941D01*
X125866350Y-99730000D01*
X127402332Y-99730000D01*
X127436596Y-99827922D01*
X127515358Y-99934641D01*
X127622080Y-100013405D01*
X127747271Y-100057212D01*
X127747269Y-100057212D01*
X127750000Y-100057467D01*
X127750000Y-99730000D01*
X127402332Y-99730000D01*
X125866350Y-99730000D01*
X125829425Y-99640855D01*
X125829418Y-99640842D01*
X125753976Y-99527936D01*
X125733098Y-99461259D01*
X125751582Y-99393879D01*
X125769393Y-99371368D01*
X126986243Y-98154518D01*
X127047565Y-98121034D01*
X127117257Y-98126018D01*
G37*
%TD.AperFunction*%
%TA.AperFunction,Conductor*%
G36*
X121654075Y-106242993D02*
G01*
X121719901Y-106357007D01*
X121812993Y-106450099D01*
X121927007Y-106515925D01*
X121990590Y-106532962D01*
X121501466Y-107022085D01*
X121501466Y-107022086D01*
X121517267Y-107033566D01*
X121517275Y-107033571D01*
X121648729Y-107100551D01*
X121699525Y-107148526D01*
X121716320Y-107216347D01*
X121693782Y-107282482D01*
X121639067Y-107325933D01*
X121630761Y-107328964D01*
X121620716Y-107332227D01*
X121601583Y-107338444D01*
X121412179Y-107434951D01*
X121240213Y-107559890D01*
X121240209Y-107559894D01*
X121112181Y-107687923D01*
X121050858Y-107721408D01*
X120981166Y-107716424D01*
X120925233Y-107674552D01*
X120900816Y-107609088D01*
X120900500Y-107600242D01*
X120900500Y-106706185D01*
X120920185Y-106639146D01*
X120972989Y-106593391D01*
X121042147Y-106583447D01*
X121105703Y-106612472D01*
X121134987Y-106649895D01*
X121136430Y-106652728D01*
X121147913Y-106668532D01*
X121147913Y-106668533D01*
X121637037Y-106179409D01*
X121654075Y-106242993D01*
G37*
%TD.AperFunction*%
%TA.AperFunction,Conductor*%
G36*
X140862085Y-106668532D02*
G01*
X140875185Y-106650505D01*
X140930517Y-106607842D01*
X141000131Y-106601866D01*
X141061924Y-106634475D01*
X141096279Y-106695315D01*
X141099500Y-106723395D01*
X141099500Y-107590242D01*
X141079815Y-107657281D01*
X141027011Y-107703036D01*
X140957853Y-107712980D01*
X140894297Y-107683955D01*
X140887819Y-107677923D01*
X140769786Y-107559890D01*
X140597820Y-107434951D01*
X140408414Y-107338444D01*
X140408413Y-107338443D01*
X140408412Y-107338443D01*
X140379246Y-107328966D01*
X140321571Y-107289529D01*
X140294373Y-107225171D01*
X140306288Y-107156324D01*
X140353532Y-107104849D01*
X140361270Y-107100551D01*
X140492732Y-107033566D01*
X140508532Y-107022085D01*
X140019409Y-106532962D01*
X140082993Y-106515925D01*
X140197007Y-106450099D01*
X140290099Y-106357007D01*
X140355925Y-106242993D01*
X140372962Y-106179409D01*
X140862085Y-106668532D01*
G37*
%TD.AperFunction*%
%TA.AperFunction,Conductor*%
G36*
X137805703Y-102275384D02*
G01*
X137812181Y-102281416D01*
X138556241Y-103025476D01*
X138589726Y-103086799D01*
X138586492Y-103151473D01*
X138572753Y-103193757D01*
X138539500Y-103403713D01*
X138539500Y-103616287D01*
X138572754Y-103826243D01*
X138603592Y-103921153D01*
X138638444Y-104028414D01*
X138734951Y-104217820D01*
X138859890Y-104389786D01*
X139010213Y-104540109D01*
X139182179Y-104665048D01*
X139182181Y-104665049D01*
X139182184Y-104665051D01*
X139371588Y-104761557D01*
X139400753Y-104771033D01*
X139458426Y-104810468D01*
X139485625Y-104874826D01*
X139473712Y-104943673D01*
X139426469Y-104995149D01*
X139418730Y-104999447D01*
X139287269Y-105066431D01*
X139271466Y-105077912D01*
X139271466Y-105077913D01*
X139760591Y-105567037D01*
X139697007Y-105584075D01*
X139582993Y-105649901D01*
X139489901Y-105742993D01*
X139424075Y-105857007D01*
X139407037Y-105920590D01*
X138917913Y-105431466D01*
X138917912Y-105431466D01*
X138906432Y-105447269D01*
X138824254Y-105608547D01*
X138824251Y-105608555D01*
X138768317Y-105780706D01*
X138740000Y-105959493D01*
X138740000Y-106140506D01*
X138765034Y-106298566D01*
X138756079Y-106367860D01*
X138711083Y-106421312D01*
X138644331Y-106441951D01*
X138577018Y-106423226D01*
X138554880Y-106405645D01*
X137636819Y-105487584D01*
X137603334Y-105426261D01*
X137600500Y-105399903D01*
X137600500Y-102369097D01*
X137620185Y-102302058D01*
X137672989Y-102256303D01*
X137742147Y-102246359D01*
X137805703Y-102275384D01*
G37*
%TD.AperFunction*%
%TA.AperFunction,Conductor*%
G36*
X124438862Y-102132886D02*
G01*
X124494795Y-102174758D01*
X124519212Y-102240222D01*
X124519528Y-102249068D01*
X124519528Y-105279874D01*
X124499843Y-105346913D01*
X124483209Y-105367555D01*
X123457001Y-106393762D01*
X123395678Y-106427247D01*
X123325986Y-106422263D01*
X123270053Y-106380391D01*
X123245636Y-106314927D01*
X123246847Y-106286682D01*
X123270000Y-106140504D01*
X123270000Y-105959493D01*
X123241682Y-105780706D01*
X123185748Y-105608555D01*
X123185747Y-105608552D01*
X123103571Y-105447275D01*
X123103566Y-105447267D01*
X123092085Y-105431466D01*
X122602962Y-105920590D01*
X122585925Y-105857007D01*
X122520099Y-105742993D01*
X122427007Y-105649901D01*
X122312993Y-105584075D01*
X122249409Y-105567037D01*
X122738533Y-105077913D01*
X122722727Y-105066429D01*
X122591269Y-104999447D01*
X122540474Y-104951473D01*
X122523679Y-104883651D01*
X122546217Y-104817517D01*
X122600932Y-104774066D01*
X122609216Y-104771043D01*
X122638412Y-104761557D01*
X122827816Y-104665051D01*
X122888694Y-104620821D01*
X122999786Y-104540109D01*
X122999788Y-104540106D01*
X122999792Y-104540104D01*
X123150104Y-104389792D01*
X123150106Y-104389788D01*
X123150109Y-104389786D01*
X123275048Y-104217820D01*
X123275047Y-104217820D01*
X123275051Y-104217816D01*
X123371557Y-104028412D01*
X123437246Y-103826243D01*
X123470500Y-103616287D01*
X123470500Y-103403713D01*
X123437246Y-103193757D01*
X123421054Y-103143926D01*
X123419060Y-103074086D01*
X123451303Y-103017930D01*
X124307848Y-102161386D01*
X124369170Y-102127902D01*
X124438862Y-102132886D01*
G37*
%TD.AperFunction*%
%TA.AperFunction,Conductor*%
G36*
X121105703Y-104406045D02*
G01*
X121112181Y-104412077D01*
X121240213Y-104540109D01*
X121412179Y-104665048D01*
X121412181Y-104665049D01*
X121412184Y-104665051D01*
X121601588Y-104761557D01*
X121630753Y-104771033D01*
X121688426Y-104810468D01*
X121715625Y-104874826D01*
X121703712Y-104943673D01*
X121656469Y-104995149D01*
X121648730Y-104999447D01*
X121517269Y-105066431D01*
X121501466Y-105077912D01*
X121501466Y-105077913D01*
X121990591Y-105567037D01*
X121927007Y-105584075D01*
X121812993Y-105649901D01*
X121719901Y-105742993D01*
X121654075Y-105857007D01*
X121637037Y-105920590D01*
X121147913Y-105431466D01*
X121147912Y-105431466D01*
X121136432Y-105447269D01*
X121134984Y-105450111D01*
X121134148Y-105450995D01*
X121133889Y-105451419D01*
X121133800Y-105451364D01*
X121087009Y-105500906D01*
X121019188Y-105517701D01*
X120953053Y-105495163D01*
X120909603Y-105440447D01*
X120900500Y-105393815D01*
X120900500Y-104499758D01*
X120920185Y-104432719D01*
X120972989Y-104386964D01*
X121042147Y-104377020D01*
X121105703Y-104406045D01*
G37*
%TD.AperFunction*%
%TA.AperFunction,Conductor*%
G36*
X141018834Y-104393576D02*
G01*
X141074767Y-104435448D01*
X141099184Y-104500912D01*
X141099500Y-104509758D01*
X141099500Y-105376604D01*
X141079815Y-105443643D01*
X141027011Y-105489398D01*
X140957853Y-105499342D01*
X140894297Y-105470317D01*
X140875184Y-105449492D01*
X140862087Y-105431466D01*
X140862085Y-105431466D01*
X140372962Y-105920589D01*
X140355925Y-105857007D01*
X140290099Y-105742993D01*
X140197007Y-105649901D01*
X140082993Y-105584075D01*
X140019409Y-105567037D01*
X140508533Y-105077913D01*
X140492727Y-105066429D01*
X140361269Y-104999447D01*
X140310474Y-104951473D01*
X140293679Y-104883651D01*
X140316217Y-104817517D01*
X140370932Y-104774066D01*
X140379216Y-104771043D01*
X140408412Y-104761557D01*
X140597816Y-104665051D01*
X140658694Y-104620821D01*
X140769786Y-104540109D01*
X140769788Y-104540106D01*
X140769792Y-104540104D01*
X140887819Y-104422077D01*
X140949142Y-104388592D01*
X141018834Y-104393576D01*
G37*
%TD.AperFunction*%
%TA.AperFunction,Conductor*%
G36*
X121654075Y-93542993D02*
G01*
X121719901Y-93657007D01*
X121812993Y-93750099D01*
X121927007Y-93815925D01*
X121990589Y-93832962D01*
X121501466Y-94322085D01*
X121501466Y-94322086D01*
X121517267Y-94333566D01*
X121517275Y-94333571D01*
X121648729Y-94400551D01*
X121699525Y-94448526D01*
X121716320Y-94516347D01*
X121693782Y-94582482D01*
X121639067Y-94625933D01*
X121630761Y-94628964D01*
X121620716Y-94632227D01*
X121601583Y-94638444D01*
X121412179Y-94734951D01*
X121240213Y-94859890D01*
X121240209Y-94859894D01*
X121112181Y-94987923D01*
X121050858Y-95021408D01*
X120981166Y-95016424D01*
X120925233Y-94974552D01*
X120900816Y-94909088D01*
X120900500Y-94900242D01*
X120900500Y-94006185D01*
X120920185Y-93939146D01*
X120972989Y-93893391D01*
X121042147Y-93883447D01*
X121105703Y-93912472D01*
X121134987Y-93949895D01*
X121136430Y-93952728D01*
X121147913Y-93968532D01*
X121147913Y-93968533D01*
X121637037Y-93479409D01*
X121654075Y-93542993D01*
G37*
%TD.AperFunction*%
%TA.AperFunction,Conductor*%
G36*
X140862085Y-93968532D02*
G01*
X140875185Y-93950505D01*
X140930517Y-93907842D01*
X141000131Y-93901866D01*
X141061924Y-93934475D01*
X141096279Y-93995315D01*
X141099500Y-94023395D01*
X141099500Y-94890242D01*
X141079815Y-94957281D01*
X141027011Y-95003036D01*
X140957853Y-95012980D01*
X140894297Y-94983955D01*
X140887819Y-94977923D01*
X140769786Y-94859890D01*
X140597820Y-94734951D01*
X140408414Y-94638444D01*
X140408413Y-94638443D01*
X140408412Y-94638443D01*
X140379246Y-94628966D01*
X140321571Y-94589529D01*
X140294373Y-94525171D01*
X140306288Y-94456324D01*
X140353532Y-94404849D01*
X140361270Y-94400551D01*
X140492732Y-94333566D01*
X140508532Y-94322085D01*
X140019409Y-93832962D01*
X140082993Y-93815925D01*
X140197007Y-93750099D01*
X140290099Y-93657007D01*
X140355925Y-93542993D01*
X140372962Y-93479409D01*
X140862085Y-93968532D01*
G37*
%TD.AperFunction*%
%TA.AperFunction,Conductor*%
G36*
X139020943Y-92200501D02*
G01*
X139151288Y-92200501D01*
X139218327Y-92220186D01*
X139264082Y-92272990D01*
X139264086Y-92273020D01*
X139274905Y-92334231D01*
X139271466Y-92377913D01*
X139760591Y-92867037D01*
X139697007Y-92884075D01*
X139582993Y-92949901D01*
X139489901Y-93042993D01*
X139424075Y-93157007D01*
X139407037Y-93220590D01*
X138917913Y-92731466D01*
X138917912Y-92731466D01*
X138906432Y-92747269D01*
X138824254Y-92908547D01*
X138824251Y-92908555D01*
X138768317Y-93080706D01*
X138740000Y-93259493D01*
X138740000Y-93440506D01*
X138765034Y-93598566D01*
X138756079Y-93667860D01*
X138711083Y-93721312D01*
X138644331Y-93741951D01*
X138577018Y-93723226D01*
X138554880Y-93705645D01*
X137261416Y-92412181D01*
X137227931Y-92350858D01*
X137232915Y-92281166D01*
X137274787Y-92225233D01*
X137340251Y-92200816D01*
X137349097Y-92200500D01*
X139013332Y-92200500D01*
X139020939Y-92200500D01*
X139020943Y-92200501D01*
G37*
%TD.AperFunction*%
%TA.AperFunction,Conductor*%
G36*
X130704918Y-89026507D02*
G01*
X130707870Y-89026719D01*
X130710315Y-89027870D01*
X130711705Y-89028222D01*
X130719360Y-89031370D01*
X130768216Y-89059577D01*
X130824805Y-89074739D01*
X130832177Y-89077772D01*
X130872691Y-89104770D01*
X130889707Y-89121786D01*
X130889711Y-89121789D01*
X131020814Y-89209390D01*
X131020827Y-89209397D01*
X131142411Y-89259758D01*
X131166503Y-89269737D01*
X131319167Y-89300104D01*
X131321153Y-89300499D01*
X131321156Y-89300500D01*
X131321158Y-89300500D01*
X131478844Y-89300500D01*
X131478845Y-89300499D01*
X131633497Y-89269737D01*
X131779179Y-89209394D01*
X131835028Y-89172077D01*
X131910875Y-89121398D01*
X131928921Y-89115747D01*
X131944831Y-89105523D01*
X131975792Y-89101071D01*
X131977553Y-89100520D01*
X131979766Y-89100500D01*
X132007545Y-89100500D01*
X132074584Y-89120185D01*
X132120339Y-89172989D01*
X132129161Y-89200304D01*
X132130970Y-89209397D01*
X132136747Y-89238441D01*
X132136747Y-89238442D01*
X132197086Y-89384116D01*
X132197093Y-89384129D01*
X132284694Y-89515232D01*
X132284697Y-89515236D01*
X132285630Y-89516169D01*
X132285962Y-89516777D01*
X132288560Y-89519943D01*
X132287959Y-89520435D01*
X132319115Y-89577492D01*
X132319566Y-89628041D01*
X132299502Y-89728909D01*
X132299502Y-89886602D01*
X132330263Y-90041245D01*
X132330266Y-90041257D01*
X132390604Y-90186928D01*
X132390611Y-90186941D01*
X132478212Y-90318044D01*
X132478215Y-90318048D01*
X132568284Y-90408117D01*
X132568716Y-90408908D01*
X132569502Y-90409352D01*
X132585433Y-90439523D01*
X132601769Y-90469440D01*
X132601704Y-90470339D01*
X132602126Y-90471137D01*
X132599218Y-90505100D01*
X132596785Y-90539132D01*
X132596218Y-90540152D01*
X132596167Y-90540752D01*
X132594282Y-90543640D01*
X132578821Y-90571490D01*
X132573938Y-90577825D01*
X132519480Y-90632284D01*
X132486306Y-90689744D01*
X132440423Y-90769215D01*
X132399499Y-90921943D01*
X132399499Y-90921945D01*
X132399499Y-91090046D01*
X132399500Y-91090059D01*
X132399500Y-92613444D01*
X132379815Y-92680483D01*
X132327011Y-92726238D01*
X132257853Y-92736182D01*
X132239575Y-92731202D01*
X132239324Y-92732031D01*
X132233500Y-92730264D01*
X132233497Y-92730263D01*
X132233492Y-92730262D01*
X132233489Y-92730261D01*
X132078845Y-92699500D01*
X132078842Y-92699500D01*
X131921158Y-92699500D01*
X131921155Y-92699500D01*
X131766510Y-92730261D01*
X131766498Y-92730264D01*
X131620827Y-92790602D01*
X131620814Y-92790609D01*
X131496501Y-92873673D01*
X131429823Y-92894551D01*
X131362443Y-92876066D01*
X131339929Y-92858252D01*
X131310292Y-92828615D01*
X131310288Y-92828612D01*
X131179185Y-92741011D01*
X131179172Y-92741004D01*
X131033501Y-92680666D01*
X131033489Y-92680663D01*
X130878845Y-92649902D01*
X130878842Y-92649902D01*
X130721158Y-92649902D01*
X130721155Y-92649902D01*
X130566510Y-92680663D01*
X130566498Y-92680666D01*
X130420827Y-92741004D01*
X130420814Y-92741011D01*
X130289711Y-92828612D01*
X130289707Y-92828615D01*
X130178213Y-92940109D01*
X130178210Y-92940113D01*
X130090609Y-93071216D01*
X130090602Y-93071229D01*
X130030264Y-93216900D01*
X130030261Y-93216910D01*
X129999362Y-93372250D01*
X129990596Y-93389006D01*
X129986577Y-93407485D01*
X129967834Y-93432521D01*
X129966977Y-93434161D01*
X129965426Y-93435739D01*
X129917590Y-93483575D01*
X129856267Y-93517060D01*
X129786575Y-93512076D01*
X129784424Y-93511250D01*
X129781570Y-93510124D01*
X129773859Y-93508176D01*
X129774303Y-93506416D01*
X129719271Y-93482815D01*
X129690885Y-93449237D01*
X129680522Y-93431287D01*
X129680521Y-93431286D01*
X129680520Y-93431284D01*
X129568716Y-93319480D01*
X129568715Y-93319479D01*
X129564385Y-93315149D01*
X129564374Y-93315139D01*
X129387590Y-93138355D01*
X129387588Y-93138352D01*
X129268717Y-93019481D01*
X129268716Y-93019480D01*
X129178119Y-92967174D01*
X129129905Y-92916609D01*
X129116681Y-92848002D01*
X129142649Y-92783137D01*
X129192668Y-92745227D01*
X129279170Y-92709397D01*
X129279170Y-92709396D01*
X129279177Y-92709394D01*
X129410287Y-92621789D01*
X129521787Y-92510289D01*
X129609392Y-92379179D01*
X129669735Y-92233497D01*
X129700498Y-92078842D01*
X129700498Y-91921158D01*
X129700498Y-91921155D01*
X129700497Y-91921153D01*
X129669736Y-91766510D01*
X129669735Y-91766503D01*
X129637961Y-91689792D01*
X129609395Y-91620827D01*
X129609388Y-91620814D01*
X129521787Y-91489711D01*
X129521784Y-91489707D01*
X129410290Y-91378213D01*
X129410286Y-91378210D01*
X129279183Y-91290609D01*
X129279174Y-91290604D01*
X129202898Y-91259010D01*
X129148495Y-91215169D01*
X129126430Y-91148875D01*
X129130576Y-91112356D01*
X129153773Y-91025784D01*
X129153773Y-90877992D01*
X129173458Y-90810953D01*
X129174671Y-90809101D01*
X129262663Y-90677412D01*
X129262663Y-90677411D01*
X129262667Y-90677406D01*
X129323010Y-90531724D01*
X129353773Y-90377069D01*
X129353773Y-90219385D01*
X129353773Y-90219382D01*
X129353772Y-90219380D01*
X129323011Y-90064737D01*
X129323010Y-90064730D01*
X129262667Y-89919048D01*
X129256407Y-89909679D01*
X129235530Y-89843004D01*
X129244948Y-89793340D01*
X129269737Y-89733497D01*
X129300500Y-89578842D01*
X129300500Y-89421158D01*
X129300500Y-89421155D01*
X129300499Y-89421153D01*
X129276499Y-89300499D01*
X129269737Y-89266503D01*
X129258114Y-89238442D01*
X129250425Y-89219878D01*
X129242956Y-89150408D01*
X129274232Y-89087929D01*
X129334321Y-89052278D01*
X129404146Y-89054772D01*
X129452668Y-89084746D01*
X129489707Y-89121786D01*
X129489711Y-89121789D01*
X129620814Y-89209390D01*
X129620827Y-89209397D01*
X129742411Y-89259758D01*
X129766503Y-89269737D01*
X129919167Y-89300104D01*
X129921153Y-89300499D01*
X129921156Y-89300500D01*
X129921158Y-89300500D01*
X130078844Y-89300500D01*
X130078845Y-89300499D01*
X130233497Y-89269737D01*
X130379179Y-89209394D01*
X130510289Y-89121789D01*
X130576858Y-89055219D01*
X130594268Y-89045712D01*
X130608757Y-89032156D01*
X130624304Y-89029310D01*
X130638178Y-89021735D01*
X130657969Y-89023150D01*
X130677486Y-89019579D01*
X130704918Y-89026507D01*
G37*
%TD.AperFunction*%
%TA.AperFunction,Conductor*%
G36*
X121105703Y-91706045D02*
G01*
X121112181Y-91712077D01*
X121240213Y-91840109D01*
X121412179Y-91965048D01*
X121412181Y-91965049D01*
X121412184Y-91965051D01*
X121601588Y-92061557D01*
X121630753Y-92071033D01*
X121688426Y-92110468D01*
X121715625Y-92174826D01*
X121703712Y-92243673D01*
X121656469Y-92295149D01*
X121648730Y-92299447D01*
X121517269Y-92366431D01*
X121501466Y-92377912D01*
X121501466Y-92377913D01*
X121990590Y-92867037D01*
X121927007Y-92884075D01*
X121812993Y-92949901D01*
X121719901Y-93042993D01*
X121654075Y-93157007D01*
X121637037Y-93220590D01*
X121147913Y-92731466D01*
X121147912Y-92731466D01*
X121136432Y-92747269D01*
X121134984Y-92750111D01*
X121134148Y-92750995D01*
X121133889Y-92751419D01*
X121133800Y-92751364D01*
X121087009Y-92800906D01*
X121019188Y-92817701D01*
X120953053Y-92795163D01*
X120909603Y-92740447D01*
X120900500Y-92693815D01*
X120900500Y-91799758D01*
X120920185Y-91732719D01*
X120972989Y-91686964D01*
X121042147Y-91677020D01*
X121105703Y-91706045D01*
G37*
%TD.AperFunction*%
%TA.AperFunction,Conductor*%
G36*
X141018834Y-91693576D02*
G01*
X141074767Y-91735448D01*
X141099184Y-91800912D01*
X141099500Y-91809758D01*
X141099500Y-92676604D01*
X141079815Y-92743643D01*
X141027011Y-92789398D01*
X140957853Y-92799342D01*
X140894297Y-92770317D01*
X140875184Y-92749492D01*
X140862087Y-92731466D01*
X140862085Y-92731466D01*
X140372962Y-93220589D01*
X140355925Y-93157007D01*
X140290099Y-93042993D01*
X140197007Y-92949901D01*
X140082993Y-92884075D01*
X140019409Y-92867037D01*
X140508533Y-92377913D01*
X140492727Y-92366429D01*
X140361269Y-92299447D01*
X140310474Y-92251473D01*
X140293679Y-92183651D01*
X140316217Y-92117517D01*
X140370932Y-92074066D01*
X140379216Y-92071043D01*
X140408412Y-92061557D01*
X140597816Y-91965051D01*
X140658237Y-91921153D01*
X140769786Y-91840109D01*
X140769788Y-91840106D01*
X140769792Y-91840104D01*
X140887819Y-91722077D01*
X140949142Y-91688592D01*
X141018834Y-91693576D01*
G37*
%TD.AperFunction*%
%TA.AperFunction,Conductor*%
G36*
X127305703Y-75352350D02*
G01*
X127312179Y-75358380D01*
X129934318Y-77980520D01*
X129934320Y-77980521D01*
X129934324Y-77980524D01*
X130011734Y-78025216D01*
X130071250Y-78059577D01*
X130223977Y-78100501D01*
X130223981Y-78100501D01*
X130229161Y-78101889D01*
X130284748Y-78133983D01*
X130873181Y-78722416D01*
X130906666Y-78783739D01*
X130909500Y-78810097D01*
X130909500Y-79082152D01*
X130889815Y-79149191D01*
X130837011Y-79194946D01*
X130809692Y-79203769D01*
X130676508Y-79230261D01*
X130676498Y-79230264D01*
X130530827Y-79290602D01*
X130530814Y-79290609D01*
X130399125Y-79378602D01*
X130332447Y-79399480D01*
X130330234Y-79399500D01*
X129559062Y-79399500D01*
X129559058Y-79399499D01*
X129400943Y-79399499D01*
X129395823Y-79400870D01*
X129382547Y-79400977D01*
X129355991Y-79393409D01*
X129328701Y-79389153D01*
X129322860Y-79383968D01*
X129315352Y-79381829D01*
X129297102Y-79361105D01*
X129276447Y-79342771D01*
X129274336Y-79335253D01*
X129269176Y-79329393D01*
X129265027Y-79302088D01*
X129257564Y-79275501D01*
X129257937Y-79267251D01*
X129260500Y-79234690D01*
X129260500Y-78765310D01*
X129257643Y-78729007D01*
X129255728Y-78722416D01*
X129212495Y-78573609D01*
X129212494Y-78573606D01*
X129212494Y-78573605D01*
X129130117Y-78434313D01*
X129130115Y-78434311D01*
X129130112Y-78434307D01*
X129015692Y-78319887D01*
X129015684Y-78319881D01*
X128876393Y-78237505D01*
X128876390Y-78237504D01*
X128720997Y-78192357D01*
X128720991Y-78192356D01*
X128684697Y-78189500D01*
X128684690Y-78189500D01*
X128275310Y-78189500D01*
X128275302Y-78189500D01*
X128239008Y-78192356D01*
X128239002Y-78192357D01*
X128083609Y-78237504D01*
X128083606Y-78237505D01*
X127944318Y-78319879D01*
X127944312Y-78319884D01*
X127893143Y-78371051D01*
X127831819Y-78404534D01*
X127772056Y-78400871D01*
X127770000Y-78402330D01*
X127770000Y-78501645D01*
X127752734Y-78564763D01*
X127747507Y-78573600D01*
X127747504Y-78573608D01*
X127702357Y-78729002D01*
X127702356Y-78729008D01*
X127699500Y-78765302D01*
X127699500Y-79234697D01*
X127702356Y-79270991D01*
X127702357Y-79270997D01*
X127747504Y-79426391D01*
X127747507Y-79426399D01*
X127752732Y-79435233D01*
X127757082Y-79451134D01*
X127764977Y-79463419D01*
X127770000Y-79498354D01*
X127770000Y-79501646D01*
X127752734Y-79564764D01*
X127747507Y-79573601D01*
X127747504Y-79573610D01*
X127702357Y-79729002D01*
X127702356Y-79729008D01*
X127699500Y-79765302D01*
X127699500Y-80234697D01*
X127702356Y-80270991D01*
X127702357Y-80270997D01*
X127747504Y-80426391D01*
X127747507Y-80426399D01*
X127752732Y-80435233D01*
X127757082Y-80451134D01*
X127764977Y-80463419D01*
X127770000Y-80498354D01*
X127770000Y-80501646D01*
X127752734Y-80564764D01*
X127747507Y-80573601D01*
X127747504Y-80573610D01*
X127702357Y-80729002D01*
X127702356Y-80729008D01*
X127699500Y-80765302D01*
X127699500Y-81234697D01*
X127702356Y-81270991D01*
X127702357Y-81270997D01*
X127747503Y-81426389D01*
X127747505Y-81426393D01*
X127747506Y-81426395D01*
X127752732Y-81435233D01*
X127770000Y-81498352D01*
X127770000Y-81597668D01*
X127815835Y-81630190D01*
X127859120Y-81685037D01*
X127865880Y-81754579D01*
X127833970Y-81816736D01*
X127831762Y-81819001D01*
X127631286Y-82019478D01*
X127519481Y-82131282D01*
X127519479Y-82131284D01*
X127502962Y-82159894D01*
X127485336Y-82190424D01*
X127440423Y-82268215D01*
X127399499Y-82420943D01*
X127399499Y-82420945D01*
X127399499Y-82589046D01*
X127399500Y-82589059D01*
X127399500Y-83145941D01*
X127399499Y-83145945D01*
X127399499Y-83304059D01*
X127399500Y-83304062D01*
X127399500Y-85699901D01*
X127379815Y-85766940D01*
X127363181Y-85787582D01*
X127312181Y-85838582D01*
X127250858Y-85872067D01*
X127181166Y-85867083D01*
X127125233Y-85825211D01*
X127100816Y-85759747D01*
X127100500Y-85750901D01*
X127100500Y-81713119D01*
X127120185Y-81646080D01*
X127172989Y-81600325D01*
X127242147Y-81590381D01*
X127265456Y-81596078D01*
X127270000Y-81597668D01*
X127270000Y-78402330D01*
X127265455Y-78403921D01*
X127195676Y-78407482D01*
X127135048Y-78372753D01*
X127102821Y-78310760D01*
X127100500Y-78286879D01*
X127100500Y-75446063D01*
X127120185Y-75379024D01*
X127172989Y-75333269D01*
X127242147Y-75323325D01*
X127305703Y-75352350D01*
G37*
%TD.AperFunction*%
%TA.AperFunction,Conductor*%
G36*
X123434863Y-80288655D02*
G01*
X123457001Y-80306236D01*
X123728131Y-80577366D01*
X123761616Y-80638689D01*
X123764450Y-80665047D01*
X123764450Y-84564852D01*
X123744765Y-84631891D01*
X123728131Y-84652533D01*
X123516481Y-84864182D01*
X123516475Y-84864190D01*
X123470395Y-84944003D01*
X123470394Y-84944008D01*
X123454219Y-84972023D01*
X123403652Y-85020237D01*
X123335044Y-85033459D01*
X123270180Y-85007490D01*
X123246515Y-84982906D01*
X123150109Y-84850214D01*
X123150105Y-84850209D01*
X122999786Y-84699890D01*
X122827820Y-84574951D01*
X122827115Y-84574591D01*
X122819054Y-84570485D01*
X122768259Y-84522512D01*
X122751463Y-84454692D01*
X122773999Y-84388556D01*
X122819054Y-84349515D01*
X122827816Y-84345051D01*
X122849789Y-84329086D01*
X122999786Y-84220109D01*
X122999788Y-84220106D01*
X122999792Y-84220104D01*
X123150104Y-84069792D01*
X123150106Y-84069788D01*
X123150109Y-84069786D01*
X123268028Y-83907483D01*
X123275051Y-83897816D01*
X123371557Y-83708412D01*
X123437246Y-83506243D01*
X123470500Y-83296287D01*
X123470500Y-83083713D01*
X123437246Y-82873757D01*
X123371557Y-82671588D01*
X123275051Y-82482184D01*
X123275049Y-82482181D01*
X123275048Y-82482179D01*
X123150109Y-82310213D01*
X122999786Y-82159890D01*
X122827820Y-82034951D01*
X122638414Y-81938444D01*
X122638413Y-81938443D01*
X122638412Y-81938443D01*
X122609246Y-81928966D01*
X122551571Y-81889529D01*
X122524373Y-81825171D01*
X122536288Y-81756324D01*
X122583532Y-81704849D01*
X122591270Y-81700551D01*
X122722732Y-81633566D01*
X122738532Y-81622085D01*
X122738533Y-81622085D01*
X122249410Y-81132962D01*
X122312993Y-81115925D01*
X122427007Y-81050099D01*
X122520099Y-80957007D01*
X122585925Y-80842993D01*
X122602962Y-80779409D01*
X123092085Y-81268532D01*
X123103568Y-81252730D01*
X123185745Y-81091452D01*
X123185748Y-81091444D01*
X123241682Y-80919293D01*
X123270000Y-80740506D01*
X123270000Y-80559494D01*
X123246847Y-80413315D01*
X123255801Y-80344022D01*
X123300797Y-80290570D01*
X123367549Y-80269930D01*
X123434863Y-80288655D01*
G37*
%TD.AperFunction*%
%TA.AperFunction,Conductor*%
G36*
X138740756Y-64471185D02*
G01*
X138786511Y-64523989D01*
X138796455Y-64593147D01*
X138774036Y-64648385D01*
X138734948Y-64702184D01*
X138638444Y-64891585D01*
X138572753Y-65093760D01*
X138539500Y-65303713D01*
X138539500Y-65516286D01*
X138564012Y-65671052D01*
X138572754Y-65726243D01*
X138619473Y-65870030D01*
X138638444Y-65928414D01*
X138734951Y-66117820D01*
X138859890Y-66289786D01*
X139010213Y-66440109D01*
X139182179Y-66565048D01*
X139182181Y-66565049D01*
X139182184Y-66565051D01*
X139371588Y-66661557D01*
X139400753Y-66671033D01*
X139458426Y-66710468D01*
X139485625Y-66774826D01*
X139473712Y-66843673D01*
X139426469Y-66895149D01*
X139418730Y-66899447D01*
X139287269Y-66966431D01*
X139271466Y-66977912D01*
X139271466Y-66977913D01*
X139760591Y-67467037D01*
X139697007Y-67484075D01*
X139582993Y-67549901D01*
X139489901Y-67642993D01*
X139424075Y-67757007D01*
X139407037Y-67820590D01*
X138917912Y-67331466D01*
X138906432Y-67347269D01*
X138824254Y-67508547D01*
X138824251Y-67508555D01*
X138768317Y-67680706D01*
X138740000Y-67859493D01*
X138740000Y-68040506D01*
X138768317Y-68219293D01*
X138824251Y-68391444D01*
X138824252Y-68391447D01*
X138906431Y-68552730D01*
X138917913Y-68568532D01*
X138917913Y-68568533D01*
X139407037Y-68079409D01*
X139424075Y-68142993D01*
X139489901Y-68257007D01*
X139582993Y-68350099D01*
X139697007Y-68415925D01*
X139760590Y-68432962D01*
X139271466Y-68922085D01*
X139271466Y-68922086D01*
X139287267Y-68933566D01*
X139287275Y-68933571D01*
X139418729Y-69000551D01*
X139469525Y-69048526D01*
X139486320Y-69116347D01*
X139463782Y-69182482D01*
X139409067Y-69225933D01*
X139400761Y-69228964D01*
X139390716Y-69232227D01*
X139371583Y-69238444D01*
X139182179Y-69334951D01*
X139010213Y-69459890D01*
X138859890Y-69610213D01*
X138734951Y-69782179D01*
X138638444Y-69971585D01*
X138572753Y-70173760D01*
X138539500Y-70383713D01*
X138539500Y-70596286D01*
X138571391Y-70797642D01*
X138572754Y-70806243D01*
X138603055Y-70899500D01*
X138638444Y-71008414D01*
X138734951Y-71197820D01*
X138859890Y-71369786D01*
X139010213Y-71520109D01*
X139182182Y-71645050D01*
X139190946Y-71649516D01*
X139241742Y-71697491D01*
X139258536Y-71765312D01*
X139235998Y-71831447D01*
X139190946Y-71870484D01*
X139182182Y-71874949D01*
X139010213Y-71999890D01*
X138859890Y-72150213D01*
X138734948Y-72322184D01*
X138734947Y-72322185D01*
X138714765Y-72361795D01*
X138666791Y-72412591D01*
X138604281Y-72429500D01*
X136856745Y-72429500D01*
X136789706Y-72409815D01*
X136743951Y-72357011D01*
X136734007Y-72287853D01*
X136737604Y-72271203D01*
X136737643Y-72270991D01*
X136740500Y-72234690D01*
X136740500Y-71765310D01*
X136737643Y-71729007D01*
X136714548Y-71649516D01*
X136692496Y-71573611D01*
X136692495Y-71573610D01*
X136692494Y-71573605D01*
X136686292Y-71563119D01*
X136669110Y-71495400D01*
X136686292Y-71436881D01*
X136692494Y-71426395D01*
X136737643Y-71270993D01*
X136740500Y-71234690D01*
X136740500Y-70765310D01*
X136737643Y-70729007D01*
X136732954Y-70712869D01*
X136692496Y-70573611D01*
X136692495Y-70573610D01*
X136692494Y-70573605D01*
X136686292Y-70563119D01*
X136669110Y-70495400D01*
X136686292Y-70436881D01*
X136692494Y-70426395D01*
X136710499Y-70364423D01*
X136737642Y-70270997D01*
X136737643Y-70270991D01*
X136740499Y-70234697D01*
X136740500Y-70234690D01*
X136740500Y-69765310D01*
X136737643Y-69729007D01*
X136719883Y-69667879D01*
X136693831Y-69578207D01*
X136692494Y-69573605D01*
X136610117Y-69434313D01*
X136610115Y-69434311D01*
X136610112Y-69434307D01*
X136495692Y-69319887D01*
X136495684Y-69319881D01*
X136356393Y-69237505D01*
X136356390Y-69237504D01*
X136200997Y-69192357D01*
X136200991Y-69192356D01*
X136164697Y-69189500D01*
X136164690Y-69189500D01*
X135755310Y-69189500D01*
X135755302Y-69189500D01*
X135719008Y-69192356D01*
X135719002Y-69192357D01*
X135563609Y-69237504D01*
X135563606Y-69237505D01*
X135424318Y-69319879D01*
X135424312Y-69319884D01*
X135373143Y-69371051D01*
X135311819Y-69404534D01*
X135252056Y-69400871D01*
X135250000Y-69402330D01*
X135250000Y-69501645D01*
X135232734Y-69564763D01*
X135227507Y-69573600D01*
X135227504Y-69573608D01*
X135182357Y-69729002D01*
X135182356Y-69729008D01*
X135179500Y-69765302D01*
X135179500Y-70234697D01*
X135182356Y-70270991D01*
X135182357Y-70270997D01*
X135227504Y-70426391D01*
X135227507Y-70426399D01*
X135232732Y-70435233D01*
X135237082Y-70451134D01*
X135244977Y-70463419D01*
X135250000Y-70498354D01*
X135250000Y-70501646D01*
X135232734Y-70564764D01*
X135227507Y-70573601D01*
X135227504Y-70573610D01*
X135182357Y-70729002D01*
X135182356Y-70729008D01*
X135179500Y-70765302D01*
X135179500Y-71234697D01*
X135182356Y-71270991D01*
X135182357Y-71270997D01*
X135227504Y-71426391D01*
X135227507Y-71426399D01*
X135232732Y-71435233D01*
X135237082Y-71451134D01*
X135244977Y-71463419D01*
X135250000Y-71498354D01*
X135250000Y-71501646D01*
X135232734Y-71564764D01*
X135227507Y-71573601D01*
X135227504Y-71573610D01*
X135182357Y-71729002D01*
X135182356Y-71729008D01*
X135179500Y-71765302D01*
X135179500Y-72234697D01*
X135182356Y-72270991D01*
X135182357Y-72270997D01*
X135227503Y-72426389D01*
X135227505Y-72426393D01*
X135227506Y-72426395D01*
X135232732Y-72435233D01*
X135237082Y-72451132D01*
X135244977Y-72463417D01*
X135250000Y-72498352D01*
X135250000Y-72531645D01*
X135232734Y-72594763D01*
X135227507Y-72603600D01*
X135227504Y-72603608D01*
X135182357Y-72759002D01*
X135182356Y-72759008D01*
X135179500Y-72795302D01*
X135179500Y-73264697D01*
X135182356Y-73300991D01*
X135182357Y-73300997D01*
X135227504Y-73456391D01*
X135230605Y-73463557D01*
X135228077Y-73464650D01*
X135242016Y-73519623D01*
X135228535Y-73565548D01*
X135230605Y-73566444D01*
X135227504Y-73573610D01*
X135182357Y-73729002D01*
X135182356Y-73729008D01*
X135179500Y-73765302D01*
X135179500Y-74234697D01*
X135182356Y-74270991D01*
X135182357Y-74270997D01*
X135227504Y-74426391D01*
X135227507Y-74426399D01*
X135232732Y-74435233D01*
X135237082Y-74451134D01*
X135244977Y-74463419D01*
X135250000Y-74498354D01*
X135250000Y-74501646D01*
X135232734Y-74564764D01*
X135227507Y-74573601D01*
X135227504Y-74573610D01*
X135182357Y-74729002D01*
X135182356Y-74729008D01*
X135179500Y-74765302D01*
X135179500Y-75234697D01*
X135182356Y-75270991D01*
X135182357Y-75270997D01*
X135227504Y-75426391D01*
X135227507Y-75426399D01*
X135232732Y-75435233D01*
X135237082Y-75451134D01*
X135244977Y-75463419D01*
X135250000Y-75498354D01*
X135250000Y-75501646D01*
X135232734Y-75564764D01*
X135227507Y-75573601D01*
X135227504Y-75573610D01*
X135182357Y-75729002D01*
X135182356Y-75729008D01*
X135179500Y-75765302D01*
X135179500Y-76234697D01*
X135182356Y-76270991D01*
X135182357Y-76270997D01*
X135227504Y-76426391D01*
X135227507Y-76426399D01*
X135232732Y-76435233D01*
X135237082Y-76451134D01*
X135244977Y-76463419D01*
X135250000Y-76498354D01*
X135250000Y-76501646D01*
X135232734Y-76564764D01*
X135227507Y-76573601D01*
X135227504Y-76573610D01*
X135182357Y-76729002D01*
X135182356Y-76729008D01*
X135179500Y-76765302D01*
X135179500Y-77234697D01*
X135182356Y-77270991D01*
X135182357Y-77270997D01*
X135227504Y-77426391D01*
X135227507Y-77426399D01*
X135232732Y-77435233D01*
X135237082Y-77451134D01*
X135244977Y-77463419D01*
X135250000Y-77498354D01*
X135250000Y-77501646D01*
X135232734Y-77564764D01*
X135227507Y-77573601D01*
X135227504Y-77573610D01*
X135182357Y-77729002D01*
X135182356Y-77729008D01*
X135179500Y-77765302D01*
X135179500Y-78234697D01*
X135182356Y-78270991D01*
X135182357Y-78270997D01*
X135227504Y-78426390D01*
X135230603Y-78433551D01*
X135227489Y-78434898D01*
X135240890Y-78487666D01*
X135223707Y-78546210D01*
X135207506Y-78573603D01*
X135207504Y-78573610D01*
X135162357Y-78729002D01*
X135162356Y-78729008D01*
X135159500Y-78765302D01*
X135159500Y-79234697D01*
X135162356Y-79270991D01*
X135162357Y-79270997D01*
X135207503Y-79426389D01*
X135207505Y-79426393D01*
X135207506Y-79426395D01*
X135212732Y-79435233D01*
X135230000Y-79498352D01*
X135230000Y-79597668D01*
X135282245Y-79634738D01*
X135281996Y-79635088D01*
X135304937Y-79648225D01*
X135337175Y-79710213D01*
X135339500Y-79734114D01*
X135339500Y-80010030D01*
X135319815Y-80077069D01*
X135318602Y-80078921D01*
X135290609Y-80120814D01*
X135290602Y-80120827D01*
X135230264Y-80266498D01*
X135230261Y-80266510D01*
X135199500Y-80421153D01*
X135199500Y-80578846D01*
X135230261Y-80733489D01*
X135230264Y-80733501D01*
X135290602Y-80879172D01*
X135290609Y-80879185D01*
X135378210Y-81010288D01*
X135378213Y-81010292D01*
X135489707Y-81121786D01*
X135489711Y-81121789D01*
X135620814Y-81209390D01*
X135620827Y-81209397D01*
X135720072Y-81250505D01*
X135766503Y-81269737D01*
X135921153Y-81300499D01*
X135921156Y-81300500D01*
X135921158Y-81300500D01*
X136078844Y-81300500D01*
X136078845Y-81300499D01*
X136233497Y-81269737D01*
X136379179Y-81209394D01*
X136510289Y-81121789D01*
X136621789Y-81010289D01*
X136709394Y-80879179D01*
X136769737Y-80733497D01*
X136800500Y-80578842D01*
X136800500Y-80421158D01*
X136800500Y-80421155D01*
X136800499Y-80421153D01*
X136798940Y-80413315D01*
X136769737Y-80266503D01*
X136756560Y-80234690D01*
X136709397Y-80120827D01*
X136709390Y-80120814D01*
X136621789Y-79989711D01*
X136621786Y-79989707D01*
X136576819Y-79944740D01*
X136562115Y-79917812D01*
X136545523Y-79891994D01*
X136544631Y-79885793D01*
X136543334Y-79883417D01*
X136540500Y-79857059D01*
X136540500Y-79666666D01*
X136560185Y-79599627D01*
X136576816Y-79578987D01*
X136590117Y-79565687D01*
X136672494Y-79426395D01*
X136717643Y-79270993D01*
X136720500Y-79234690D01*
X136720500Y-78765310D01*
X136717643Y-78729007D01*
X136715728Y-78722416D01*
X136672495Y-78573609D01*
X136672494Y-78573606D01*
X136672494Y-78573605D01*
X136672491Y-78573600D01*
X136669397Y-78566449D01*
X136672528Y-78565093D01*
X136659105Y-78512463D01*
X136676294Y-78453787D01*
X136687465Y-78434898D01*
X136692494Y-78426395D01*
X136737643Y-78270993D01*
X136740500Y-78234690D01*
X136740500Y-77765310D01*
X136737643Y-77729007D01*
X136728425Y-77697280D01*
X136692496Y-77573611D01*
X136692495Y-77573610D01*
X136692494Y-77573605D01*
X136686292Y-77563119D01*
X136669110Y-77495400D01*
X136686292Y-77436881D01*
X136692494Y-77426395D01*
X136737643Y-77270993D01*
X136740500Y-77234690D01*
X136740500Y-76765310D01*
X136737643Y-76729007D01*
X136736493Y-76725050D01*
X136692496Y-76573611D01*
X136692495Y-76573610D01*
X136692494Y-76573605D01*
X136686292Y-76563119D01*
X136669110Y-76495400D01*
X136686292Y-76436881D01*
X136692494Y-76426395D01*
X136737643Y-76270993D01*
X136740500Y-76234690D01*
X136740500Y-75765310D01*
X136737643Y-75729007D01*
X136722326Y-75676287D01*
X136692496Y-75573611D01*
X136692495Y-75573610D01*
X136692494Y-75573605D01*
X136686292Y-75563119D01*
X136669110Y-75495400D01*
X136686292Y-75436881D01*
X136692494Y-75426395D01*
X136737643Y-75270993D01*
X136740500Y-75234690D01*
X136740500Y-74765310D01*
X136737643Y-74729007D01*
X136726372Y-74690213D01*
X136692496Y-74573611D01*
X136692495Y-74573610D01*
X136692494Y-74573605D01*
X136686292Y-74563119D01*
X136669110Y-74495400D01*
X136686292Y-74436881D01*
X136692494Y-74426395D01*
X136737643Y-74270993D01*
X136740500Y-74234690D01*
X136740500Y-73765310D01*
X136740465Y-73764874D01*
X136740415Y-73764223D01*
X136740450Y-73764054D01*
X136740404Y-73762872D01*
X136740701Y-73762860D01*
X136754782Y-73695847D01*
X136803836Y-73646092D01*
X136864033Y-73630500D01*
X138604281Y-73630500D01*
X138671320Y-73650185D01*
X138714765Y-73698205D01*
X138734947Y-73737814D01*
X138734948Y-73737815D01*
X138859890Y-73909786D01*
X139010213Y-74060109D01*
X139182182Y-74185050D01*
X139190946Y-74189516D01*
X139241742Y-74237491D01*
X139258536Y-74305312D01*
X139235998Y-74371447D01*
X139190946Y-74410484D01*
X139182182Y-74414949D01*
X139010213Y-74539890D01*
X138859890Y-74690213D01*
X138734951Y-74862179D01*
X138638442Y-75051587D01*
X138614992Y-75123758D01*
X138575554Y-75181433D01*
X138511195Y-75208630D01*
X138472871Y-75207055D01*
X138434889Y-75199500D01*
X138434885Y-75199500D01*
X138277201Y-75199500D01*
X138277198Y-75199500D01*
X138122553Y-75230261D01*
X138122541Y-75230264D01*
X137976870Y-75290602D01*
X137976857Y-75290609D01*
X137845754Y-75378210D01*
X137845750Y-75378213D01*
X137734256Y-75489707D01*
X137734253Y-75489711D01*
X137646652Y-75620814D01*
X137646645Y-75620827D01*
X137586307Y-75766498D01*
X137586304Y-75766510D01*
X137555543Y-75921153D01*
X137555543Y-76078846D01*
X137586304Y-76233489D01*
X137586307Y-76233501D01*
X137646645Y-76379172D01*
X137646652Y-76379185D01*
X137734644Y-76510873D01*
X137755522Y-76577550D01*
X137755542Y-76579764D01*
X137755542Y-76655097D01*
X137755541Y-76655097D01*
X137755542Y-76655100D01*
X137775481Y-76729514D01*
X137796466Y-76807827D01*
X137796466Y-76807828D01*
X137824415Y-76856237D01*
X137875520Y-76944755D01*
X137875524Y-76944760D01*
X137994392Y-77063628D01*
X137994398Y-77063633D01*
X138556241Y-77625476D01*
X138589726Y-77686799D01*
X138586492Y-77751473D01*
X138572753Y-77793757D01*
X138547000Y-77956359D01*
X138539500Y-78003713D01*
X138539500Y-78216287D01*
X138542861Y-78237505D01*
X138569782Y-78407482D01*
X138572754Y-78426243D01*
X138620636Y-78573609D01*
X138638444Y-78628414D01*
X138734951Y-78817820D01*
X138859890Y-78989786D01*
X139010213Y-79140109D01*
X139182179Y-79265048D01*
X139182181Y-79265049D01*
X139182184Y-79265051D01*
X139371588Y-79361557D01*
X139400753Y-79371033D01*
X139458426Y-79410468D01*
X139485625Y-79474826D01*
X139473712Y-79543673D01*
X139426469Y-79595149D01*
X139418730Y-79599447D01*
X139287269Y-79666431D01*
X139271466Y-79677912D01*
X139271466Y-79677913D01*
X139760591Y-80167037D01*
X139697007Y-80184075D01*
X139582993Y-80249901D01*
X139489901Y-80342993D01*
X139424075Y-80457007D01*
X139407037Y-80520590D01*
X138917912Y-80031466D01*
X138906432Y-80047269D01*
X138824254Y-80208547D01*
X138824251Y-80208555D01*
X138768317Y-80380706D01*
X138740000Y-80559493D01*
X138740000Y-80740506D01*
X138768317Y-80919293D01*
X138824251Y-81091444D01*
X138824252Y-81091447D01*
X138906431Y-81252730D01*
X138917913Y-81268532D01*
X138917913Y-81268533D01*
X139407037Y-80779409D01*
X139424075Y-80842993D01*
X139489901Y-80957007D01*
X139582993Y-81050099D01*
X139697007Y-81115925D01*
X139760590Y-81132962D01*
X139271466Y-81622085D01*
X139271466Y-81622086D01*
X139287267Y-81633566D01*
X139287275Y-81633571D01*
X139418729Y-81700551D01*
X139469525Y-81748526D01*
X139486320Y-81816347D01*
X139463782Y-81882482D01*
X139409067Y-81925933D01*
X139400761Y-81928964D01*
X139390716Y-81932227D01*
X139371583Y-81938444D01*
X139182179Y-82034951D01*
X139010213Y-82159890D01*
X138859890Y-82310213D01*
X138734951Y-82482179D01*
X138638444Y-82671585D01*
X138572753Y-82873760D01*
X138572752Y-82873761D01*
X138557459Y-82970327D01*
X138527530Y-83033462D01*
X138468219Y-83070394D01*
X138434986Y-83074930D01*
X138277198Y-83074930D01*
X138122553Y-83105691D01*
X138122541Y-83105694D01*
X137976870Y-83166032D01*
X137976857Y-83166039D01*
X137845754Y-83253640D01*
X137845750Y-83253643D01*
X137734256Y-83365137D01*
X137734254Y-83365140D01*
X137719509Y-83387207D01*
X137703342Y-83400716D01*
X137690718Y-83417581D01*
X137677071Y-83422670D01*
X137665895Y-83432011D01*
X137644992Y-83434636D01*
X137625254Y-83441998D01*
X137611022Y-83438902D01*
X137596570Y-83440717D01*
X137577564Y-83431623D01*
X137556981Y-83427146D01*
X137537099Y-83412262D01*
X137533543Y-83410561D01*
X137528727Y-83405995D01*
X137439061Y-83316329D01*
X137439059Y-83316326D01*
X137309817Y-83187084D01*
X137309816Y-83187083D01*
X137223004Y-83136963D01*
X137223004Y-83136962D01*
X137223000Y-83136961D01*
X137172885Y-83108026D01*
X137172884Y-83108025D01*
X137172883Y-83108025D01*
X137172882Y-83108024D01*
X137126261Y-83095532D01*
X137070675Y-83063439D01*
X133257236Y-79250000D01*
X134402532Y-79250000D01*
X134402787Y-79252729D01*
X134446594Y-79377919D01*
X134525358Y-79484641D01*
X134632077Y-79563403D01*
X134730000Y-79597668D01*
X134730000Y-79250000D01*
X134402532Y-79250000D01*
X133257236Y-79250000D01*
X132948819Y-78941583D01*
X132934115Y-78914655D01*
X132917523Y-78888837D01*
X132916631Y-78882636D01*
X132915334Y-78880260D01*
X132912500Y-78853902D01*
X132912500Y-78749999D01*
X134402530Y-78749999D01*
X134402531Y-78750000D01*
X134730000Y-78750000D01*
X134730000Y-78331362D01*
X134749685Y-78264323D01*
X134750000Y-78263932D01*
X134750000Y-78250000D01*
X134422532Y-78250000D01*
X134422787Y-78252729D01*
X134466594Y-78377919D01*
X134492349Y-78412816D01*
X134516320Y-78478445D01*
X134501005Y-78546615D01*
X134492350Y-78560083D01*
X134446594Y-78622080D01*
X134402787Y-78747272D01*
X134402786Y-78747274D01*
X134402530Y-78749999D01*
X132912500Y-78749999D01*
X132912500Y-78098746D01*
X132912500Y-78098743D01*
X132892799Y-78025215D01*
X132871577Y-77946015D01*
X132826948Y-77868716D01*
X132792520Y-77809084D01*
X132733435Y-77749999D01*
X134422530Y-77749999D01*
X134422531Y-77750000D01*
X134750000Y-77750000D01*
X134750000Y-77250000D01*
X134422532Y-77250000D01*
X134422787Y-77252729D01*
X134466595Y-77377921D01*
X134466595Y-77377922D01*
X134502349Y-77426367D01*
X134526320Y-77491996D01*
X134511004Y-77560166D01*
X134502349Y-77573633D01*
X134466595Y-77622077D01*
X134466595Y-77622078D01*
X134422787Y-77747272D01*
X134422786Y-77747274D01*
X134422530Y-77749999D01*
X132733435Y-77749999D01*
X132680716Y-77697280D01*
X132680715Y-77697279D01*
X132676385Y-77692949D01*
X132676374Y-77692939D01*
X131733434Y-76749999D01*
X134422530Y-76749999D01*
X134422531Y-76750000D01*
X134750000Y-76750000D01*
X134750000Y-76250000D01*
X134422532Y-76250000D01*
X134422787Y-76252729D01*
X134466595Y-76377921D01*
X134466595Y-76377922D01*
X134502349Y-76426367D01*
X134526320Y-76491996D01*
X134511004Y-76560166D01*
X134502349Y-76573633D01*
X134466595Y-76622077D01*
X134466595Y-76622078D01*
X134422787Y-76747272D01*
X134422786Y-76747274D01*
X134422530Y-76749999D01*
X131733434Y-76749999D01*
X131361819Y-76378384D01*
X131328334Y-76317061D01*
X131325500Y-76290703D01*
X131325500Y-75749999D01*
X134422530Y-75749999D01*
X134422531Y-75750000D01*
X134750000Y-75750000D01*
X134750000Y-75250000D01*
X134422532Y-75250000D01*
X134422787Y-75252729D01*
X134466595Y-75377921D01*
X134466595Y-75377922D01*
X134502349Y-75426367D01*
X134526320Y-75491996D01*
X134511004Y-75560166D01*
X134502349Y-75573633D01*
X134466595Y-75622077D01*
X134466595Y-75622078D01*
X134422787Y-75747272D01*
X134422786Y-75747274D01*
X134422530Y-75749999D01*
X131325500Y-75749999D01*
X131325500Y-74749999D01*
X134422530Y-74749999D01*
X134422531Y-74750000D01*
X134750000Y-74750000D01*
X134750000Y-74250000D01*
X134422532Y-74250000D01*
X134422787Y-74252729D01*
X134466595Y-74377921D01*
X134466595Y-74377922D01*
X134502349Y-74426367D01*
X134526320Y-74491996D01*
X134511004Y-74560166D01*
X134502349Y-74573633D01*
X134466595Y-74622077D01*
X134466595Y-74622078D01*
X134422787Y-74747272D01*
X134422786Y-74747274D01*
X134422530Y-74749999D01*
X131325500Y-74749999D01*
X131325500Y-73749999D01*
X134422530Y-73749999D01*
X134422531Y-73750000D01*
X134750000Y-73750000D01*
X134750000Y-73280000D01*
X134422532Y-73280000D01*
X134422787Y-73282729D01*
X134466594Y-73407919D01*
X134491279Y-73441366D01*
X134515250Y-73506995D01*
X134499935Y-73575165D01*
X134491279Y-73588634D01*
X134466594Y-73622080D01*
X134422787Y-73747272D01*
X134422786Y-73747274D01*
X134422530Y-73749999D01*
X131325500Y-73749999D01*
X131325500Y-72779999D01*
X134422530Y-72779999D01*
X134422531Y-72780000D01*
X134750000Y-72780000D01*
X134750000Y-72250000D01*
X134422532Y-72250000D01*
X134422787Y-72252729D01*
X134466594Y-72377919D01*
X134513420Y-72441366D01*
X134537391Y-72506995D01*
X134522076Y-72575165D01*
X134513420Y-72588634D01*
X134466594Y-72652080D01*
X134422787Y-72777272D01*
X134422786Y-72777274D01*
X134422530Y-72779999D01*
X131325500Y-72779999D01*
X131325500Y-71749999D01*
X134422530Y-71749999D01*
X134422531Y-71750000D01*
X134750000Y-71750000D01*
X134750000Y-71250000D01*
X134422532Y-71250000D01*
X134422787Y-71252729D01*
X134466595Y-71377921D01*
X134466595Y-71377922D01*
X134502349Y-71426367D01*
X134526320Y-71491996D01*
X134511004Y-71560166D01*
X134502349Y-71573633D01*
X134466595Y-71622077D01*
X134466595Y-71622078D01*
X134422787Y-71747272D01*
X134422786Y-71747274D01*
X134422530Y-71749999D01*
X131325500Y-71749999D01*
X131325500Y-71260000D01*
X131894378Y-71260000D01*
X131926065Y-71350557D01*
X131926066Y-71350559D01*
X132003934Y-71456065D01*
X132109438Y-71533931D01*
X132233219Y-71577244D01*
X132249999Y-71578817D01*
X132750000Y-71578817D01*
X132766780Y-71577244D01*
X132890561Y-71533931D01*
X132946591Y-71492579D01*
X133012219Y-71468607D01*
X133080390Y-71483922D01*
X133093860Y-71492578D01*
X133122080Y-71513405D01*
X133247271Y-71557212D01*
X133247269Y-71557212D01*
X133250000Y-71557467D01*
X133750000Y-71557467D01*
X133752729Y-71557212D01*
X133877919Y-71513405D01*
X133984641Y-71434641D01*
X134063403Y-71327922D01*
X134097668Y-71230000D01*
X133750000Y-71230000D01*
X133750000Y-71557467D01*
X133250000Y-71557467D01*
X133250000Y-71260000D01*
X132750000Y-71260000D01*
X132750000Y-71578817D01*
X132249999Y-71578817D01*
X132250000Y-71578816D01*
X132250000Y-71260000D01*
X131894378Y-71260000D01*
X131325500Y-71260000D01*
X131325500Y-69595500D01*
X131345185Y-69528461D01*
X131397989Y-69482706D01*
X131449500Y-69471500D01*
X131599488Y-69471500D01*
X131666527Y-69491185D01*
X131712282Y-69543989D01*
X131722226Y-69613147D01*
X131718564Y-69630095D01*
X131682335Y-69754791D01*
X131682334Y-69754797D01*
X131679500Y-69790811D01*
X131679500Y-70189169D01*
X131679501Y-70189191D01*
X131682335Y-70225205D01*
X131727129Y-70379388D01*
X131727131Y-70379393D01*
X131808863Y-70517595D01*
X131808869Y-70517603D01*
X131879951Y-70588685D01*
X131913436Y-70650008D01*
X131909312Y-70717320D01*
X131894378Y-70759999D01*
X131894378Y-70760000D01*
X132239591Y-70760000D01*
X132249318Y-70760382D01*
X132249516Y-70760397D01*
X132250819Y-70760500D01*
X132749180Y-70760499D01*
X132785204Y-70757665D01*
X132839052Y-70742020D01*
X132863480Y-70734924D01*
X132898075Y-70730000D01*
X133001646Y-70730000D01*
X133064767Y-70747268D01*
X133073600Y-70752492D01*
X133073608Y-70752495D01*
X133229002Y-70797642D01*
X133229005Y-70797642D01*
X133229007Y-70797643D01*
X133265310Y-70800500D01*
X133265318Y-70800500D01*
X133734682Y-70800500D01*
X133734690Y-70800500D01*
X133770993Y-70797643D01*
X133770995Y-70797642D01*
X133770997Y-70797642D01*
X133926389Y-70752496D01*
X133926389Y-70752495D01*
X133926395Y-70752494D01*
X133935233Y-70747267D01*
X133998352Y-70730000D01*
X134097669Y-70730000D01*
X134099199Y-70727842D01*
X134096028Y-70665710D01*
X134128949Y-70606854D01*
X134180117Y-70555687D01*
X134262494Y-70416395D01*
X134262497Y-70416383D01*
X134262832Y-70415612D01*
X134263263Y-70415093D01*
X134266465Y-70409680D01*
X134267015Y-70410005D01*
X134268211Y-70404685D01*
X134288918Y-70384256D01*
X134307518Y-70361901D01*
X134313490Y-70360016D01*
X134317951Y-70355616D01*
X134346415Y-70349626D01*
X134374149Y-70340875D01*
X134380193Y-70342518D01*
X134386324Y-70341229D01*
X134413504Y-70351577D01*
X134441570Y-70359210D01*
X134447245Y-70364423D01*
X134451621Y-70366090D01*
X134476407Y-70391216D01*
X134502349Y-70426366D01*
X134526320Y-70491995D01*
X134511005Y-70560165D01*
X134502349Y-70573633D01*
X134466595Y-70622077D01*
X134466595Y-70622078D01*
X134422787Y-70747272D01*
X134422786Y-70747274D01*
X134422530Y-70749999D01*
X134422531Y-70750000D01*
X134750000Y-70750000D01*
X134750000Y-69402330D01*
X134749999Y-69402330D01*
X134652079Y-69436594D01*
X134545360Y-69515357D01*
X134463975Y-69625629D01*
X134408327Y-69667879D01*
X134338670Y-69673336D01*
X134277121Y-69640269D01*
X134257473Y-69615115D01*
X134180119Y-69484316D01*
X134180112Y-69484307D01*
X134086819Y-69391014D01*
X134053334Y-69329691D01*
X134050500Y-69303333D01*
X134050500Y-69032320D01*
X134070185Y-68965281D01*
X134100192Y-68933051D01*
X134100502Y-68932819D01*
X134107546Y-68927546D01*
X134193796Y-68812331D01*
X134244091Y-68677483D01*
X134250500Y-68617873D01*
X134250499Y-67968998D01*
X134253049Y-67960313D01*
X134251761Y-67951353D01*
X134262738Y-67927316D01*
X134270183Y-67901961D01*
X134277025Y-67896032D01*
X134280786Y-67887797D01*
X134303017Y-67873510D01*
X134322987Y-67856206D01*
X134333502Y-67853918D01*
X134339564Y-67850023D01*
X134374499Y-67845000D01*
X134376000Y-67845000D01*
X134443039Y-67864685D01*
X134488794Y-67917489D01*
X134500000Y-67969000D01*
X134500000Y-68869999D01*
X134594786Y-68869999D01*
X134594808Y-68869997D01*
X134619869Y-68867091D01*
X134619873Y-68867090D01*
X134722474Y-68821788D01*
X134722479Y-68821785D01*
X134801785Y-68742479D01*
X134801788Y-68742474D01*
X134847089Y-68639877D01*
X134847089Y-68639875D01*
X134849999Y-68614794D01*
X134849999Y-68336812D01*
X134869683Y-68269773D01*
X134922487Y-68224018D01*
X134991646Y-68214074D01*
X135021451Y-68222251D01*
X135069999Y-68242360D01*
X135070000Y-68242360D01*
X135070000Y-67646988D01*
X135079940Y-67664205D01*
X135135795Y-67720060D01*
X135204204Y-67759556D01*
X135280504Y-67780000D01*
X135359496Y-67780000D01*
X135435796Y-67759556D01*
X135504205Y-67720060D01*
X135560060Y-67664205D01*
X135570000Y-67646988D01*
X135570000Y-68242360D01*
X135698934Y-68188954D01*
X135698952Y-68188944D01*
X135829965Y-68101404D01*
X135829973Y-68101398D01*
X135941398Y-67989973D01*
X135941401Y-67989969D01*
X136028947Y-67858948D01*
X136028952Y-67858938D01*
X136050397Y-67807168D01*
X136050397Y-67807166D01*
X136089255Y-67713355D01*
X136089258Y-67713343D01*
X136119999Y-67558797D01*
X136120000Y-67558794D01*
X136120000Y-67180000D01*
X135620000Y-67180000D01*
X135620000Y-66680000D01*
X136120000Y-66680000D01*
X136120000Y-66301206D01*
X136119999Y-66301202D01*
X136089258Y-66146656D01*
X136089256Y-66146648D01*
X136028952Y-66001060D01*
X136028947Y-66001051D01*
X135941401Y-65870030D01*
X135941398Y-65870026D01*
X135829973Y-65758601D01*
X135829969Y-65758598D01*
X135698948Y-65671052D01*
X135698938Y-65671047D01*
X135570000Y-65617639D01*
X135570000Y-66213011D01*
X135560060Y-66195795D01*
X135504205Y-66139940D01*
X135435796Y-66100444D01*
X135359496Y-66080000D01*
X135280504Y-66080000D01*
X135204204Y-66100444D01*
X135135795Y-66139940D01*
X135079940Y-66195795D01*
X135070000Y-66213011D01*
X135070000Y-65617639D01*
X135069999Y-65617639D01*
X134941061Y-65671047D01*
X134941051Y-65671052D01*
X134810030Y-65758598D01*
X134810026Y-65758601D01*
X134698601Y-65870026D01*
X134698598Y-65870030D01*
X134611052Y-66001051D01*
X134611049Y-66001057D01*
X134587446Y-66058040D01*
X134543604Y-66112443D01*
X134477310Y-66134507D01*
X134409611Y-66117227D01*
X134365498Y-66072587D01*
X134350515Y-66046635D01*
X134243365Y-65939485D01*
X134177750Y-65901602D01*
X134112136Y-65863719D01*
X134038950Y-65844109D01*
X133965766Y-65824500D01*
X133814234Y-65824500D01*
X133667863Y-65863719D01*
X133536635Y-65939485D01*
X133536632Y-65939487D01*
X133429487Y-66046632D01*
X133429485Y-66046635D01*
X133366054Y-66156500D01*
X133357367Y-66164782D01*
X133352383Y-66175698D01*
X133332549Y-66188445D01*
X133315486Y-66204715D01*
X133302232Y-66207930D01*
X133293606Y-66213475D01*
X133258679Y-66218497D01*
X133258672Y-66218499D01*
X133239943Y-66218499D01*
X133239940Y-66218499D01*
X133232336Y-66218500D01*
X133232335Y-66218499D01*
X133232331Y-66218500D01*
X132300097Y-66218500D01*
X132233058Y-66198815D01*
X132212416Y-66182181D01*
X132027416Y-65997181D01*
X131993931Y-65935858D01*
X131998915Y-65866166D01*
X132027416Y-65821819D01*
X133212416Y-64636819D01*
X133273739Y-64603334D01*
X133300097Y-64600500D01*
X135247323Y-64600500D01*
X135247339Y-64600501D01*
X135254935Y-64600501D01*
X135413046Y-64600501D01*
X135413049Y-64600501D01*
X135565777Y-64559577D01*
X135628492Y-64523368D01*
X135702708Y-64480520D01*
X135706917Y-64476310D01*
X135718842Y-64469159D01*
X135746067Y-64462072D01*
X135772302Y-64451930D01*
X135782620Y-64451500D01*
X138673717Y-64451500D01*
X138740756Y-64471185D01*
G37*
%TD.AperFunction*%
%TA.AperFunction,Conductor*%
G36*
X121654075Y-80842993D02*
G01*
X121719901Y-80957007D01*
X121812993Y-81050099D01*
X121927007Y-81115925D01*
X121990590Y-81132962D01*
X121501466Y-81622085D01*
X121501466Y-81622086D01*
X121517267Y-81633566D01*
X121517275Y-81633571D01*
X121648729Y-81700551D01*
X121699525Y-81748526D01*
X121716320Y-81816347D01*
X121693782Y-81882482D01*
X121639067Y-81925933D01*
X121630761Y-81928964D01*
X121620716Y-81932227D01*
X121601583Y-81938444D01*
X121412179Y-82034951D01*
X121240213Y-82159890D01*
X121240209Y-82159894D01*
X121112181Y-82287923D01*
X121050858Y-82321408D01*
X120981166Y-82316424D01*
X120925233Y-82274552D01*
X120900816Y-82209088D01*
X120900500Y-82200242D01*
X120900500Y-81306185D01*
X120920185Y-81239146D01*
X120972989Y-81193391D01*
X121042147Y-81183447D01*
X121105703Y-81212472D01*
X121134987Y-81249895D01*
X121136430Y-81252728D01*
X121147913Y-81268532D01*
X121147913Y-81268533D01*
X121637037Y-80779409D01*
X121654075Y-80842993D01*
G37*
%TD.AperFunction*%
%TA.AperFunction,Conductor*%
G36*
X140862085Y-81268532D02*
G01*
X140875185Y-81250505D01*
X140930517Y-81207842D01*
X141000131Y-81201866D01*
X141061924Y-81234475D01*
X141096279Y-81295315D01*
X141099500Y-81323395D01*
X141099500Y-82190242D01*
X141079815Y-82257281D01*
X141027011Y-82303036D01*
X140957853Y-82312980D01*
X140894297Y-82283955D01*
X140887819Y-82277923D01*
X140769786Y-82159890D01*
X140597820Y-82034951D01*
X140408414Y-81938444D01*
X140408413Y-81938443D01*
X140408412Y-81938443D01*
X140379246Y-81928966D01*
X140321571Y-81889529D01*
X140294373Y-81825171D01*
X140306288Y-81756324D01*
X140353532Y-81704849D01*
X140361270Y-81700551D01*
X140492732Y-81633566D01*
X140508532Y-81622085D01*
X140508533Y-81622085D01*
X140019410Y-81132962D01*
X140082993Y-81115925D01*
X140197007Y-81050099D01*
X140290099Y-80957007D01*
X140355925Y-80842993D01*
X140372962Y-80779409D01*
X140862085Y-81268532D01*
G37*
%TD.AperFunction*%
%TA.AperFunction,Conductor*%
G36*
X121105703Y-79006045D02*
G01*
X121112181Y-79012077D01*
X121240213Y-79140109D01*
X121412179Y-79265048D01*
X121412181Y-79265049D01*
X121412184Y-79265051D01*
X121601588Y-79361557D01*
X121630753Y-79371033D01*
X121688426Y-79410468D01*
X121715625Y-79474826D01*
X121703712Y-79543673D01*
X121656469Y-79595149D01*
X121648730Y-79599447D01*
X121517269Y-79666431D01*
X121501466Y-79677912D01*
X121501466Y-79677913D01*
X121990590Y-80167037D01*
X121927007Y-80184075D01*
X121812993Y-80249901D01*
X121719901Y-80342993D01*
X121654075Y-80457007D01*
X121637037Y-80520590D01*
X121147913Y-80031466D01*
X121147912Y-80031466D01*
X121136432Y-80047269D01*
X121134984Y-80050111D01*
X121134148Y-80050995D01*
X121133889Y-80051419D01*
X121133800Y-80051364D01*
X121087009Y-80100906D01*
X121019188Y-80117701D01*
X120953053Y-80095163D01*
X120909603Y-80040447D01*
X120900500Y-79993815D01*
X120900500Y-79099758D01*
X120920185Y-79032719D01*
X120972989Y-78986964D01*
X121042147Y-78977020D01*
X121105703Y-79006045D01*
G37*
%TD.AperFunction*%
%TA.AperFunction,Conductor*%
G36*
X141018834Y-78993576D02*
G01*
X141074767Y-79035448D01*
X141099184Y-79100912D01*
X141099500Y-79109758D01*
X141099500Y-79976604D01*
X141079815Y-80043643D01*
X141027011Y-80089398D01*
X140957853Y-80099342D01*
X140894297Y-80070317D01*
X140875184Y-80049492D01*
X140862087Y-80031466D01*
X140862085Y-80031466D01*
X140372962Y-80520589D01*
X140355925Y-80457007D01*
X140290099Y-80342993D01*
X140197007Y-80249901D01*
X140082993Y-80184075D01*
X140019409Y-80167037D01*
X140508533Y-79677913D01*
X140492727Y-79666429D01*
X140361269Y-79599447D01*
X140310474Y-79551473D01*
X140293679Y-79483651D01*
X140316217Y-79417517D01*
X140370932Y-79374066D01*
X140379216Y-79371043D01*
X140408412Y-79361557D01*
X140597816Y-79265051D01*
X140639595Y-79234697D01*
X140769786Y-79140109D01*
X140769788Y-79140106D01*
X140769792Y-79140104D01*
X140887819Y-79022077D01*
X140949142Y-78988592D01*
X141018834Y-78993576D01*
G37*
%TD.AperFunction*%
%TA.AperFunction,Conductor*%
G36*
X128754257Y-71820185D02*
G01*
X128800012Y-71872989D01*
X128809956Y-71942147D01*
X128793950Y-71987620D01*
X128727133Y-72100602D01*
X128727129Y-72100611D01*
X128682335Y-72254791D01*
X128682334Y-72254797D01*
X128679500Y-72290811D01*
X128679500Y-72689169D01*
X128679501Y-72689191D01*
X128682335Y-72725205D01*
X128727129Y-72879388D01*
X128727131Y-72879393D01*
X128808863Y-73017595D01*
X128808869Y-73017603D01*
X128879951Y-73088685D01*
X128913436Y-73150008D01*
X128909312Y-73217320D01*
X128894378Y-73259999D01*
X128894378Y-73260000D01*
X129239591Y-73260000D01*
X129240045Y-73260001D01*
X129244694Y-73260018D01*
X129250819Y-73260500D01*
X129376372Y-73260499D01*
X129376454Y-73260500D01*
X129409781Y-73270417D01*
X129443039Y-73280183D01*
X129443193Y-73280361D01*
X129443421Y-73280429D01*
X129466132Y-73306834D01*
X129488794Y-73332987D01*
X129488850Y-73333247D01*
X129488982Y-73333400D01*
X129489159Y-73334666D01*
X129500000Y-73384499D01*
X129500000Y-73510000D01*
X129550500Y-73510000D01*
X129617539Y-73529685D01*
X129663294Y-73582489D01*
X129674500Y-73634000D01*
X129674500Y-75063851D01*
X129654815Y-75130890D01*
X129602011Y-75176645D01*
X129582789Y-75182853D01*
X129582902Y-75183225D01*
X129577074Y-75184993D01*
X129577067Y-75184996D01*
X129424116Y-75248363D01*
X129424114Y-75248363D01*
X129424112Y-75248365D01*
X129286466Y-75340349D01*
X129227229Y-75399591D01*
X129165907Y-75433078D01*
X129096215Y-75428096D01*
X129051863Y-75399594D01*
X127480441Y-73828171D01*
X127412270Y-73760000D01*
X128894378Y-73760000D01*
X128926065Y-73850557D01*
X128926066Y-73850559D01*
X129003934Y-73956065D01*
X129109438Y-74033931D01*
X129233219Y-74077244D01*
X129249999Y-74078817D01*
X129250000Y-74078816D01*
X129250000Y-73760000D01*
X128894378Y-73760000D01*
X127412270Y-73760000D01*
X127261819Y-73609549D01*
X127228334Y-73548226D01*
X127225500Y-73521868D01*
X127225500Y-72866722D01*
X127245185Y-72799683D01*
X127297989Y-72753928D01*
X127314905Y-72747646D01*
X127392149Y-72725204D01*
X127472898Y-72701744D01*
X127614365Y-72618081D01*
X127730581Y-72501865D01*
X127814244Y-72360398D01*
X127860098Y-72202569D01*
X127863000Y-72165694D01*
X127863000Y-71924500D01*
X127882685Y-71857461D01*
X127935489Y-71811706D01*
X127987000Y-71800500D01*
X128687218Y-71800500D01*
X128754257Y-71820185D01*
G37*
%TD.AperFunction*%
%TA.AperFunction,Conductor*%
G36*
X127692539Y-67614685D02*
G01*
X127738294Y-67667489D01*
X127749500Y-67719000D01*
X127749500Y-68617870D01*
X127749501Y-68617876D01*
X127755908Y-68677483D01*
X127806202Y-68812328D01*
X127806206Y-68812335D01*
X127874765Y-68903917D01*
X127882502Y-68924661D01*
X127894476Y-68943292D01*
X127897627Y-68965210D01*
X127899183Y-68969381D01*
X127899499Y-68978227D01*
X127899499Y-69079057D01*
X127899499Y-69079059D01*
X127899500Y-69089053D01*
X127899500Y-69771038D01*
X127879815Y-69838077D01*
X127827011Y-69883832D01*
X127757853Y-69893776D01*
X127694297Y-69864751D01*
X127658458Y-69811992D01*
X127614846Y-69687354D01*
X127534292Y-69578207D01*
X127425145Y-69497653D01*
X127297102Y-69452850D01*
X127266707Y-69450000D01*
X126875000Y-69450000D01*
X126875000Y-70649999D01*
X127138428Y-70649999D01*
X127205467Y-70669684D01*
X127251222Y-70722488D01*
X127261709Y-70781852D01*
X127262096Y-70781868D01*
X127262026Y-70783644D01*
X127262044Y-70783745D01*
X127262000Y-70784292D01*
X127262000Y-71025500D01*
X127242315Y-71092539D01*
X127189511Y-71138294D01*
X127138000Y-71149500D01*
X126224500Y-71149500D01*
X126157461Y-71129815D01*
X126111706Y-71077011D01*
X126100500Y-71025500D01*
X126100500Y-70773999D01*
X126120185Y-70706960D01*
X126172989Y-70661205D01*
X126224500Y-70649999D01*
X126375000Y-70649999D01*
X126375000Y-69450000D01*
X126224500Y-69450000D01*
X126157461Y-69430315D01*
X126111706Y-69377511D01*
X126100500Y-69326000D01*
X126100500Y-68286930D01*
X126120185Y-68219891D01*
X126172989Y-68174136D01*
X126242147Y-68164192D01*
X126293391Y-68183828D01*
X126301052Y-68188947D01*
X126301065Y-68188954D01*
X126429999Y-68242360D01*
X126430000Y-68242360D01*
X126430000Y-67646988D01*
X126439940Y-67664205D01*
X126495795Y-67720060D01*
X126564204Y-67759556D01*
X126640504Y-67780000D01*
X126719496Y-67780000D01*
X126795796Y-67759556D01*
X126864205Y-67720060D01*
X126920060Y-67664205D01*
X126930000Y-67646988D01*
X126930000Y-68242359D01*
X126978547Y-68222251D01*
X127048017Y-68214782D01*
X127110496Y-68246057D01*
X127146148Y-68306146D01*
X127150000Y-68336812D01*
X127150001Y-68614780D01*
X127150002Y-68614808D01*
X127152908Y-68639869D01*
X127152909Y-68639873D01*
X127198211Y-68742474D01*
X127198214Y-68742479D01*
X127277520Y-68821785D01*
X127277525Y-68821788D01*
X127380123Y-68867089D01*
X127405206Y-68869999D01*
X127500000Y-68869998D01*
X127500000Y-68095000D01*
X127144000Y-68095000D01*
X127076961Y-68075315D01*
X127031206Y-68022511D01*
X127020000Y-67971000D01*
X127020000Y-67719000D01*
X127039685Y-67651961D01*
X127092489Y-67606206D01*
X127144000Y-67595000D01*
X127625500Y-67595000D01*
X127692539Y-67614685D01*
G37*
%TD.AperFunction*%
%TA.AperFunction,Conductor*%
G36*
X124342539Y-66030185D02*
G01*
X124388294Y-66082989D01*
X124399500Y-66134500D01*
X124399500Y-70775500D01*
X124379815Y-70842539D01*
X124327011Y-70888294D01*
X124275500Y-70899500D01*
X123567661Y-70899500D01*
X123500622Y-70879815D01*
X123454867Y-70827011D01*
X123444923Y-70757853D01*
X123445188Y-70756102D01*
X123470500Y-70596286D01*
X123470500Y-70383713D01*
X123463715Y-70340875D01*
X123437246Y-70173757D01*
X123371557Y-69971588D01*
X123275051Y-69782184D01*
X123275049Y-69782181D01*
X123275048Y-69782179D01*
X123150109Y-69610213D01*
X122999786Y-69459890D01*
X122827820Y-69334951D01*
X122638414Y-69238444D01*
X122638413Y-69238443D01*
X122638412Y-69238443D01*
X122609246Y-69228966D01*
X122551571Y-69189529D01*
X122524373Y-69125171D01*
X122536288Y-69056324D01*
X122583532Y-69004849D01*
X122591270Y-69000551D01*
X122722732Y-68933566D01*
X122738532Y-68922085D01*
X122738533Y-68922085D01*
X122249410Y-68432962D01*
X122312993Y-68415925D01*
X122427007Y-68350099D01*
X122520099Y-68257007D01*
X122585925Y-68142993D01*
X122602962Y-68079410D01*
X123092085Y-68568533D01*
X123092085Y-68568532D01*
X123103568Y-68552730D01*
X123185745Y-68391452D01*
X123185748Y-68391444D01*
X123241682Y-68219293D01*
X123270000Y-68040506D01*
X123270000Y-67859493D01*
X123241682Y-67680706D01*
X123185748Y-67508555D01*
X123185747Y-67508552D01*
X123103571Y-67347275D01*
X123103566Y-67347267D01*
X123092085Y-67331466D01*
X122602962Y-67820589D01*
X122585925Y-67757007D01*
X122520099Y-67642993D01*
X122427007Y-67549901D01*
X122312993Y-67484075D01*
X122249409Y-67467037D01*
X122738533Y-66977913D01*
X122722727Y-66966429D01*
X122591269Y-66899447D01*
X122540474Y-66851473D01*
X122523679Y-66783651D01*
X122546217Y-66717517D01*
X122600932Y-66674066D01*
X122609216Y-66671043D01*
X122638412Y-66661557D01*
X122827816Y-66565051D01*
X122849789Y-66549086D01*
X122999786Y-66440109D01*
X122999788Y-66440106D01*
X122999792Y-66440104D01*
X123150104Y-66289792D01*
X123150106Y-66289788D01*
X123150109Y-66289786D01*
X123231423Y-66177865D01*
X123275051Y-66117816D01*
X123280025Y-66108054D01*
X123295235Y-66078205D01*
X123343209Y-66027409D01*
X123405719Y-66010500D01*
X124275500Y-66010500D01*
X124342539Y-66030185D01*
G37*
%TD.AperFunction*%
%TA.AperFunction,Conductor*%
G36*
X121654075Y-68142993D02*
G01*
X121719901Y-68257007D01*
X121812993Y-68350099D01*
X121927007Y-68415925D01*
X121990590Y-68432962D01*
X121501466Y-68922085D01*
X121501466Y-68922086D01*
X121517267Y-68933566D01*
X121517275Y-68933571D01*
X121648729Y-69000551D01*
X121699525Y-69048526D01*
X121716320Y-69116347D01*
X121693782Y-69182482D01*
X121639067Y-69225933D01*
X121630761Y-69228964D01*
X121620716Y-69232227D01*
X121601583Y-69238444D01*
X121412179Y-69334951D01*
X121240213Y-69459890D01*
X121240209Y-69459894D01*
X121112181Y-69587923D01*
X121050858Y-69621408D01*
X120981166Y-69616424D01*
X120925233Y-69574552D01*
X120900816Y-69509088D01*
X120900500Y-69500242D01*
X120900500Y-68606185D01*
X120920185Y-68539146D01*
X120972989Y-68493391D01*
X121042147Y-68483447D01*
X121105703Y-68512472D01*
X121134987Y-68549895D01*
X121136430Y-68552728D01*
X121147913Y-68568532D01*
X121147913Y-68568533D01*
X121637037Y-68079409D01*
X121654075Y-68142993D01*
G37*
%TD.AperFunction*%
%TA.AperFunction,Conductor*%
G36*
X140862085Y-68568532D02*
G01*
X140875185Y-68550505D01*
X140930517Y-68507842D01*
X141000131Y-68501866D01*
X141061924Y-68534475D01*
X141096279Y-68595315D01*
X141099500Y-68623395D01*
X141099500Y-69490242D01*
X141079815Y-69557281D01*
X141027011Y-69603036D01*
X140957853Y-69612980D01*
X140894297Y-69583955D01*
X140887819Y-69577923D01*
X140769786Y-69459890D01*
X140597820Y-69334951D01*
X140408414Y-69238444D01*
X140408413Y-69238443D01*
X140408412Y-69238443D01*
X140379246Y-69228966D01*
X140321571Y-69189529D01*
X140294373Y-69125171D01*
X140306288Y-69056324D01*
X140353532Y-69004849D01*
X140361270Y-69000551D01*
X140492732Y-68933566D01*
X140508532Y-68922085D01*
X140508533Y-68922085D01*
X140019410Y-68432962D01*
X140082993Y-68415925D01*
X140197007Y-68350099D01*
X140290099Y-68257007D01*
X140355925Y-68142993D01*
X140372962Y-68079409D01*
X140862085Y-68568532D01*
G37*
%TD.AperFunction*%
%TA.AperFunction,Conductor*%
G36*
X121105703Y-66306045D02*
G01*
X121112181Y-66312077D01*
X121240213Y-66440109D01*
X121412179Y-66565048D01*
X121412181Y-66565049D01*
X121412184Y-66565051D01*
X121601588Y-66661557D01*
X121630753Y-66671033D01*
X121688426Y-66710468D01*
X121715625Y-66774826D01*
X121703712Y-66843673D01*
X121656469Y-66895149D01*
X121648730Y-66899447D01*
X121517269Y-66966431D01*
X121501466Y-66977912D01*
X121501466Y-66977913D01*
X121990591Y-67467037D01*
X121927007Y-67484075D01*
X121812993Y-67549901D01*
X121719901Y-67642993D01*
X121654075Y-67757007D01*
X121637037Y-67820590D01*
X121147913Y-67331466D01*
X121147912Y-67331466D01*
X121136432Y-67347269D01*
X121134984Y-67350111D01*
X121134148Y-67350995D01*
X121133889Y-67351419D01*
X121133800Y-67351364D01*
X121087009Y-67400906D01*
X121019188Y-67417701D01*
X120953053Y-67395163D01*
X120909603Y-67340447D01*
X120900500Y-67293815D01*
X120900500Y-66399758D01*
X120920185Y-66332719D01*
X120972989Y-66286964D01*
X121042147Y-66277020D01*
X121105703Y-66306045D01*
G37*
%TD.AperFunction*%
%TA.AperFunction,Conductor*%
G36*
X141018834Y-66293576D02*
G01*
X141074767Y-66335448D01*
X141099184Y-66400912D01*
X141099500Y-66409758D01*
X141099500Y-67276604D01*
X141079815Y-67343643D01*
X141027011Y-67389398D01*
X140957853Y-67399342D01*
X140894297Y-67370317D01*
X140875184Y-67349492D01*
X140862087Y-67331466D01*
X140862085Y-67331466D01*
X140372962Y-67820589D01*
X140355925Y-67757007D01*
X140290099Y-67642993D01*
X140197007Y-67549901D01*
X140082993Y-67484075D01*
X140019409Y-67467037D01*
X140508533Y-66977913D01*
X140492727Y-66966429D01*
X140361269Y-66899447D01*
X140310474Y-66851473D01*
X140293679Y-66783651D01*
X140316217Y-66717517D01*
X140370932Y-66674066D01*
X140379216Y-66671043D01*
X140408412Y-66661557D01*
X140597816Y-66565051D01*
X140619789Y-66549086D01*
X140769786Y-66440109D01*
X140769788Y-66440106D01*
X140769792Y-66440104D01*
X140887819Y-66322077D01*
X140949142Y-66288592D01*
X141018834Y-66293576D01*
G37*
%TD.AperFunction*%
%TA.AperFunction,Conductor*%
G36*
X134563156Y-61920185D02*
G01*
X134608911Y-61972989D01*
X134618855Y-62042147D01*
X134610678Y-62071953D01*
X134550743Y-62216648D01*
X134550741Y-62216656D01*
X134520000Y-62371202D01*
X134520000Y-62500000D01*
X135020000Y-62500000D01*
X135020000Y-63000000D01*
X134520000Y-63000000D01*
X134520000Y-63128797D01*
X134544369Y-63251309D01*
X134538142Y-63320901D01*
X134495278Y-63376078D01*
X134429389Y-63399322D01*
X134422752Y-63399500D01*
X133079057Y-63399500D01*
X132920943Y-63399500D01*
X132768215Y-63440423D01*
X132768214Y-63440423D01*
X132768212Y-63440424D01*
X132768209Y-63440425D01*
X132718096Y-63469359D01*
X132718095Y-63469360D01*
X132696711Y-63481706D01*
X132631285Y-63519479D01*
X132631282Y-63519481D01*
X132519478Y-63631286D01*
X131063585Y-65087180D01*
X131036656Y-65101883D01*
X131010840Y-65118476D01*
X131004637Y-65119367D01*
X131002262Y-65120665D01*
X130975905Y-65123499D01*
X130825943Y-65123499D01*
X130825939Y-65123499D01*
X130818332Y-65123500D01*
X130818331Y-65123499D01*
X130818331Y-65123500D01*
X129666940Y-65123500D01*
X129626019Y-65134464D01*
X129626019Y-65134465D01*
X129588751Y-65144451D01*
X129514214Y-65164423D01*
X129514209Y-65164426D01*
X129377290Y-65243475D01*
X129377282Y-65243481D01*
X128660003Y-65960761D01*
X128598680Y-65994246D01*
X128528988Y-65989262D01*
X128484641Y-65960761D01*
X128463367Y-65939487D01*
X128463365Y-65939485D01*
X128397750Y-65901602D01*
X128332136Y-65863719D01*
X128258950Y-65844109D01*
X128185766Y-65824500D01*
X128034234Y-65824500D01*
X127887863Y-65863719D01*
X127756635Y-65939485D01*
X127756632Y-65939487D01*
X127649487Y-66046632D01*
X127649481Y-66046641D01*
X127634499Y-66072589D01*
X127583931Y-66120803D01*
X127515324Y-66134024D01*
X127450460Y-66108054D01*
X127412553Y-66058038D01*
X127388954Y-66001064D01*
X127388947Y-66001051D01*
X127301401Y-65870030D01*
X127301398Y-65870026D01*
X127189973Y-65758601D01*
X127189969Y-65758598D01*
X127058948Y-65671052D01*
X127058938Y-65671047D01*
X126930000Y-65617639D01*
X126930000Y-66213011D01*
X126920060Y-66195795D01*
X126864205Y-66139940D01*
X126795796Y-66100444D01*
X126719496Y-66080000D01*
X126640504Y-66080000D01*
X126564204Y-66100444D01*
X126495795Y-66139940D01*
X126439940Y-66195795D01*
X126430000Y-66213011D01*
X126430000Y-65617639D01*
X126429999Y-65617639D01*
X126301061Y-65671047D01*
X126301048Y-65671054D01*
X126293389Y-65676172D01*
X126226712Y-65697049D01*
X126159332Y-65678564D01*
X126112642Y-65626584D01*
X126100500Y-65573069D01*
X126100500Y-63920945D01*
X126100500Y-63920943D01*
X126089160Y-63878621D01*
X126090823Y-63808772D01*
X126129986Y-63750910D01*
X126194214Y-63723406D01*
X126263117Y-63734993D01*
X126277828Y-63743428D01*
X126301056Y-63758949D01*
X126301065Y-63758954D01*
X126429999Y-63812360D01*
X126430000Y-63812360D01*
X126430000Y-63216988D01*
X126439940Y-63234205D01*
X126495795Y-63290060D01*
X126564204Y-63329556D01*
X126640504Y-63350000D01*
X126719496Y-63350000D01*
X126795796Y-63329556D01*
X126864205Y-63290060D01*
X126920060Y-63234205D01*
X126930000Y-63216988D01*
X126930000Y-63812360D01*
X127058934Y-63758954D01*
X127058952Y-63758944D01*
X127189965Y-63671404D01*
X127189973Y-63671398D01*
X127301398Y-63559973D01*
X127301401Y-63559969D01*
X127388947Y-63428948D01*
X127388952Y-63428939D01*
X127449256Y-63283351D01*
X127449258Y-63283343D01*
X127479999Y-63128797D01*
X127480000Y-63128794D01*
X127480000Y-63000000D01*
X126980000Y-63000000D01*
X126980000Y-62500000D01*
X127480000Y-62500000D01*
X127480000Y-62371206D01*
X127479999Y-62371202D01*
X127449258Y-62216656D01*
X127449256Y-62216648D01*
X127389322Y-62071953D01*
X127381853Y-62002483D01*
X127413128Y-61940004D01*
X127473217Y-61904352D01*
X127503883Y-61900500D01*
X134496117Y-61900500D01*
X134563156Y-61920185D01*
G37*
%TD.AperFunction*%
%TA.AperFunction,Conductor*%
G36*
X125923156Y-61920185D02*
G01*
X125968911Y-61972989D01*
X125978855Y-62042147D01*
X125970678Y-62071953D01*
X125910743Y-62216648D01*
X125910741Y-62216656D01*
X125880000Y-62371202D01*
X125880000Y-62500000D01*
X126380000Y-62500000D01*
X126380000Y-63000000D01*
X125880000Y-63000000D01*
X125880000Y-63128790D01*
X125900063Y-63229657D01*
X125893835Y-63299249D01*
X125850971Y-63354426D01*
X125785081Y-63377670D01*
X125717084Y-63361602D01*
X125690764Y-63341529D01*
X124857590Y-62508355D01*
X124857588Y-62508352D01*
X124738717Y-62389481D01*
X124738716Y-62389480D01*
X124651904Y-62339360D01*
X124651904Y-62339359D01*
X124651900Y-62339358D01*
X124601785Y-62310423D01*
X124449057Y-62269499D01*
X124290943Y-62269499D01*
X124283347Y-62269499D01*
X124283331Y-62269500D01*
X123594499Y-62269500D01*
X123585813Y-62266949D01*
X123576852Y-62268238D01*
X123552811Y-62257259D01*
X123527460Y-62249815D01*
X123521532Y-62242974D01*
X123513296Y-62239213D01*
X123499006Y-62216978D01*
X123481705Y-62197011D01*
X123479417Y-62186496D01*
X123475522Y-62180435D01*
X123470499Y-62145500D01*
X123470499Y-62024500D01*
X123490184Y-61957461D01*
X123542988Y-61911706D01*
X123594499Y-61900500D01*
X125856117Y-61900500D01*
X125923156Y-61920185D01*
G37*
%TD.AperFunction*%
%TA.AperFunction,Conductor*%
G36*
X138482539Y-61920185D02*
G01*
X138528294Y-61972989D01*
X138539500Y-62024500D01*
X138539501Y-63126500D01*
X138519816Y-63193539D01*
X138467013Y-63239294D01*
X138415501Y-63250500D01*
X136244000Y-63250500D01*
X136176961Y-63230815D01*
X136131206Y-63178011D01*
X136120000Y-63126500D01*
X136120000Y-63000000D01*
X135620000Y-63000000D01*
X135620000Y-62500000D01*
X136120000Y-62500000D01*
X136120000Y-62371206D01*
X136119999Y-62371202D01*
X136089258Y-62216656D01*
X136089256Y-62216648D01*
X136029322Y-62071953D01*
X136021853Y-62002483D01*
X136053128Y-61940004D01*
X136113217Y-61904352D01*
X136143883Y-61900500D01*
X138415500Y-61900500D01*
X138482539Y-61920185D01*
G37*
%TD.AperFunction*%
%TD*%
M02*
