%TF.GenerationSoftware,KiCad,Pcbnew,9.0.6*%
%TF.CreationDate,2025-11-29T15:25:02+01:00*%
%TF.ProjectId,rp2040-dev-board,72703230-3430-42d6-9465-762d626f6172,rev?*%
%TF.SameCoordinates,Original*%
%TF.FileFunction,Soldermask,Bot*%
%TF.FilePolarity,Negative*%
%FSLAX46Y46*%
G04 Gerber Fmt 4.6, Leading zero omitted, Abs format (unit mm)*
G04 Created by KiCad (PCBNEW 9.0.6) date 2025-11-29 15:25:02*
%MOMM*%
%LPD*%
G01*
G04 APERTURE LIST*
%ADD10C,0.650000*%
%ADD11O,1.000000X2.100000*%
%ADD12O,1.000000X1.600000*%
%ADD13R,1.700000X1.700000*%
%ADD14C,1.700000*%
G04 APERTURE END LIST*
D10*
%TO.C,J1*%
X133890000Y-66400000D03*
X128110000Y-66400000D03*
D11*
X135320000Y-66930000D03*
D12*
X135320000Y-62750000D03*
D11*
X126680000Y-66930000D03*
D12*
X126680000Y-62750000D03*
%TD*%
D13*
%TO.C,J4*%
X128460000Y-110890000D03*
D14*
X131000000Y-110890000D03*
X133540000Y-110890000D03*
%TD*%
D13*
%TO.C,J2*%
X122120000Y-62870000D03*
D14*
X122120000Y-65410000D03*
X122120000Y-67950000D03*
X122120000Y-70490000D03*
X122120000Y-73030000D03*
X122120000Y-75570000D03*
X122120000Y-78110000D03*
X122120000Y-80650000D03*
X122120000Y-83190000D03*
X122120000Y-85730000D03*
X122120000Y-88270000D03*
X122120000Y-90810000D03*
X122120000Y-93350000D03*
X122120000Y-95890000D03*
X122120000Y-98430000D03*
X122120000Y-100970000D03*
X122120000Y-103510000D03*
X122120000Y-106050000D03*
X122120000Y-108590000D03*
X122120000Y-111130000D03*
%TD*%
D13*
%TO.C,J3*%
X139890000Y-62870000D03*
D14*
X139890000Y-65410000D03*
X139890000Y-67950000D03*
X139890000Y-70490000D03*
X139890000Y-73030000D03*
X139890000Y-75570000D03*
X139890000Y-78110000D03*
X139890000Y-80650000D03*
X139890000Y-83190000D03*
X139890000Y-85730000D03*
X139890000Y-88270000D03*
X139890000Y-90810000D03*
X139890000Y-93350000D03*
X139890000Y-95890000D03*
X139890000Y-98430000D03*
X139890000Y-100970000D03*
X139890000Y-103510000D03*
X139890000Y-106050000D03*
X139890000Y-108590000D03*
X139890000Y-111130000D03*
%TD*%
M02*
