M48
; DRILL file {KiCad 9.0.6} date 2025-11-29T15:25:18+0100
; FORMAT={-:-/ absolute / metric / decimal}
; #@! TF.CreationDate,2025-11-29T15:25:18+01:00
; #@! TF.GenerationSoftware,Kicad,Pcbnew,9.0.6
; #@! TF.FileFunction,Plated,1,2,PTH
FMAT,2
METRIC
; #@! TA.AperFunction,Plated,PTH,ViaDrill
T1C0.300
; #@! TA.AperFunction,Plated,PTH,ComponentDrill
T2C0.600
; #@! TA.AperFunction,Plated,PTH,ComponentDrill
T3C1.000
%
G90
G05
T1
X121.5Y-79.5
X121.605Y-81.899
X123.5Y-84.5
X125.12Y-100.02
X125.4Y-86.5
X127.0Y-104.0
X127.0Y-108.0
X127.5Y-87.0
X128.0Y-77.5
X128.5Y-73.5
X128.5Y-89.5
X128.5Y-93.5
X128.5Y-102.0
X128.553Y-90.298
X128.9Y-92.0
X129.69Y-93.454
X129.724Y-81.625
X130.0Y-88.5
X130.0Y-95.5
X130.8Y-93.45
X130.91Y-80.0
X131.0Y-86.0
X131.4Y-88.5
X131.4Y-95.706
X131.5Y-96.5
X132.0Y-93.5
X132.906Y-89.005
X133.1Y-89.808
X133.501Y-90.5
X133.6Y-92.0
X134.0Y-96.5
X134.0Y-103.0
X134.5Y-104.0
X134.5Y-105.0
X135.0Y-83.5
X135.5Y-87.0
X135.721Y-103.0
X135.721Y-104.0
X136.0Y-80.5
X136.0Y-89.4
X136.755Y-86.0
X137.5Y-62.5
X138.356Y-76.0
X138.356Y-83.875
T3
X122.12Y-62.87
X122.12Y-65.41
X122.12Y-67.95
X122.12Y-70.49
X122.12Y-73.03
X122.12Y-75.57
X122.12Y-78.11
X122.12Y-80.65
X122.12Y-83.19
X122.12Y-85.73
X122.12Y-88.27
X122.12Y-90.81
X122.12Y-93.35
X122.12Y-95.89
X122.12Y-98.43
X122.12Y-100.97
X122.12Y-103.51
X122.12Y-106.05
X122.12Y-108.59
X122.12Y-111.13
X128.46Y-110.89
X131.0Y-110.89
X133.54Y-110.89
X139.89Y-62.87
X139.89Y-65.41
X139.89Y-67.95
X139.89Y-70.49
X139.89Y-73.03
X139.89Y-75.57
X139.89Y-78.11
X139.89Y-80.65
X139.89Y-83.19
X139.89Y-85.73
X139.89Y-88.27
X139.89Y-90.81
X139.89Y-93.35
X139.89Y-95.89
X139.89Y-98.43
X139.89Y-100.97
X139.89Y-103.51
X139.89Y-106.05
X139.89Y-108.59
X139.89Y-111.13
T2
G00X126.68Y-63.05
M15
G01X126.68Y-62.45
M16
G05
G00X126.68Y-67.48
M15
G01X126.68Y-66.38
M16
G05
G00X135.32Y-63.05
M15
G01X135.32Y-62.45
M16
G05
G00X135.32Y-67.48
M15
G01X135.32Y-66.38
M16
G05
M30
