%TF.GenerationSoftware,KiCad,Pcbnew,9.0.6*%
%TF.CreationDate,2025-11-29T15:25:02+01:00*%
%TF.ProjectId,rp2040-dev-board,72703230-3430-42d6-9465-762d626f6172,rev?*%
%TF.SameCoordinates,Original*%
%TF.FileFunction,Soldermask,Top*%
%TF.FilePolarity,Negative*%
%FSLAX46Y46*%
G04 Gerber Fmt 4.6, Leading zero omitted, Abs format (unit mm)*
G04 Created by KiCad (PCBNEW 9.0.6) date 2025-11-29 15:25:02*
%MOMM*%
%LPD*%
G01*
G04 APERTURE LIST*
G04 Aperture macros list*
%AMRoundRect*
0 Rectangle with rounded corners*
0 $1 Rounding radius*
0 $2 $3 $4 $5 $6 $7 $8 $9 X,Y pos of 4 corners*
0 Add a 4 corners polygon primitive as box body*
4,1,4,$2,$3,$4,$5,$6,$7,$8,$9,$2,$3,0*
0 Add four circle primitives for the rounded corners*
1,1,$1+$1,$2,$3*
1,1,$1+$1,$4,$5*
1,1,$1+$1,$6,$7*
1,1,$1+$1,$8,$9*
0 Add four rect primitives between the rounded corners*
20,1,$1+$1,$2,$3,$4,$5,0*
20,1,$1+$1,$4,$5,$6,$7,0*
20,1,$1+$1,$6,$7,$8,$9,0*
20,1,$1+$1,$8,$9,$2,$3,0*%
G04 Aperture macros list end*
%ADD10C,0.650000*%
%ADD11R,0.600000X1.450000*%
%ADD12R,0.300000X1.450000*%
%ADD13O,1.000000X2.100000*%
%ADD14O,1.000000X1.600000*%
%ADD15RoundRect,0.135000X0.135000X0.185000X-0.135000X0.185000X-0.135000X-0.185000X0.135000X-0.185000X0*%
%ADD16RoundRect,0.140000X0.140000X0.170000X-0.140000X0.170000X-0.140000X-0.170000X0.140000X-0.170000X0*%
%ADD17R,1.700000X1.700000*%
%ADD18C,1.700000*%
%ADD19RoundRect,0.135000X0.185000X-0.135000X0.185000X0.135000X-0.185000X0.135000X-0.185000X-0.135000X0*%
%ADD20RoundRect,0.140000X-0.170000X0.140000X-0.170000X-0.140000X0.170000X-0.140000X0.170000X0.140000X0*%
%ADD21RoundRect,0.150000X-0.587500X-0.150000X0.587500X-0.150000X0.587500X0.150000X-0.587500X0.150000X0*%
%ADD22RoundRect,0.062500X-0.387500X-0.062500X0.387500X-0.062500X0.387500X0.062500X-0.387500X0.062500X0*%
%ADD23R,0.200000X1.600000*%
%ADD24RoundRect,0.135000X-0.135000X-0.185000X0.135000X-0.185000X0.135000X0.185000X-0.135000X0.185000X0*%
%ADD25RoundRect,0.050000X-0.387500X-0.050000X0.387500X-0.050000X0.387500X0.050000X-0.387500X0.050000X0*%
%ADD26RoundRect,0.050000X-0.050000X-0.387500X0.050000X-0.387500X0.050000X0.387500X-0.050000X0.387500X0*%
%ADD27R,3.200000X3.200000*%
%ADD28RoundRect,0.135000X-0.185000X0.135000X-0.185000X-0.135000X0.185000X-0.135000X0.185000X0.135000X0*%
%ADD29RoundRect,0.140000X0.170000X-0.140000X0.170000X0.140000X-0.170000X0.140000X-0.170000X-0.140000X0*%
%ADD30RoundRect,0.250000X-0.450000X-0.350000X0.450000X-0.350000X0.450000X0.350000X-0.450000X0.350000X0*%
%ADD31RoundRect,0.200000X-0.200000X-0.800000X0.200000X-0.800000X0.200000X0.800000X-0.200000X0.800000X0*%
G04 APERTURE END LIST*
D10*
%TO.C,J1*%
X133890000Y-66400000D03*
X128110000Y-66400000D03*
D11*
X134250000Y-67845000D03*
X133450000Y-67845000D03*
D12*
X132250000Y-67845000D03*
X131250000Y-67845000D03*
X130750000Y-67845000D03*
X129750000Y-67845000D03*
D11*
X128550000Y-67845000D03*
X127750000Y-67845000D03*
X127750000Y-67845000D03*
X128550000Y-67845000D03*
D12*
X129250000Y-67845000D03*
X130250000Y-67845000D03*
X131750000Y-67845000D03*
X132750000Y-67845000D03*
D11*
X133450000Y-67845000D03*
X134250000Y-67845000D03*
D13*
X135320000Y-66930000D03*
D14*
X135320000Y-62750000D03*
D13*
X126680000Y-66930000D03*
D14*
X126680000Y-62750000D03*
%TD*%
D15*
%TO.C,R4*%
X135510000Y-85970000D03*
X134490000Y-85970000D03*
%TD*%
D16*
%TO.C,C14*%
X135960000Y-70000000D03*
X135000000Y-70000000D03*
%TD*%
%TO.C,C1*%
X135960000Y-74000000D03*
X135000000Y-74000000D03*
%TD*%
D17*
%TO.C,J4*%
X128460000Y-110890000D03*
D18*
X131000000Y-110890000D03*
X133540000Y-110890000D03*
%TD*%
D19*
%TO.C,R1*%
X132500000Y-71010000D03*
X132500000Y-69990000D03*
%TD*%
%TO.C,R7*%
X134500000Y-107510000D03*
X134500000Y-106490000D03*
%TD*%
D16*
%TO.C,C5*%
X135960000Y-77000000D03*
X135000000Y-77000000D03*
%TD*%
D20*
%TO.C,C13*%
X133500000Y-70020000D03*
X133500000Y-70980000D03*
%TD*%
D21*
%TO.C,U2*%
X126625000Y-70050000D03*
X126625000Y-71950000D03*
X128500000Y-71000000D03*
%TD*%
D16*
%TO.C,C4*%
X135960000Y-71000000D03*
X135000000Y-71000000D03*
%TD*%
D22*
%TO.C,U3*%
X129575000Y-82250000D03*
X129575000Y-82750000D03*
X129575000Y-83250000D03*
X129575000Y-83750000D03*
X132425000Y-83750000D03*
X132425000Y-83250000D03*
X132425000Y-82750000D03*
X132425000Y-82250000D03*
D23*
X131000000Y-83000000D03*
%TD*%
D15*
%TO.C,R6*%
X131510000Y-81000000D03*
X130490000Y-81000000D03*
%TD*%
%TO.C,R3*%
X135510000Y-84970000D03*
X134490000Y-84970000D03*
%TD*%
D24*
%TO.C,R5*%
X129490000Y-96500000D03*
X130510000Y-96500000D03*
%TD*%
D16*
%TO.C,C2*%
X135960000Y-73030000D03*
X135000000Y-73030000D03*
%TD*%
%TO.C,C9*%
X135940000Y-79000000D03*
X134980000Y-79000000D03*
%TD*%
D17*
%TO.C,J2*%
X122120000Y-62870000D03*
D18*
X122120000Y-65410000D03*
X122120000Y-67950000D03*
X122120000Y-70490000D03*
X122120000Y-73030000D03*
X122120000Y-75570000D03*
X122120000Y-78110000D03*
X122120000Y-80650000D03*
X122120000Y-83190000D03*
X122120000Y-85730000D03*
X122120000Y-88270000D03*
X122120000Y-90810000D03*
X122120000Y-93350000D03*
X122120000Y-95890000D03*
X122120000Y-98430000D03*
X122120000Y-100970000D03*
X122120000Y-103510000D03*
X122120000Y-106050000D03*
X122120000Y-108590000D03*
X122120000Y-111130000D03*
%TD*%
D16*
%TO.C,C6*%
X135960000Y-76000000D03*
X135000000Y-76000000D03*
%TD*%
%TO.C,C12*%
X128480000Y-79000000D03*
X127520000Y-79000000D03*
%TD*%
D25*
%TO.C,U1*%
X127562500Y-88400000D03*
X127562500Y-88800000D03*
X127562500Y-89200000D03*
X127562500Y-89600000D03*
X127562500Y-90000000D03*
X127562500Y-90400000D03*
X127562500Y-90800000D03*
X127562500Y-91200000D03*
X127562500Y-91600000D03*
X127562500Y-92000000D03*
X127562500Y-92400000D03*
X127562500Y-92800000D03*
X127562500Y-93200000D03*
X127562500Y-93600000D03*
D26*
X128400000Y-94437500D03*
X128800000Y-94437500D03*
X129200000Y-94437500D03*
X129600000Y-94437500D03*
X130000000Y-94437500D03*
X130400000Y-94437500D03*
X130800000Y-94437500D03*
X131200000Y-94437500D03*
X131600000Y-94437500D03*
X132000000Y-94437500D03*
X132400000Y-94437500D03*
X132800000Y-94437500D03*
X133200000Y-94437500D03*
X133600000Y-94437500D03*
D25*
X134437500Y-93600000D03*
X134437500Y-93200000D03*
X134437500Y-92800000D03*
X134437500Y-92400000D03*
X134437500Y-92000000D03*
X134437500Y-91600000D03*
X134437500Y-91200000D03*
X134437500Y-90800000D03*
X134437500Y-90400000D03*
X134437500Y-90000000D03*
X134437500Y-89600000D03*
X134437500Y-89200000D03*
X134437500Y-88800000D03*
X134437500Y-88400000D03*
D26*
X133600000Y-87562500D03*
X133200000Y-87562500D03*
X132800000Y-87562500D03*
X132400000Y-87562500D03*
X132000000Y-87562500D03*
X131600000Y-87562500D03*
X131200000Y-87562500D03*
X130800000Y-87562500D03*
X130400000Y-87562500D03*
X130000000Y-87562500D03*
X129600000Y-87562500D03*
X129200000Y-87562500D03*
X128800000Y-87562500D03*
X128400000Y-87562500D03*
D27*
X131000000Y-91000000D03*
%TD*%
D16*
%TO.C,C7*%
X135960000Y-75000000D03*
X135000000Y-75000000D03*
%TD*%
D28*
%TO.C,R2*%
X129500000Y-72490000D03*
X129500000Y-73510000D03*
%TD*%
D16*
%TO.C,C8*%
X135960000Y-78000000D03*
X135000000Y-78000000D03*
%TD*%
D29*
%TO.C,C16*%
X128000000Y-99480000D03*
X128000000Y-98520000D03*
%TD*%
D30*
%TO.C,Y1*%
X129900000Y-99850000D03*
X132100000Y-99850000D03*
X132100000Y-98150000D03*
X129900000Y-98150000D03*
%TD*%
D31*
%TO.C,SW1*%
X128900000Y-107000000D03*
X133100000Y-107000000D03*
%TD*%
D16*
%TO.C,C3*%
X135960000Y-72000000D03*
X135000000Y-72000000D03*
%TD*%
%TO.C,C10*%
X128480000Y-81000000D03*
X127520000Y-81000000D03*
%TD*%
%TO.C,C11*%
X128480000Y-80000000D03*
X127520000Y-80000000D03*
%TD*%
D17*
%TO.C,J3*%
X139890000Y-62870000D03*
D18*
X139890000Y-65410000D03*
X139890000Y-67950000D03*
X139890000Y-70490000D03*
X139890000Y-73030000D03*
X139890000Y-75570000D03*
X139890000Y-78110000D03*
X139890000Y-80650000D03*
X139890000Y-83190000D03*
X139890000Y-85730000D03*
X139890000Y-88270000D03*
X139890000Y-90810000D03*
X139890000Y-93350000D03*
X139890000Y-95890000D03*
X139890000Y-98430000D03*
X139890000Y-100970000D03*
X139890000Y-103510000D03*
X139890000Y-106050000D03*
X139890000Y-108590000D03*
X139890000Y-111130000D03*
%TD*%
D29*
%TO.C,C15*%
X134000000Y-99460000D03*
X134000000Y-98500000D03*
%TD*%
M02*
